G04 #@! TF.FileFunction,Copper,L2,Bot,Signal*
%FSLAX46Y46*%
G04 Gerber Fmt 4.6, Leading zero omitted, Abs format (unit mm)*
G04 Created by KiCad (PCBNEW 4.0.7-e2-6376~58~ubuntu16.04.1) date Tue Jul 10 13:30:19 2018*
%MOMM*%
%LPD*%
G01*
G04 APERTURE LIST*
%ADD10C,0.050000*%
%ADD11R,1.020000X1.780000*%
%ADD12C,6.000000*%
%ADD13C,1.700000*%
%ADD14C,0.625000*%
%ADD15C,0.600000*%
%ADD16C,0.500000*%
%ADD17C,0.250000*%
%ADD18C,0.700000*%
%ADD19C,0.200000*%
%ADD20C,0.205000*%
G04 APERTURE END LIST*
D10*
D11*
X125872656Y-102920000D03*
X125872844Y-97080000D03*
X128412656Y-102920000D03*
X128412844Y-97080000D03*
X133492656Y-102920000D03*
X133492844Y-97080000D03*
X130952656Y-102920000D03*
X130952844Y-97080000D03*
X136032656Y-102920000D03*
X138572656Y-102920000D03*
X141112656Y-102920000D03*
X143652656Y-102920000D03*
X143652844Y-97080000D03*
X141112844Y-97080000D03*
X138572844Y-97080000D03*
X136032844Y-97080000D03*
X156352656Y-102920000D03*
X158892656Y-102920000D03*
X161432656Y-102920000D03*
X163972656Y-102920000D03*
X163972844Y-97080000D03*
X161432844Y-97080000D03*
X158892844Y-97080000D03*
X156352844Y-97080000D03*
X153812656Y-102920000D03*
X151272656Y-102920000D03*
X148732656Y-102920000D03*
X146192656Y-102920000D03*
X146192844Y-97080000D03*
X148732844Y-97080000D03*
X151272844Y-97080000D03*
X153812844Y-97080000D03*
X171592656Y-102920000D03*
X169052656Y-102920000D03*
X166512656Y-102920000D03*
X174132656Y-102920000D03*
X171592844Y-97080000D03*
X166512844Y-97080000D03*
X174132844Y-97080000D03*
X169052844Y-97080000D03*
D12*
X139800000Y-91000000D03*
X147000000Y-91000000D03*
D13*
X120520000Y-114500000D03*
X123060000Y-114500000D03*
X125600000Y-114500000D03*
X128140000Y-114500000D03*
X180000000Y-109500000D03*
X177460000Y-109500000D03*
X174920000Y-109500000D03*
X172380000Y-109500000D03*
X169840000Y-109500000D03*
X164780000Y-115000000D03*
X167320000Y-115000000D03*
X169860000Y-115000000D03*
X172400000Y-115000000D03*
X174940000Y-115000000D03*
X177480000Y-115000000D03*
X180020000Y-115000000D03*
X154460000Y-115000000D03*
X157000000Y-115000000D03*
X159540000Y-115000000D03*
X145460000Y-115000000D03*
X148000000Y-115000000D03*
X150540000Y-115000000D03*
D12*
X176200000Y-91000000D03*
X169000000Y-91000000D03*
D14*
X128000000Y-107350000D03*
X146209208Y-104521475D03*
X167685310Y-106083131D03*
X171300000Y-104700000D03*
X170200000Y-97100000D03*
X163536170Y-104802143D03*
X128800000Y-105400000D03*
X172800000Y-97100000D03*
X135912830Y-110816601D03*
X143200000Y-112700000D03*
X130100000Y-110200000D03*
D15*
X128800000Y-88500000D03*
X127800000Y-88500000D03*
X127800000Y-87500000D03*
X128800000Y-87500000D03*
D14*
X120203200Y-94996173D03*
X120200000Y-93000000D03*
X120200000Y-94000000D03*
X120700000Y-95600000D03*
X121600000Y-95600000D03*
X122500000Y-95600000D03*
X133600000Y-90300000D03*
X133600000Y-89400000D03*
X133600000Y-88600000D03*
D15*
X128300000Y-88000000D03*
D14*
X131200000Y-104600000D03*
X127154248Y-97102471D03*
D15*
X128600000Y-85300000D03*
X125400000Y-92400000D03*
X128400000Y-90500000D03*
D14*
X153000000Y-107000000D03*
X149000000Y-108000000D03*
X153000000Y-109000000D03*
X149000000Y-110000000D03*
X153000000Y-111000000D03*
X159000000Y-110000000D03*
D16*
X146209208Y-104521475D02*
X146187733Y-104500000D01*
X146187733Y-104500000D02*
X146187733Y-105869417D01*
X146187733Y-105869417D02*
X144707150Y-107350000D01*
X144707150Y-107350000D02*
X128000000Y-107350000D01*
X125870000Y-102900000D02*
X125870000Y-105220000D01*
X125870000Y-105220000D02*
X128000000Y-107350000D01*
X146190000Y-102900000D02*
X146190000Y-104502267D01*
X146190000Y-104502267D02*
X146209208Y-104521475D01*
D17*
X167685310Y-106083131D02*
X169050000Y-104718441D01*
X169050000Y-104718441D02*
X169050000Y-102900000D01*
X171590000Y-102900000D02*
X171590000Y-104410000D01*
X171590000Y-104410000D02*
X171300000Y-104700000D01*
X170200000Y-97100000D02*
X169050000Y-97100000D01*
X163536170Y-104802143D02*
X164607857Y-104802143D01*
X164607857Y-104802143D02*
X166510000Y-102900000D01*
X176400000Y-99370000D02*
X176400000Y-108440000D01*
X176400000Y-108440000D02*
X177460000Y-109500000D01*
X174130000Y-97100000D02*
X176400000Y-99370000D01*
X128410000Y-102900000D02*
X128410000Y-105010000D01*
X128410000Y-105010000D02*
X128800000Y-105400000D01*
X172800000Y-97100000D02*
X171590000Y-97100000D01*
X120203200Y-94996173D02*
X120200000Y-94992973D01*
X120200000Y-94992973D02*
X120200000Y-94000000D01*
X122500000Y-95600000D02*
X121600000Y-95600000D01*
X133600000Y-88600000D02*
X133600000Y-89400000D01*
X130950000Y-102900000D02*
X130950000Y-104350000D01*
X130950000Y-104350000D02*
X131200000Y-104600000D01*
D18*
X127154248Y-97102471D02*
X127147702Y-97095925D01*
X127147702Y-97095925D02*
X125874075Y-97095925D01*
X125874075Y-97095925D02*
X125870000Y-97100000D01*
X127154248Y-97102471D02*
X127156719Y-97100000D01*
X127156719Y-97100000D02*
X128410000Y-97100000D01*
D19*
X126700000Y-85800000D02*
X126700000Y-89900000D01*
X126700000Y-89900000D02*
X127300000Y-90500000D01*
X127200000Y-85300000D02*
X126700000Y-85800000D01*
X128600000Y-85300000D02*
X127200000Y-85300000D01*
X125400000Y-92400000D02*
X127300000Y-90500000D01*
X127300000Y-90500000D02*
X128400000Y-90500000D01*
D17*
X145460000Y-110140000D02*
X148600000Y-107000000D01*
X148600000Y-107000000D02*
X153000000Y-107000000D01*
X145460000Y-115000000D02*
X145460000Y-110140000D01*
X148300000Y-110500000D02*
X152800000Y-115000000D01*
X152800000Y-115000000D02*
X154460000Y-115000000D01*
X148300000Y-109600000D02*
X148300000Y-110500000D01*
X149000000Y-108900000D02*
X148300000Y-109600000D01*
X149000000Y-108000000D02*
X149000000Y-108900000D01*
X153000000Y-109000000D02*
X153000000Y-109500000D01*
X153000000Y-109500000D02*
X151843799Y-110656201D01*
X151843799Y-110656201D02*
X151843799Y-111528973D01*
X151843799Y-111528973D02*
X152514826Y-112200000D01*
X152514826Y-112200000D02*
X161980000Y-112200000D01*
X161980000Y-112200000D02*
X164780000Y-115000000D01*
X149000000Y-110000000D02*
X149000000Y-110008892D01*
X149000000Y-110008892D02*
X151991108Y-113000000D01*
X165931400Y-116388600D02*
X167320000Y-115000000D01*
X151991108Y-113000000D02*
X160800000Y-113000000D01*
X164188600Y-116388600D02*
X165931400Y-116388600D01*
X160800000Y-113000000D02*
X164188600Y-116388600D01*
X153000000Y-111000000D02*
X165860000Y-111000000D01*
X165860000Y-111000000D02*
X169860000Y-115000000D01*
X169200000Y-113500000D02*
X175980000Y-113500000D01*
X175980000Y-113500000D02*
X177480000Y-115000000D01*
X165700000Y-110000000D02*
X169200000Y-113500000D01*
X159000000Y-110000000D02*
X165700000Y-110000000D01*
D20*
G36*
X181612500Y-116612500D02*
X166396930Y-116612500D01*
X166879476Y-116129954D01*
X167077761Y-116212289D01*
X167560123Y-116212710D01*
X168005929Y-116028507D01*
X168347308Y-115687723D01*
X168532289Y-115242239D01*
X168532710Y-114759877D01*
X168348507Y-114314071D01*
X168007723Y-113972692D01*
X167562239Y-113787711D01*
X167079877Y-113787290D01*
X166634071Y-113971493D01*
X166292692Y-114312277D01*
X166107711Y-114757761D01*
X166107290Y-115240123D01*
X166190080Y-115440490D01*
X165729470Y-115901100D01*
X165593558Y-115901100D01*
X165807308Y-115687723D01*
X165992289Y-115242239D01*
X165992710Y-114759877D01*
X165808507Y-114314071D01*
X165467723Y-113972692D01*
X165022239Y-113787711D01*
X164539877Y-113787290D01*
X164339510Y-113870080D01*
X162324715Y-111855285D01*
X162166558Y-111749609D01*
X161980000Y-111712499D01*
X161979995Y-111712500D01*
X152716755Y-111712500D01*
X152331299Y-111327043D01*
X152331299Y-111149205D01*
X152427429Y-111381857D01*
X152617144Y-111571903D01*
X152865145Y-111674883D01*
X153133677Y-111675117D01*
X153381857Y-111572571D01*
X153467076Y-111487500D01*
X165658070Y-111487500D01*
X168730046Y-114559475D01*
X168647711Y-114757761D01*
X168647290Y-115240123D01*
X168831493Y-115685929D01*
X169172277Y-116027308D01*
X169617761Y-116212289D01*
X170100123Y-116212710D01*
X170545929Y-116028507D01*
X170887308Y-115687723D01*
X171072289Y-115242239D01*
X171072710Y-114759877D01*
X170888507Y-114314071D01*
X170562505Y-113987500D01*
X171698036Y-113987500D01*
X171372692Y-114312277D01*
X171187711Y-114757761D01*
X171187290Y-115240123D01*
X171371493Y-115685929D01*
X171712277Y-116027308D01*
X172157761Y-116212289D01*
X172640123Y-116212710D01*
X173085929Y-116028507D01*
X173427308Y-115687723D01*
X173612289Y-115242239D01*
X173612710Y-114759877D01*
X173428507Y-114314071D01*
X173102505Y-113987500D01*
X174238036Y-113987500D01*
X173912692Y-114312277D01*
X173727711Y-114757761D01*
X173727290Y-115240123D01*
X173911493Y-115685929D01*
X174252277Y-116027308D01*
X174697761Y-116212289D01*
X175180123Y-116212710D01*
X175625929Y-116028507D01*
X175967308Y-115687723D01*
X176152289Y-115242239D01*
X176152710Y-114759877D01*
X175968507Y-114314071D01*
X175642505Y-113987500D01*
X175778070Y-113987500D01*
X176350046Y-114559476D01*
X176267711Y-114757761D01*
X176267290Y-115240123D01*
X176451493Y-115685929D01*
X176792277Y-116027308D01*
X177237761Y-116212289D01*
X177720123Y-116212710D01*
X178165929Y-116028507D01*
X178382966Y-115811848D01*
X179211688Y-115811848D01*
X179295372Y-116001617D01*
X179733833Y-116202678D01*
X180215862Y-116220640D01*
X180668071Y-116052771D01*
X180744628Y-116001617D01*
X180828312Y-115811848D01*
X180020000Y-115003536D01*
X179211688Y-115811848D01*
X178382966Y-115811848D01*
X178507308Y-115687723D01*
X178692289Y-115242239D01*
X178692329Y-115195862D01*
X178799360Y-115195862D01*
X178967229Y-115648071D01*
X179018383Y-115724628D01*
X179208152Y-115808312D01*
X180016464Y-115000000D01*
X180023536Y-115000000D01*
X180831848Y-115808312D01*
X181021617Y-115724628D01*
X181222678Y-115286167D01*
X181240640Y-114804138D01*
X181072771Y-114351929D01*
X181021617Y-114275372D01*
X180831848Y-114191688D01*
X180023536Y-115000000D01*
X180016464Y-115000000D01*
X179208152Y-114191688D01*
X179018383Y-114275372D01*
X178817322Y-114713833D01*
X178799360Y-115195862D01*
X178692329Y-115195862D01*
X178692710Y-114759877D01*
X178508507Y-114314071D01*
X178382808Y-114188152D01*
X179211688Y-114188152D01*
X180020000Y-114996464D01*
X180828312Y-114188152D01*
X180744628Y-113998383D01*
X180306167Y-113797322D01*
X179824138Y-113779360D01*
X179371929Y-113947229D01*
X179295372Y-113998383D01*
X179211688Y-114188152D01*
X178382808Y-114188152D01*
X178167723Y-113972692D01*
X177722239Y-113787711D01*
X177239877Y-113787290D01*
X177039510Y-113870080D01*
X176324715Y-113155285D01*
X176166558Y-113049609D01*
X175980000Y-113012499D01*
X175979995Y-113012500D01*
X169401929Y-113012500D01*
X166129553Y-109740123D01*
X168627290Y-109740123D01*
X168811493Y-110185929D01*
X169152277Y-110527308D01*
X169597761Y-110712289D01*
X170080123Y-110712710D01*
X170525929Y-110528507D01*
X170867308Y-110187723D01*
X171052289Y-109742239D01*
X171052290Y-109740123D01*
X171167290Y-109740123D01*
X171351493Y-110185929D01*
X171692277Y-110527308D01*
X172137761Y-110712289D01*
X172620123Y-110712710D01*
X173065929Y-110528507D01*
X173407308Y-110187723D01*
X173592289Y-109742239D01*
X173592290Y-109740123D01*
X173707290Y-109740123D01*
X173891493Y-110185929D01*
X174232277Y-110527308D01*
X174677761Y-110712289D01*
X175160123Y-110712710D01*
X175605929Y-110528507D01*
X175947308Y-110187723D01*
X176132289Y-109742239D01*
X176132710Y-109259877D01*
X175948507Y-108814071D01*
X175607723Y-108472692D01*
X175162239Y-108287711D01*
X174679877Y-108287290D01*
X174234071Y-108471493D01*
X173892692Y-108812277D01*
X173707711Y-109257761D01*
X173707290Y-109740123D01*
X173592290Y-109740123D01*
X173592710Y-109259877D01*
X173408507Y-108814071D01*
X173067723Y-108472692D01*
X172622239Y-108287711D01*
X172139877Y-108287290D01*
X171694071Y-108471493D01*
X171352692Y-108812277D01*
X171167711Y-109257761D01*
X171167290Y-109740123D01*
X171052290Y-109740123D01*
X171052710Y-109259877D01*
X170868507Y-108814071D01*
X170527723Y-108472692D01*
X170082239Y-108287711D01*
X169599877Y-108287290D01*
X169154071Y-108471493D01*
X168812692Y-108812277D01*
X168627711Y-109257761D01*
X168627290Y-109740123D01*
X166129553Y-109740123D01*
X166044715Y-109655285D01*
X165886558Y-109549609D01*
X165700000Y-109512499D01*
X165699995Y-109512500D01*
X159467112Y-109512500D01*
X159382856Y-109428097D01*
X159134855Y-109325117D01*
X158866323Y-109324883D01*
X158618143Y-109427429D01*
X158428097Y-109617144D01*
X158325117Y-109865145D01*
X158324883Y-110133677D01*
X158427429Y-110381857D01*
X158557844Y-110512500D01*
X153467112Y-110512500D01*
X153382856Y-110428097D01*
X153134855Y-110325117D01*
X152866323Y-110324883D01*
X152863295Y-110326134D01*
X153344712Y-109844717D01*
X153344715Y-109844715D01*
X153450391Y-109686558D01*
X153464000Y-109618143D01*
X153487501Y-109500000D01*
X153487500Y-109499995D01*
X153487500Y-109467112D01*
X153571903Y-109382856D01*
X153674883Y-109134855D01*
X153675117Y-108866323D01*
X153572571Y-108618143D01*
X153382856Y-108428097D01*
X153134855Y-108325117D01*
X152866323Y-108324883D01*
X152618143Y-108427429D01*
X152428097Y-108617144D01*
X152325117Y-108865145D01*
X152324883Y-109133677D01*
X152427429Y-109381857D01*
X152428071Y-109382500D01*
X151499084Y-110311486D01*
X151393408Y-110469643D01*
X151356298Y-110656201D01*
X151356299Y-110656206D01*
X151356299Y-111528968D01*
X151356298Y-111528973D01*
X151392747Y-111712210D01*
X149675005Y-109994467D01*
X149675117Y-109866323D01*
X149572571Y-109618143D01*
X149382856Y-109428097D01*
X149226329Y-109363101D01*
X149344712Y-109244717D01*
X149344715Y-109244715D01*
X149450391Y-109086558D01*
X149487500Y-108900000D01*
X149487500Y-108467112D01*
X149571903Y-108382856D01*
X149674883Y-108134855D01*
X149675117Y-107866323D01*
X149572571Y-107618143D01*
X149442156Y-107487500D01*
X152532888Y-107487500D01*
X152617144Y-107571903D01*
X152865145Y-107674883D01*
X153133677Y-107675117D01*
X153381857Y-107572571D01*
X153571903Y-107382856D01*
X153674883Y-107134855D01*
X153675117Y-106866323D01*
X153572571Y-106618143D01*
X153382856Y-106428097D01*
X153134855Y-106325117D01*
X152866323Y-106324883D01*
X152618143Y-106427429D01*
X152532924Y-106512500D01*
X148600005Y-106512500D01*
X148600000Y-106512499D01*
X148413442Y-106549609D01*
X148255285Y-106655285D01*
X148255283Y-106655288D01*
X145115285Y-109795285D01*
X145009609Y-109953442D01*
X144972499Y-110140000D01*
X144972500Y-110140005D01*
X144972500Y-113889504D01*
X144774071Y-113971493D01*
X144432692Y-114312277D01*
X144247711Y-114757761D01*
X144247290Y-115240123D01*
X144431493Y-115685929D01*
X144772277Y-116027308D01*
X145217761Y-116212289D01*
X145700123Y-116212710D01*
X146145929Y-116028507D01*
X146487308Y-115687723D01*
X146672289Y-115242239D01*
X146672290Y-115240123D01*
X146787290Y-115240123D01*
X146971493Y-115685929D01*
X147312277Y-116027308D01*
X147757761Y-116212289D01*
X148240123Y-116212710D01*
X148685929Y-116028507D01*
X148902966Y-115811848D01*
X149731688Y-115811848D01*
X149815372Y-116001617D01*
X150253833Y-116202678D01*
X150735862Y-116220640D01*
X151188071Y-116052771D01*
X151264628Y-116001617D01*
X151348312Y-115811848D01*
X150540000Y-115003536D01*
X149731688Y-115811848D01*
X148902966Y-115811848D01*
X149027308Y-115687723D01*
X149212289Y-115242239D01*
X149212329Y-115195862D01*
X149319360Y-115195862D01*
X149487229Y-115648071D01*
X149538383Y-115724628D01*
X149728152Y-115808312D01*
X150536464Y-115000000D01*
X149728152Y-114191688D01*
X149538383Y-114275372D01*
X149337322Y-114713833D01*
X149319360Y-115195862D01*
X149212329Y-115195862D01*
X149212710Y-114759877D01*
X149028507Y-114314071D01*
X148687723Y-113972692D01*
X148242239Y-113787711D01*
X147759877Y-113787290D01*
X147314071Y-113971493D01*
X146972692Y-114312277D01*
X146787711Y-114757761D01*
X146787290Y-115240123D01*
X146672290Y-115240123D01*
X146672710Y-114759877D01*
X146488507Y-114314071D01*
X146147723Y-113972692D01*
X145947500Y-113889552D01*
X145947500Y-110341930D01*
X148325031Y-107964399D01*
X148324883Y-108133677D01*
X148427429Y-108381857D01*
X148512500Y-108467076D01*
X148512500Y-108698071D01*
X147955285Y-109255285D01*
X147849609Y-109413442D01*
X147812499Y-109600000D01*
X147812500Y-109600005D01*
X147812500Y-110499995D01*
X147812499Y-110500000D01*
X147849609Y-110686558D01*
X147955285Y-110844715D01*
X150977107Y-113866537D01*
X150826167Y-113797322D01*
X150344138Y-113779360D01*
X149891929Y-113947229D01*
X149815372Y-113998383D01*
X149731688Y-114188152D01*
X150540000Y-114996464D01*
X150554142Y-114982322D01*
X150557678Y-114985858D01*
X150543536Y-115000000D01*
X151351848Y-115808312D01*
X151541617Y-115724628D01*
X151742678Y-115286167D01*
X151760640Y-114804138D01*
X151669681Y-114559111D01*
X152455285Y-115344715D01*
X152613442Y-115450391D01*
X152800000Y-115487501D01*
X152800005Y-115487500D01*
X153349504Y-115487500D01*
X153431493Y-115685929D01*
X153772277Y-116027308D01*
X154217761Y-116212289D01*
X154700123Y-116212710D01*
X155145929Y-116028507D01*
X155487308Y-115687723D01*
X155672289Y-115242239D01*
X155672290Y-115240123D01*
X155787290Y-115240123D01*
X155971493Y-115685929D01*
X156312277Y-116027308D01*
X156757761Y-116212289D01*
X157240123Y-116212710D01*
X157685929Y-116028507D01*
X157902966Y-115811848D01*
X158731688Y-115811848D01*
X158815372Y-116001617D01*
X159253833Y-116202678D01*
X159735862Y-116220640D01*
X160188071Y-116052771D01*
X160264628Y-116001617D01*
X160348312Y-115811848D01*
X159540000Y-115003536D01*
X158731688Y-115811848D01*
X157902966Y-115811848D01*
X158027308Y-115687723D01*
X158212289Y-115242239D01*
X158212329Y-115195862D01*
X158319360Y-115195862D01*
X158487229Y-115648071D01*
X158538383Y-115724628D01*
X158728152Y-115808312D01*
X159536464Y-115000000D01*
X159543536Y-115000000D01*
X160351848Y-115808312D01*
X160541617Y-115724628D01*
X160742678Y-115286167D01*
X160760640Y-114804138D01*
X160592771Y-114351929D01*
X160541617Y-114275372D01*
X160351848Y-114191688D01*
X159543536Y-115000000D01*
X159536464Y-115000000D01*
X158728152Y-114191688D01*
X158538383Y-114275372D01*
X158337322Y-114713833D01*
X158319360Y-115195862D01*
X158212329Y-115195862D01*
X158212710Y-114759877D01*
X158028507Y-114314071D01*
X157902808Y-114188152D01*
X158731688Y-114188152D01*
X159540000Y-114996464D01*
X160348312Y-114188152D01*
X160264628Y-113998383D01*
X159826167Y-113797322D01*
X159344138Y-113779360D01*
X158891929Y-113947229D01*
X158815372Y-113998383D01*
X158731688Y-114188152D01*
X157902808Y-114188152D01*
X157687723Y-113972692D01*
X157242239Y-113787711D01*
X156759877Y-113787290D01*
X156314071Y-113971493D01*
X155972692Y-114312277D01*
X155787711Y-114757761D01*
X155787290Y-115240123D01*
X155672290Y-115240123D01*
X155672710Y-114759877D01*
X155488507Y-114314071D01*
X155147723Y-113972692D01*
X154702239Y-113787711D01*
X154219877Y-113787290D01*
X153774071Y-113971493D01*
X153432692Y-114312277D01*
X153349552Y-114512500D01*
X153001930Y-114512500D01*
X151973411Y-113483981D01*
X151991108Y-113487501D01*
X151991113Y-113487500D01*
X160598070Y-113487500D01*
X163723070Y-116612500D01*
X118387500Y-116612500D01*
X118387500Y-115311848D01*
X119711688Y-115311848D01*
X119795372Y-115501617D01*
X120233833Y-115702678D01*
X120715862Y-115720640D01*
X121168071Y-115552771D01*
X121244628Y-115501617D01*
X121328312Y-115311848D01*
X120520000Y-114503536D01*
X119711688Y-115311848D01*
X118387500Y-115311848D01*
X118387500Y-114695862D01*
X119299360Y-114695862D01*
X119467229Y-115148071D01*
X119518383Y-115224628D01*
X119708152Y-115308312D01*
X120516464Y-114500000D01*
X120523536Y-114500000D01*
X121331848Y-115308312D01*
X121521617Y-115224628D01*
X121722678Y-114786167D01*
X121724393Y-114740123D01*
X121847290Y-114740123D01*
X122031493Y-115185929D01*
X122372277Y-115527308D01*
X122817761Y-115712289D01*
X123300123Y-115712710D01*
X123745929Y-115528507D01*
X124087308Y-115187723D01*
X124272289Y-114742239D01*
X124272290Y-114740123D01*
X124387290Y-114740123D01*
X124571493Y-115185929D01*
X124912277Y-115527308D01*
X125357761Y-115712289D01*
X125840123Y-115712710D01*
X126285929Y-115528507D01*
X126627308Y-115187723D01*
X126812289Y-114742239D01*
X126812290Y-114740123D01*
X126927290Y-114740123D01*
X127111493Y-115185929D01*
X127452277Y-115527308D01*
X127897761Y-115712289D01*
X128380123Y-115712710D01*
X128825929Y-115528507D01*
X129167308Y-115187723D01*
X129352289Y-114742239D01*
X129352710Y-114259877D01*
X129168507Y-113814071D01*
X128827723Y-113472692D01*
X128382239Y-113287711D01*
X127899877Y-113287290D01*
X127454071Y-113471493D01*
X127112692Y-113812277D01*
X126927711Y-114257761D01*
X126927290Y-114740123D01*
X126812290Y-114740123D01*
X126812710Y-114259877D01*
X126628507Y-113814071D01*
X126287723Y-113472692D01*
X125842239Y-113287711D01*
X125359877Y-113287290D01*
X124914071Y-113471493D01*
X124572692Y-113812277D01*
X124387711Y-114257761D01*
X124387290Y-114740123D01*
X124272290Y-114740123D01*
X124272710Y-114259877D01*
X124088507Y-113814071D01*
X123747723Y-113472692D01*
X123302239Y-113287711D01*
X122819877Y-113287290D01*
X122374071Y-113471493D01*
X122032692Y-113812277D01*
X121847711Y-114257761D01*
X121847290Y-114740123D01*
X121724393Y-114740123D01*
X121740640Y-114304138D01*
X121572771Y-113851929D01*
X121521617Y-113775372D01*
X121331848Y-113691688D01*
X120523536Y-114500000D01*
X120516464Y-114500000D01*
X119708152Y-113691688D01*
X119518383Y-113775372D01*
X119317322Y-114213833D01*
X119299360Y-114695862D01*
X118387500Y-114695862D01*
X118387500Y-113688152D01*
X119711688Y-113688152D01*
X120520000Y-114496464D01*
X121328312Y-113688152D01*
X121244628Y-113498383D01*
X120806167Y-113297322D01*
X120324138Y-113279360D01*
X119871929Y-113447229D01*
X119795372Y-113498383D01*
X119711688Y-113688152D01*
X118387500Y-113688152D01*
X118387500Y-102030000D01*
X124993055Y-102030000D01*
X124993055Y-103810000D01*
X125018332Y-103944334D01*
X125097723Y-104067712D01*
X125218861Y-104150482D01*
X125257500Y-104158307D01*
X125257500Y-105220000D01*
X125304124Y-105454394D01*
X125392433Y-105586558D01*
X125436897Y-105653103D01*
X127365309Y-107581515D01*
X127427429Y-107731857D01*
X127617144Y-107921903D01*
X127865145Y-108024883D01*
X128133677Y-108025117D01*
X128285222Y-107962500D01*
X144707150Y-107962500D01*
X144941544Y-107915876D01*
X145140253Y-107783103D01*
X146620836Y-106302520D01*
X146678107Y-106216808D01*
X167010193Y-106216808D01*
X167112739Y-106464988D01*
X167302454Y-106655034D01*
X167550455Y-106758014D01*
X167818987Y-106758248D01*
X168067167Y-106655702D01*
X168257213Y-106465987D01*
X168360193Y-106217986D01*
X168360298Y-106097573D01*
X169394712Y-105063158D01*
X169394715Y-105063156D01*
X169500391Y-104904999D01*
X169509264Y-104860391D01*
X169537501Y-104718441D01*
X169537500Y-104718436D01*
X169537500Y-104179601D01*
X169562656Y-104179601D01*
X169696990Y-104154324D01*
X169820368Y-104074933D01*
X169903138Y-103953795D01*
X169932257Y-103810000D01*
X169932257Y-102030000D01*
X169906980Y-101895666D01*
X169827589Y-101772288D01*
X169795317Y-101750237D01*
X169922348Y-101444312D01*
X169922651Y-101097210D01*
X169790101Y-100776414D01*
X169544877Y-100530762D01*
X169224312Y-100397652D01*
X168877210Y-100397349D01*
X168556414Y-100529899D01*
X168310762Y-100775123D01*
X168177652Y-101095688D01*
X168177349Y-101442790D01*
X168305141Y-101752071D01*
X168284944Y-101765067D01*
X168202174Y-101886205D01*
X168173055Y-102030000D01*
X168173055Y-103810000D01*
X168198332Y-103944334D01*
X168277723Y-104067712D01*
X168398861Y-104150482D01*
X168542656Y-104179601D01*
X168562500Y-104179601D01*
X168562500Y-104516512D01*
X167670893Y-105408118D01*
X167551633Y-105408014D01*
X167303453Y-105510560D01*
X167113407Y-105700275D01*
X167010427Y-105948276D01*
X167010193Y-106216808D01*
X146678107Y-106216808D01*
X146753610Y-106103810D01*
X146800233Y-105869417D01*
X146800233Y-104935820D01*
X162861053Y-104935820D01*
X162963599Y-105184000D01*
X163153314Y-105374046D01*
X163401315Y-105477026D01*
X163669847Y-105477260D01*
X163918027Y-105374714D01*
X164003246Y-105289643D01*
X164607852Y-105289643D01*
X164607857Y-105289644D01*
X164794415Y-105252534D01*
X164952572Y-105146858D01*
X165933777Y-104165653D01*
X166002656Y-104179601D01*
X167022656Y-104179601D01*
X167156990Y-104154324D01*
X167280368Y-104074933D01*
X167363138Y-103953795D01*
X167392257Y-103810000D01*
X167392257Y-102030000D01*
X167366980Y-101895666D01*
X167287589Y-101772288D01*
X167255317Y-101750237D01*
X167382348Y-101444312D01*
X167382651Y-101097210D01*
X167250101Y-100776414D01*
X167004877Y-100530762D01*
X166684312Y-100397652D01*
X166337210Y-100397349D01*
X166016414Y-100529899D01*
X165770762Y-100775123D01*
X165637652Y-101095688D01*
X165637349Y-101442790D01*
X165765141Y-101752071D01*
X165744944Y-101765067D01*
X165662174Y-101886205D01*
X165633055Y-102030000D01*
X165633055Y-103087516D01*
X164837450Y-103883120D01*
X164852257Y-103810000D01*
X164852257Y-102030000D01*
X164826980Y-101895666D01*
X164747589Y-101772288D01*
X164715317Y-101750237D01*
X164842348Y-101444312D01*
X164842651Y-101097210D01*
X164710101Y-100776414D01*
X164464877Y-100530762D01*
X164144312Y-100397652D01*
X163797210Y-100397349D01*
X163476414Y-100529899D01*
X163230762Y-100775123D01*
X163097652Y-101095688D01*
X163097349Y-101442790D01*
X163225141Y-101752071D01*
X163204944Y-101765067D01*
X163122174Y-101886205D01*
X163093055Y-102030000D01*
X163093055Y-103810000D01*
X163118332Y-103944334D01*
X163197723Y-104067712D01*
X163318861Y-104150482D01*
X163336890Y-104154133D01*
X163154313Y-104229572D01*
X162964267Y-104419287D01*
X162861287Y-104667288D01*
X162861053Y-104935820D01*
X146800233Y-104935820D01*
X146800233Y-104858281D01*
X146884091Y-104656330D01*
X146884325Y-104387798D01*
X146802500Y-104189767D01*
X146802500Y-104160814D01*
X146836990Y-104154324D01*
X146960368Y-104074933D01*
X147043138Y-103953795D01*
X147072257Y-103810000D01*
X147072257Y-102030000D01*
X147853055Y-102030000D01*
X147853055Y-103810000D01*
X147878332Y-103944334D01*
X147957723Y-104067712D01*
X148078861Y-104150482D01*
X148222656Y-104179601D01*
X149242656Y-104179601D01*
X149376990Y-104154324D01*
X149500368Y-104074933D01*
X149583138Y-103953795D01*
X149612257Y-103810000D01*
X149612257Y-102030000D01*
X150393055Y-102030000D01*
X150393055Y-103810000D01*
X150418332Y-103944334D01*
X150497723Y-104067712D01*
X150618861Y-104150482D01*
X150762656Y-104179601D01*
X151782656Y-104179601D01*
X151916990Y-104154324D01*
X152040368Y-104074933D01*
X152123138Y-103953795D01*
X152152257Y-103810000D01*
X152152257Y-102030000D01*
X152933055Y-102030000D01*
X152933055Y-103810000D01*
X152958332Y-103944334D01*
X153037723Y-104067712D01*
X153158861Y-104150482D01*
X153302656Y-104179601D01*
X154322656Y-104179601D01*
X154456990Y-104154324D01*
X154580368Y-104074933D01*
X154663138Y-103953795D01*
X154692257Y-103810000D01*
X154692257Y-103013125D01*
X155480156Y-103013125D01*
X155480156Y-103882106D01*
X155535343Y-104015340D01*
X155637316Y-104117313D01*
X155770551Y-104172500D01*
X156259531Y-104172500D01*
X156350156Y-104081875D01*
X156350156Y-102922500D01*
X156355156Y-102922500D01*
X156355156Y-104081875D01*
X156445781Y-104172500D01*
X156934761Y-104172500D01*
X157067996Y-104117313D01*
X157169969Y-104015340D01*
X157225156Y-103882106D01*
X157225156Y-103013125D01*
X157134531Y-102922500D01*
X156355156Y-102922500D01*
X156350156Y-102922500D01*
X155570781Y-102922500D01*
X155480156Y-103013125D01*
X154692257Y-103013125D01*
X154692257Y-102030000D01*
X154666980Y-101895666D01*
X154587589Y-101772288D01*
X154555317Y-101750237D01*
X154682348Y-101444312D01*
X154682349Y-101442790D01*
X155477349Y-101442790D01*
X155605957Y-101754046D01*
X155535343Y-101824660D01*
X155480156Y-101957894D01*
X155480156Y-102826875D01*
X155570781Y-102917500D01*
X156350156Y-102917500D01*
X156350156Y-102897500D01*
X156355156Y-102897500D01*
X156355156Y-102917500D01*
X157134531Y-102917500D01*
X157225156Y-102826875D01*
X157225156Y-102030000D01*
X158013055Y-102030000D01*
X158013055Y-103810000D01*
X158038332Y-103944334D01*
X158117723Y-104067712D01*
X158238861Y-104150482D01*
X158382656Y-104179601D01*
X159402656Y-104179601D01*
X159536990Y-104154324D01*
X159660368Y-104074933D01*
X159743138Y-103953795D01*
X159772257Y-103810000D01*
X159772257Y-102030000D01*
X160553055Y-102030000D01*
X160553055Y-103810000D01*
X160578332Y-103944334D01*
X160657723Y-104067712D01*
X160778861Y-104150482D01*
X160922656Y-104179601D01*
X161942656Y-104179601D01*
X162076990Y-104154324D01*
X162200368Y-104074933D01*
X162283138Y-103953795D01*
X162312257Y-103810000D01*
X162312257Y-102030000D01*
X162286980Y-101895666D01*
X162207589Y-101772288D01*
X162175317Y-101750237D01*
X162302348Y-101444312D01*
X162302651Y-101097210D01*
X162170101Y-100776414D01*
X161924877Y-100530762D01*
X161604312Y-100397652D01*
X161257210Y-100397349D01*
X160936414Y-100529899D01*
X160690762Y-100775123D01*
X160557652Y-101095688D01*
X160557349Y-101442790D01*
X160685141Y-101752071D01*
X160664944Y-101765067D01*
X160582174Y-101886205D01*
X160553055Y-102030000D01*
X159772257Y-102030000D01*
X159746980Y-101895666D01*
X159667589Y-101772288D01*
X159635317Y-101750237D01*
X159762348Y-101444312D01*
X159762651Y-101097210D01*
X159630101Y-100776414D01*
X159384877Y-100530762D01*
X159064312Y-100397652D01*
X158717210Y-100397349D01*
X158396414Y-100529899D01*
X158150762Y-100775123D01*
X158017652Y-101095688D01*
X158017349Y-101442790D01*
X158145141Y-101752071D01*
X158124944Y-101765067D01*
X158042174Y-101886205D01*
X158013055Y-102030000D01*
X157225156Y-102030000D01*
X157225156Y-101957894D01*
X157169969Y-101824660D01*
X157095384Y-101750075D01*
X157222348Y-101444312D01*
X157222651Y-101097210D01*
X157090101Y-100776414D01*
X156844877Y-100530762D01*
X156524312Y-100397652D01*
X156177210Y-100397349D01*
X155856414Y-100529899D01*
X155610762Y-100775123D01*
X155477652Y-101095688D01*
X155477349Y-101442790D01*
X154682349Y-101442790D01*
X154682651Y-101097210D01*
X154550101Y-100776414D01*
X154304877Y-100530762D01*
X153984312Y-100397652D01*
X153637210Y-100397349D01*
X153316414Y-100529899D01*
X153070762Y-100775123D01*
X152937652Y-101095688D01*
X152937349Y-101442790D01*
X153065141Y-101752071D01*
X153044944Y-101765067D01*
X152962174Y-101886205D01*
X152933055Y-102030000D01*
X152152257Y-102030000D01*
X152126980Y-101895666D01*
X152047589Y-101772288D01*
X152015317Y-101750237D01*
X152142348Y-101444312D01*
X152142651Y-101097210D01*
X152010101Y-100776414D01*
X151764877Y-100530762D01*
X151444312Y-100397652D01*
X151097210Y-100397349D01*
X150776414Y-100529899D01*
X150530762Y-100775123D01*
X150397652Y-101095688D01*
X150397349Y-101442790D01*
X150525141Y-101752071D01*
X150504944Y-101765067D01*
X150422174Y-101886205D01*
X150393055Y-102030000D01*
X149612257Y-102030000D01*
X149586980Y-101895666D01*
X149507589Y-101772288D01*
X149475317Y-101750237D01*
X149602348Y-101444312D01*
X149602651Y-101097210D01*
X149470101Y-100776414D01*
X149224877Y-100530762D01*
X148904312Y-100397652D01*
X148557210Y-100397349D01*
X148236414Y-100529899D01*
X147990762Y-100775123D01*
X147857652Y-101095688D01*
X147857349Y-101442790D01*
X147985141Y-101752071D01*
X147964944Y-101765067D01*
X147882174Y-101886205D01*
X147853055Y-102030000D01*
X147072257Y-102030000D01*
X147046980Y-101895666D01*
X146967589Y-101772288D01*
X146935317Y-101750237D01*
X147062348Y-101444312D01*
X147062651Y-101097210D01*
X146930101Y-100776414D01*
X146684877Y-100530762D01*
X146364312Y-100397652D01*
X146017210Y-100397349D01*
X145696414Y-100529899D01*
X145450762Y-100775123D01*
X145317652Y-101095688D01*
X145317349Y-101442790D01*
X145445141Y-101752071D01*
X145424944Y-101765067D01*
X145342174Y-101886205D01*
X145313055Y-102030000D01*
X145313055Y-103810000D01*
X145338332Y-103944334D01*
X145417723Y-104067712D01*
X145538861Y-104150482D01*
X145577500Y-104158307D01*
X145577500Y-104282644D01*
X145534325Y-104386620D01*
X145534091Y-104655152D01*
X145575233Y-104754723D01*
X145575233Y-105615711D01*
X144453444Y-106737500D01*
X128285089Y-106737500D01*
X128231421Y-106715215D01*
X126482500Y-104966294D01*
X126482500Y-104160814D01*
X126516990Y-104154324D01*
X126640368Y-104074933D01*
X126723138Y-103953795D01*
X126752257Y-103810000D01*
X126752257Y-102030000D01*
X126726980Y-101895666D01*
X126647589Y-101772288D01*
X126615317Y-101750237D01*
X126742348Y-101444312D01*
X126742560Y-101201984D01*
X126887771Y-101262281D01*
X127390025Y-101262719D01*
X127537559Y-101201759D01*
X127537349Y-101442790D01*
X127665141Y-101752071D01*
X127644944Y-101765067D01*
X127562174Y-101886205D01*
X127533055Y-102030000D01*
X127533055Y-103810000D01*
X127558332Y-103944334D01*
X127637723Y-104067712D01*
X127758861Y-104150482D01*
X127902656Y-104179601D01*
X127922500Y-104179601D01*
X127922500Y-105009995D01*
X127922499Y-105010000D01*
X127959609Y-105196558D01*
X128065285Y-105354715D01*
X128124987Y-105414417D01*
X128124883Y-105533677D01*
X128227429Y-105781857D01*
X128417144Y-105971903D01*
X128665145Y-106074883D01*
X128933677Y-106075117D01*
X129181857Y-105972571D01*
X129371903Y-105782856D01*
X129474883Y-105534855D01*
X129475117Y-105266323D01*
X129372571Y-105018143D01*
X129182856Y-104828097D01*
X128934855Y-104725117D01*
X128897500Y-104725084D01*
X128897500Y-104179601D01*
X128922656Y-104179601D01*
X129056990Y-104154324D01*
X129180368Y-104074933D01*
X129263138Y-103953795D01*
X129292257Y-103810000D01*
X129292257Y-102030000D01*
X130073055Y-102030000D01*
X130073055Y-103810000D01*
X130098332Y-103944334D01*
X130177723Y-104067712D01*
X130298861Y-104150482D01*
X130442656Y-104179601D01*
X130462500Y-104179601D01*
X130462500Y-104349995D01*
X130462499Y-104350000D01*
X130499609Y-104536558D01*
X130525022Y-104574591D01*
X130524883Y-104733677D01*
X130627429Y-104981857D01*
X130817144Y-105171903D01*
X131065145Y-105274883D01*
X131333677Y-105275117D01*
X131581857Y-105172571D01*
X131771903Y-104982856D01*
X131874883Y-104734855D01*
X131875117Y-104466323D01*
X131772571Y-104218143D01*
X131665107Y-104110492D01*
X131720368Y-104074933D01*
X131803138Y-103953795D01*
X131832257Y-103810000D01*
X131832257Y-102030000D01*
X132613055Y-102030000D01*
X132613055Y-103810000D01*
X132638332Y-103944334D01*
X132717723Y-104067712D01*
X132838861Y-104150482D01*
X132982656Y-104179601D01*
X134002656Y-104179601D01*
X134136990Y-104154324D01*
X134260368Y-104074933D01*
X134343138Y-103953795D01*
X134372257Y-103810000D01*
X134372257Y-103013125D01*
X135160156Y-103013125D01*
X135160156Y-103882106D01*
X135215343Y-104015340D01*
X135317316Y-104117313D01*
X135450551Y-104172500D01*
X135939531Y-104172500D01*
X136030156Y-104081875D01*
X136030156Y-102922500D01*
X136035156Y-102922500D01*
X136035156Y-104081875D01*
X136125781Y-104172500D01*
X136614761Y-104172500D01*
X136747996Y-104117313D01*
X136849969Y-104015340D01*
X136905156Y-103882106D01*
X136905156Y-103013125D01*
X136814531Y-102922500D01*
X136035156Y-102922500D01*
X136030156Y-102922500D01*
X135250781Y-102922500D01*
X135160156Y-103013125D01*
X134372257Y-103013125D01*
X134372257Y-102030000D01*
X134346980Y-101895666D01*
X134267589Y-101772288D01*
X134235317Y-101750237D01*
X134362348Y-101444312D01*
X134362349Y-101442790D01*
X135157349Y-101442790D01*
X135285957Y-101754046D01*
X135215343Y-101824660D01*
X135160156Y-101957894D01*
X135160156Y-102826875D01*
X135250781Y-102917500D01*
X136030156Y-102917500D01*
X136030156Y-102897500D01*
X136035156Y-102897500D01*
X136035156Y-102917500D01*
X136814531Y-102917500D01*
X136905156Y-102826875D01*
X136905156Y-102030000D01*
X137693055Y-102030000D01*
X137693055Y-103810000D01*
X137718332Y-103944334D01*
X137797723Y-104067712D01*
X137918861Y-104150482D01*
X138062656Y-104179601D01*
X139082656Y-104179601D01*
X139216990Y-104154324D01*
X139340368Y-104074933D01*
X139423138Y-103953795D01*
X139452257Y-103810000D01*
X139452257Y-102030000D01*
X140233055Y-102030000D01*
X140233055Y-103810000D01*
X140258332Y-103944334D01*
X140337723Y-104067712D01*
X140458861Y-104150482D01*
X140602656Y-104179601D01*
X141622656Y-104179601D01*
X141756990Y-104154324D01*
X141880368Y-104074933D01*
X141963138Y-103953795D01*
X141992257Y-103810000D01*
X141992257Y-102030000D01*
X142773055Y-102030000D01*
X142773055Y-103810000D01*
X142798332Y-103944334D01*
X142877723Y-104067712D01*
X142998861Y-104150482D01*
X143142656Y-104179601D01*
X144162656Y-104179601D01*
X144296990Y-104154324D01*
X144420368Y-104074933D01*
X144503138Y-103953795D01*
X144532257Y-103810000D01*
X144532257Y-102030000D01*
X144506980Y-101895666D01*
X144427589Y-101772288D01*
X144395317Y-101750237D01*
X144522348Y-101444312D01*
X144522651Y-101097210D01*
X144390101Y-100776414D01*
X144144877Y-100530762D01*
X143824312Y-100397652D01*
X143477210Y-100397349D01*
X143156414Y-100529899D01*
X142910762Y-100775123D01*
X142777652Y-101095688D01*
X142777349Y-101442790D01*
X142905141Y-101752071D01*
X142884944Y-101765067D01*
X142802174Y-101886205D01*
X142773055Y-102030000D01*
X141992257Y-102030000D01*
X141966980Y-101895666D01*
X141887589Y-101772288D01*
X141855317Y-101750237D01*
X141982348Y-101444312D01*
X141982651Y-101097210D01*
X141850101Y-100776414D01*
X141604877Y-100530762D01*
X141284312Y-100397652D01*
X140937210Y-100397349D01*
X140616414Y-100529899D01*
X140370762Y-100775123D01*
X140237652Y-101095688D01*
X140237349Y-101442790D01*
X140365141Y-101752071D01*
X140344944Y-101765067D01*
X140262174Y-101886205D01*
X140233055Y-102030000D01*
X139452257Y-102030000D01*
X139426980Y-101895666D01*
X139347589Y-101772288D01*
X139315317Y-101750237D01*
X139442348Y-101444312D01*
X139442651Y-101097210D01*
X139310101Y-100776414D01*
X139064877Y-100530762D01*
X138744312Y-100397652D01*
X138397210Y-100397349D01*
X138076414Y-100529899D01*
X137830762Y-100775123D01*
X137697652Y-101095688D01*
X137697349Y-101442790D01*
X137825141Y-101752071D01*
X137804944Y-101765067D01*
X137722174Y-101886205D01*
X137693055Y-102030000D01*
X136905156Y-102030000D01*
X136905156Y-101957894D01*
X136849969Y-101824660D01*
X136775384Y-101750075D01*
X136902348Y-101444312D01*
X136902651Y-101097210D01*
X136770101Y-100776414D01*
X136524877Y-100530762D01*
X136204312Y-100397652D01*
X135857210Y-100397349D01*
X135536414Y-100529899D01*
X135290762Y-100775123D01*
X135157652Y-101095688D01*
X135157349Y-101442790D01*
X134362349Y-101442790D01*
X134362651Y-101097210D01*
X134230101Y-100776414D01*
X133984877Y-100530762D01*
X133664312Y-100397652D01*
X133317210Y-100397349D01*
X132996414Y-100529899D01*
X132750762Y-100775123D01*
X132617652Y-101095688D01*
X132617349Y-101442790D01*
X132745141Y-101752071D01*
X132724944Y-101765067D01*
X132642174Y-101886205D01*
X132613055Y-102030000D01*
X131832257Y-102030000D01*
X131806980Y-101895666D01*
X131727589Y-101772288D01*
X131695317Y-101750237D01*
X131822348Y-101444312D01*
X131822651Y-101097210D01*
X131690101Y-100776414D01*
X131444877Y-100530762D01*
X131124312Y-100397652D01*
X130777210Y-100397349D01*
X130456414Y-100529899D01*
X130210762Y-100775123D01*
X130077652Y-101095688D01*
X130077349Y-101442790D01*
X130205141Y-101752071D01*
X130184944Y-101765067D01*
X130102174Y-101886205D01*
X130073055Y-102030000D01*
X129292257Y-102030000D01*
X129266980Y-101895666D01*
X129187589Y-101772288D01*
X129155317Y-101750237D01*
X129282348Y-101444312D01*
X129282651Y-101097210D01*
X129150101Y-100776414D01*
X128904877Y-100530762D01*
X128584312Y-100397652D01*
X128341984Y-100397440D01*
X128402281Y-100252229D01*
X128402719Y-99749975D01*
X128341759Y-99602441D01*
X128582790Y-99602651D01*
X128903586Y-99470101D01*
X129149238Y-99224877D01*
X129282348Y-98904312D01*
X129282349Y-98902790D01*
X130077349Y-98902790D01*
X130209899Y-99223586D01*
X130455123Y-99469238D01*
X130775688Y-99602348D01*
X131122790Y-99602651D01*
X131443586Y-99470101D01*
X131689238Y-99224877D01*
X131822348Y-98904312D01*
X131822651Y-98557210D01*
X131695651Y-98249846D01*
X131770157Y-98175340D01*
X131825344Y-98042106D01*
X131825344Y-97173125D01*
X131734719Y-97082500D01*
X130955344Y-97082500D01*
X130955344Y-97102500D01*
X130950344Y-97102500D01*
X130950344Y-97082500D01*
X130170969Y-97082500D01*
X130080344Y-97173125D01*
X130080344Y-98042106D01*
X130135531Y-98175340D01*
X130206229Y-98246038D01*
X130077652Y-98555688D01*
X130077349Y-98902790D01*
X129282349Y-98902790D01*
X129282651Y-98557210D01*
X129156014Y-98250725D01*
X129180556Y-98234933D01*
X129263326Y-98113795D01*
X129292445Y-97970000D01*
X129292445Y-96190000D01*
X129278878Y-96117894D01*
X130080344Y-96117894D01*
X130080344Y-96986875D01*
X130170969Y-97077500D01*
X130950344Y-97077500D01*
X130950344Y-95918125D01*
X130955344Y-95918125D01*
X130955344Y-97077500D01*
X131734719Y-97077500D01*
X131825344Y-96986875D01*
X131825344Y-96190000D01*
X132613243Y-96190000D01*
X132613243Y-97970000D01*
X132638520Y-98104334D01*
X132717911Y-98227712D01*
X132745899Y-98246835D01*
X132617652Y-98555688D01*
X132617349Y-98902790D01*
X132749899Y-99223586D01*
X132995123Y-99469238D01*
X133315688Y-99602348D01*
X133662790Y-99602651D01*
X133983586Y-99470101D01*
X134229238Y-99224877D01*
X134362348Y-98904312D01*
X134362651Y-98557210D01*
X134236014Y-98250725D01*
X134260556Y-98234933D01*
X134343326Y-98113795D01*
X134372445Y-97970000D01*
X134372445Y-96190000D01*
X135153243Y-96190000D01*
X135153243Y-97970000D01*
X135178520Y-98104334D01*
X135257911Y-98227712D01*
X135285899Y-98246835D01*
X135157652Y-98555688D01*
X135157349Y-98902790D01*
X135289899Y-99223586D01*
X135535123Y-99469238D01*
X135855688Y-99602348D01*
X136202790Y-99602651D01*
X136523586Y-99470101D01*
X136769238Y-99224877D01*
X136902348Y-98904312D01*
X136902651Y-98557210D01*
X136776014Y-98250725D01*
X136800556Y-98234933D01*
X136883326Y-98113795D01*
X136912445Y-97970000D01*
X136912445Y-96190000D01*
X137693243Y-96190000D01*
X137693243Y-97970000D01*
X137718520Y-98104334D01*
X137797911Y-98227712D01*
X137825899Y-98246835D01*
X137697652Y-98555688D01*
X137697349Y-98902790D01*
X137829899Y-99223586D01*
X138075123Y-99469238D01*
X138395688Y-99602348D01*
X138742790Y-99602651D01*
X139063586Y-99470101D01*
X139309238Y-99224877D01*
X139442348Y-98904312D01*
X139442349Y-98902790D01*
X140237349Y-98902790D01*
X140369899Y-99223586D01*
X140615123Y-99469238D01*
X140935688Y-99602348D01*
X141282790Y-99602651D01*
X141603586Y-99470101D01*
X141849238Y-99224877D01*
X141982348Y-98904312D01*
X141982651Y-98557210D01*
X141855651Y-98249846D01*
X141930157Y-98175340D01*
X141985344Y-98042106D01*
X141985344Y-97173125D01*
X141894719Y-97082500D01*
X141115344Y-97082500D01*
X141115344Y-97102500D01*
X141110344Y-97102500D01*
X141110344Y-97082500D01*
X140330969Y-97082500D01*
X140240344Y-97173125D01*
X140240344Y-98042106D01*
X140295531Y-98175340D01*
X140366229Y-98246038D01*
X140237652Y-98555688D01*
X140237349Y-98902790D01*
X139442349Y-98902790D01*
X139442651Y-98557210D01*
X139316014Y-98250725D01*
X139340556Y-98234933D01*
X139423326Y-98113795D01*
X139452445Y-97970000D01*
X139452445Y-96190000D01*
X139438878Y-96117894D01*
X140240344Y-96117894D01*
X140240344Y-96986875D01*
X140330969Y-97077500D01*
X141110344Y-97077500D01*
X141110344Y-95918125D01*
X141115344Y-95918125D01*
X141115344Y-97077500D01*
X141894719Y-97077500D01*
X141985344Y-96986875D01*
X141985344Y-96190000D01*
X142773243Y-96190000D01*
X142773243Y-97970000D01*
X142798520Y-98104334D01*
X142877911Y-98227712D01*
X142905899Y-98246835D01*
X142777652Y-98555688D01*
X142777349Y-98902790D01*
X142909899Y-99223586D01*
X143155123Y-99469238D01*
X143475688Y-99602348D01*
X143822790Y-99602651D01*
X144143586Y-99470101D01*
X144389238Y-99224877D01*
X144522348Y-98904312D01*
X144522651Y-98557210D01*
X144396014Y-98250725D01*
X144420556Y-98234933D01*
X144503326Y-98113795D01*
X144532445Y-97970000D01*
X144532445Y-96190000D01*
X145313243Y-96190000D01*
X145313243Y-97970000D01*
X145338520Y-98104334D01*
X145417911Y-98227712D01*
X145445899Y-98246835D01*
X145317652Y-98555688D01*
X145317349Y-98902790D01*
X145449899Y-99223586D01*
X145695123Y-99469238D01*
X146015688Y-99602348D01*
X146362790Y-99602651D01*
X146683586Y-99470101D01*
X146929238Y-99224877D01*
X147062348Y-98904312D01*
X147062349Y-98902790D01*
X147857349Y-98902790D01*
X147989899Y-99223586D01*
X148235123Y-99469238D01*
X148555688Y-99602348D01*
X148902790Y-99602651D01*
X149223586Y-99470101D01*
X149469238Y-99224877D01*
X149602348Y-98904312D01*
X149602651Y-98557210D01*
X149475651Y-98249846D01*
X149550157Y-98175340D01*
X149605344Y-98042106D01*
X149605344Y-97173125D01*
X149514719Y-97082500D01*
X148735344Y-97082500D01*
X148735344Y-97102500D01*
X148730344Y-97102500D01*
X148730344Y-97082500D01*
X147950969Y-97082500D01*
X147860344Y-97173125D01*
X147860344Y-98042106D01*
X147915531Y-98175340D01*
X147986229Y-98246038D01*
X147857652Y-98555688D01*
X147857349Y-98902790D01*
X147062349Y-98902790D01*
X147062651Y-98557210D01*
X146936014Y-98250725D01*
X146960556Y-98234933D01*
X147043326Y-98113795D01*
X147072445Y-97970000D01*
X147072445Y-96190000D01*
X147058878Y-96117894D01*
X147860344Y-96117894D01*
X147860344Y-96986875D01*
X147950969Y-97077500D01*
X148730344Y-97077500D01*
X148730344Y-95918125D01*
X148735344Y-95918125D01*
X148735344Y-97077500D01*
X149514719Y-97077500D01*
X149605344Y-96986875D01*
X149605344Y-96190000D01*
X150393243Y-96190000D01*
X150393243Y-97970000D01*
X150418520Y-98104334D01*
X150497911Y-98227712D01*
X150525899Y-98246835D01*
X150397652Y-98555688D01*
X150397349Y-98902790D01*
X150529899Y-99223586D01*
X150775123Y-99469238D01*
X151095688Y-99602348D01*
X151442790Y-99602651D01*
X151763586Y-99470101D01*
X152009238Y-99224877D01*
X152142348Y-98904312D01*
X152142651Y-98557210D01*
X152016014Y-98250725D01*
X152040556Y-98234933D01*
X152123326Y-98113795D01*
X152152445Y-97970000D01*
X152152445Y-96190000D01*
X152933243Y-96190000D01*
X152933243Y-97970000D01*
X152958520Y-98104334D01*
X153037911Y-98227712D01*
X153065899Y-98246835D01*
X152937652Y-98555688D01*
X152937349Y-98902790D01*
X153069899Y-99223586D01*
X153315123Y-99469238D01*
X153635688Y-99602348D01*
X153982790Y-99602651D01*
X154303586Y-99470101D01*
X154549238Y-99224877D01*
X154682348Y-98904312D01*
X154682651Y-98557210D01*
X154556014Y-98250725D01*
X154580556Y-98234933D01*
X154663326Y-98113795D01*
X154692445Y-97970000D01*
X154692445Y-96190000D01*
X155473243Y-96190000D01*
X155473243Y-97970000D01*
X155498520Y-98104334D01*
X155577911Y-98227712D01*
X155605899Y-98246835D01*
X155477652Y-98555688D01*
X155477349Y-98902790D01*
X155609899Y-99223586D01*
X155855123Y-99469238D01*
X156175688Y-99602348D01*
X156522790Y-99602651D01*
X156843586Y-99470101D01*
X157089238Y-99224877D01*
X157222348Y-98904312D01*
X157222651Y-98557210D01*
X157096014Y-98250725D01*
X157120556Y-98234933D01*
X157203326Y-98113795D01*
X157232445Y-97970000D01*
X157232445Y-96190000D01*
X158013243Y-96190000D01*
X158013243Y-97970000D01*
X158038520Y-98104334D01*
X158117911Y-98227712D01*
X158145899Y-98246835D01*
X158017652Y-98555688D01*
X158017349Y-98902790D01*
X158149899Y-99223586D01*
X158395123Y-99469238D01*
X158715688Y-99602348D01*
X159062790Y-99602651D01*
X159383586Y-99470101D01*
X159629238Y-99224877D01*
X159762348Y-98904312D01*
X159762349Y-98902790D01*
X160557349Y-98902790D01*
X160689899Y-99223586D01*
X160935123Y-99469238D01*
X161255688Y-99602348D01*
X161602790Y-99602651D01*
X161923586Y-99470101D01*
X162169238Y-99224877D01*
X162302348Y-98904312D01*
X162302651Y-98557210D01*
X162175651Y-98249846D01*
X162250157Y-98175340D01*
X162305344Y-98042106D01*
X162305344Y-97173125D01*
X162214719Y-97082500D01*
X161435344Y-97082500D01*
X161435344Y-97102500D01*
X161430344Y-97102500D01*
X161430344Y-97082500D01*
X160650969Y-97082500D01*
X160560344Y-97173125D01*
X160560344Y-98042106D01*
X160615531Y-98175340D01*
X160686229Y-98246038D01*
X160557652Y-98555688D01*
X160557349Y-98902790D01*
X159762349Y-98902790D01*
X159762651Y-98557210D01*
X159636014Y-98250725D01*
X159660556Y-98234933D01*
X159743326Y-98113795D01*
X159772445Y-97970000D01*
X159772445Y-96190000D01*
X159758878Y-96117894D01*
X160560344Y-96117894D01*
X160560344Y-96986875D01*
X160650969Y-97077500D01*
X161430344Y-97077500D01*
X161430344Y-95918125D01*
X161435344Y-95918125D01*
X161435344Y-97077500D01*
X162214719Y-97077500D01*
X162305344Y-96986875D01*
X162305344Y-96190000D01*
X163093243Y-96190000D01*
X163093243Y-97970000D01*
X163118520Y-98104334D01*
X163197911Y-98227712D01*
X163225899Y-98246835D01*
X163097652Y-98555688D01*
X163097349Y-98902790D01*
X163229899Y-99223586D01*
X163475123Y-99469238D01*
X163795688Y-99602348D01*
X164142790Y-99602651D01*
X164463586Y-99470101D01*
X164709238Y-99224877D01*
X164842348Y-98904312D01*
X164842349Y-98902790D01*
X165637349Y-98902790D01*
X165769899Y-99223586D01*
X166015123Y-99469238D01*
X166335688Y-99602348D01*
X166682790Y-99602651D01*
X167003586Y-99470101D01*
X167249238Y-99224877D01*
X167382348Y-98904312D01*
X167382651Y-98557210D01*
X167255651Y-98249846D01*
X167330157Y-98175340D01*
X167385344Y-98042106D01*
X167385344Y-97173125D01*
X167294719Y-97082500D01*
X166515344Y-97082500D01*
X166515344Y-97102500D01*
X166510344Y-97102500D01*
X166510344Y-97082500D01*
X165730969Y-97082500D01*
X165640344Y-97173125D01*
X165640344Y-98042106D01*
X165695531Y-98175340D01*
X165766229Y-98246038D01*
X165637652Y-98555688D01*
X165637349Y-98902790D01*
X164842349Y-98902790D01*
X164842651Y-98557210D01*
X164716014Y-98250725D01*
X164740556Y-98234933D01*
X164823326Y-98113795D01*
X164852445Y-97970000D01*
X164852445Y-96190000D01*
X164838878Y-96117894D01*
X165640344Y-96117894D01*
X165640344Y-96986875D01*
X165730969Y-97077500D01*
X166510344Y-97077500D01*
X166510344Y-95918125D01*
X166515344Y-95918125D01*
X166515344Y-97077500D01*
X167294719Y-97077500D01*
X167385344Y-96986875D01*
X167385344Y-96190000D01*
X168173243Y-96190000D01*
X168173243Y-97970000D01*
X168198520Y-98104334D01*
X168277911Y-98227712D01*
X168305899Y-98246835D01*
X168177652Y-98555688D01*
X168177349Y-98902790D01*
X168309899Y-99223586D01*
X168555123Y-99469238D01*
X168875688Y-99602348D01*
X169222790Y-99602651D01*
X169543586Y-99470101D01*
X169789238Y-99224877D01*
X169922348Y-98904312D01*
X169922651Y-98557210D01*
X169796014Y-98250725D01*
X169820556Y-98234933D01*
X169903326Y-98113795D01*
X169932445Y-97970000D01*
X169932445Y-97719781D01*
X170065145Y-97774883D01*
X170333677Y-97775117D01*
X170581857Y-97672571D01*
X170713243Y-97541414D01*
X170713243Y-97970000D01*
X170738520Y-98104334D01*
X170817911Y-98227712D01*
X170845899Y-98246835D01*
X170717652Y-98555688D01*
X170717349Y-98902790D01*
X170849899Y-99223586D01*
X171095123Y-99469238D01*
X171415688Y-99602348D01*
X171658016Y-99602560D01*
X171597719Y-99747771D01*
X171597281Y-100250025D01*
X171658241Y-100397559D01*
X171417210Y-100397349D01*
X171096414Y-100529899D01*
X170850762Y-100775123D01*
X170717652Y-101095688D01*
X170717349Y-101442790D01*
X170845141Y-101752071D01*
X170824944Y-101765067D01*
X170742174Y-101886205D01*
X170713055Y-102030000D01*
X170713055Y-103810000D01*
X170738332Y-103944334D01*
X170817723Y-104067712D01*
X170912852Y-104132711D01*
X170728097Y-104317144D01*
X170625117Y-104565145D01*
X170624883Y-104833677D01*
X170727429Y-105081857D01*
X170917144Y-105271903D01*
X171165145Y-105374883D01*
X171433677Y-105375117D01*
X171681857Y-105272571D01*
X171871903Y-105082856D01*
X171974883Y-104834855D01*
X171975005Y-104694416D01*
X172040391Y-104596558D01*
X172077501Y-104410000D01*
X172077500Y-104409995D01*
X172077500Y-104179601D01*
X172102656Y-104179601D01*
X172236990Y-104154324D01*
X172360368Y-104074933D01*
X172443138Y-103953795D01*
X172472257Y-103810000D01*
X172472257Y-103013125D01*
X173260156Y-103013125D01*
X173260156Y-103882106D01*
X173315343Y-104015340D01*
X173417316Y-104117313D01*
X173550551Y-104172500D01*
X174039531Y-104172500D01*
X174130156Y-104081875D01*
X174130156Y-102922500D01*
X174135156Y-102922500D01*
X174135156Y-104081875D01*
X174225781Y-104172500D01*
X174714761Y-104172500D01*
X174847996Y-104117313D01*
X174949969Y-104015340D01*
X175005156Y-103882106D01*
X175005156Y-103013125D01*
X174914531Y-102922500D01*
X174135156Y-102922500D01*
X174130156Y-102922500D01*
X173350781Y-102922500D01*
X173260156Y-103013125D01*
X172472257Y-103013125D01*
X172472257Y-102030000D01*
X172446980Y-101895666D01*
X172367589Y-101772288D01*
X172335317Y-101750237D01*
X172462348Y-101444312D01*
X172462560Y-101201984D01*
X172607771Y-101262281D01*
X173110025Y-101262719D01*
X173257559Y-101201759D01*
X173257349Y-101442790D01*
X173385957Y-101754046D01*
X173315343Y-101824660D01*
X173260156Y-101957894D01*
X173260156Y-102826875D01*
X173350781Y-102917500D01*
X174130156Y-102917500D01*
X174130156Y-102897500D01*
X174135156Y-102897500D01*
X174135156Y-102917500D01*
X174914531Y-102917500D01*
X175005156Y-102826875D01*
X175005156Y-101957894D01*
X174949969Y-101824660D01*
X174875384Y-101750075D01*
X175002348Y-101444312D01*
X175002651Y-101097210D01*
X174870101Y-100776414D01*
X174624877Y-100530762D01*
X174304312Y-100397652D01*
X174061984Y-100397440D01*
X174122281Y-100252229D01*
X174122719Y-99749975D01*
X174061759Y-99602441D01*
X174302790Y-99602651D01*
X174623586Y-99470101D01*
X174869238Y-99224877D01*
X175002348Y-98904312D01*
X175002560Y-98661989D01*
X175912500Y-99571929D01*
X175912500Y-108439995D01*
X175912499Y-108440000D01*
X175949609Y-108626558D01*
X176055285Y-108784715D01*
X176330046Y-109059476D01*
X176247711Y-109257761D01*
X176247290Y-109740123D01*
X176431493Y-110185929D01*
X176772277Y-110527308D01*
X177217761Y-110712289D01*
X177700123Y-110712710D01*
X178145929Y-110528507D01*
X178362966Y-110311848D01*
X179191688Y-110311848D01*
X179275372Y-110501617D01*
X179713833Y-110702678D01*
X180195862Y-110720640D01*
X180648071Y-110552771D01*
X180724628Y-110501617D01*
X180808312Y-110311848D01*
X180000000Y-109503536D01*
X179191688Y-110311848D01*
X178362966Y-110311848D01*
X178487308Y-110187723D01*
X178672289Y-109742239D01*
X178672329Y-109695862D01*
X178779360Y-109695862D01*
X178947229Y-110148071D01*
X178998383Y-110224628D01*
X179188152Y-110308312D01*
X179996464Y-109500000D01*
X180003536Y-109500000D01*
X180811848Y-110308312D01*
X181001617Y-110224628D01*
X181202678Y-109786167D01*
X181220640Y-109304138D01*
X181052771Y-108851929D01*
X181001617Y-108775372D01*
X180811848Y-108691688D01*
X180003536Y-109500000D01*
X179996464Y-109500000D01*
X179188152Y-108691688D01*
X178998383Y-108775372D01*
X178797322Y-109213833D01*
X178779360Y-109695862D01*
X178672329Y-109695862D01*
X178672710Y-109259877D01*
X178488507Y-108814071D01*
X178362808Y-108688152D01*
X179191688Y-108688152D01*
X180000000Y-109496464D01*
X180808312Y-108688152D01*
X180724628Y-108498383D01*
X180286167Y-108297322D01*
X179804138Y-108279360D01*
X179351929Y-108447229D01*
X179275372Y-108498383D01*
X179191688Y-108688152D01*
X178362808Y-108688152D01*
X178147723Y-108472692D01*
X177702239Y-108287711D01*
X177219877Y-108287290D01*
X177019510Y-108370080D01*
X176887500Y-108238070D01*
X176887500Y-100344094D01*
X177262199Y-100344094D01*
X177526160Y-100982929D01*
X178014500Y-101472122D01*
X178652874Y-101737198D01*
X179344094Y-101737801D01*
X179982929Y-101473840D01*
X180472122Y-100985500D01*
X180737198Y-100347126D01*
X180737801Y-99655906D01*
X180473840Y-99017071D01*
X179985500Y-98527878D01*
X179347126Y-98262802D01*
X178655906Y-98262199D01*
X178017071Y-98526160D01*
X177527878Y-99014500D01*
X177262802Y-99652874D01*
X177262199Y-100344094D01*
X176887500Y-100344094D01*
X176887500Y-99370005D01*
X176887501Y-99370000D01*
X176850391Y-99183442D01*
X176744715Y-99025285D01*
X176744712Y-99025283D01*
X175012445Y-97293015D01*
X175012445Y-96190000D01*
X174987168Y-96055666D01*
X174907777Y-95932288D01*
X174786639Y-95849518D01*
X174642844Y-95820399D01*
X173622844Y-95820399D01*
X173488510Y-95845676D01*
X173365132Y-95925067D01*
X173282362Y-96046205D01*
X173253243Y-96190000D01*
X173253243Y-96598607D01*
X173182856Y-96528097D01*
X172934855Y-96425117D01*
X172666323Y-96424883D01*
X172472445Y-96504992D01*
X172472445Y-96190000D01*
X172447168Y-96055666D01*
X172367777Y-95932288D01*
X172246639Y-95849518D01*
X172102844Y-95820399D01*
X171082844Y-95820399D01*
X170948510Y-95845676D01*
X170825132Y-95925067D01*
X170742362Y-96046205D01*
X170713243Y-96190000D01*
X170713243Y-96658711D01*
X170582856Y-96528097D01*
X170334855Y-96425117D01*
X170066323Y-96424883D01*
X169932445Y-96480200D01*
X169932445Y-96190000D01*
X169907168Y-96055666D01*
X169827777Y-95932288D01*
X169706639Y-95849518D01*
X169562844Y-95820399D01*
X168542844Y-95820399D01*
X168408510Y-95845676D01*
X168285132Y-95925067D01*
X168202362Y-96046205D01*
X168173243Y-96190000D01*
X167385344Y-96190000D01*
X167385344Y-96117894D01*
X167330157Y-95984660D01*
X167228184Y-95882687D01*
X167094949Y-95827500D01*
X166605969Y-95827500D01*
X166515344Y-95918125D01*
X166510344Y-95918125D01*
X166419719Y-95827500D01*
X165930739Y-95827500D01*
X165797504Y-95882687D01*
X165695531Y-95984660D01*
X165640344Y-96117894D01*
X164838878Y-96117894D01*
X164827168Y-96055666D01*
X164747777Y-95932288D01*
X164626639Y-95849518D01*
X164482844Y-95820399D01*
X163462844Y-95820399D01*
X163328510Y-95845676D01*
X163205132Y-95925067D01*
X163122362Y-96046205D01*
X163093243Y-96190000D01*
X162305344Y-96190000D01*
X162305344Y-96117894D01*
X162250157Y-95984660D01*
X162148184Y-95882687D01*
X162014949Y-95827500D01*
X161525969Y-95827500D01*
X161435344Y-95918125D01*
X161430344Y-95918125D01*
X161339719Y-95827500D01*
X160850739Y-95827500D01*
X160717504Y-95882687D01*
X160615531Y-95984660D01*
X160560344Y-96117894D01*
X159758878Y-96117894D01*
X159747168Y-96055666D01*
X159667777Y-95932288D01*
X159546639Y-95849518D01*
X159402844Y-95820399D01*
X158382844Y-95820399D01*
X158248510Y-95845676D01*
X158125132Y-95925067D01*
X158042362Y-96046205D01*
X158013243Y-96190000D01*
X157232445Y-96190000D01*
X157207168Y-96055666D01*
X157127777Y-95932288D01*
X157006639Y-95849518D01*
X156862844Y-95820399D01*
X155842844Y-95820399D01*
X155708510Y-95845676D01*
X155585132Y-95925067D01*
X155502362Y-96046205D01*
X155473243Y-96190000D01*
X154692445Y-96190000D01*
X154667168Y-96055666D01*
X154587777Y-95932288D01*
X154466639Y-95849518D01*
X154322844Y-95820399D01*
X153302844Y-95820399D01*
X153168510Y-95845676D01*
X153045132Y-95925067D01*
X152962362Y-96046205D01*
X152933243Y-96190000D01*
X152152445Y-96190000D01*
X152127168Y-96055666D01*
X152047777Y-95932288D01*
X151926639Y-95849518D01*
X151782844Y-95820399D01*
X150762844Y-95820399D01*
X150628510Y-95845676D01*
X150505132Y-95925067D01*
X150422362Y-96046205D01*
X150393243Y-96190000D01*
X149605344Y-96190000D01*
X149605344Y-96117894D01*
X149550157Y-95984660D01*
X149448184Y-95882687D01*
X149314949Y-95827500D01*
X148825969Y-95827500D01*
X148735344Y-95918125D01*
X148730344Y-95918125D01*
X148639719Y-95827500D01*
X148150739Y-95827500D01*
X148017504Y-95882687D01*
X147915531Y-95984660D01*
X147860344Y-96117894D01*
X147058878Y-96117894D01*
X147047168Y-96055666D01*
X146967777Y-95932288D01*
X146846639Y-95849518D01*
X146702844Y-95820399D01*
X145682844Y-95820399D01*
X145548510Y-95845676D01*
X145425132Y-95925067D01*
X145342362Y-96046205D01*
X145313243Y-96190000D01*
X144532445Y-96190000D01*
X144507168Y-96055666D01*
X144427777Y-95932288D01*
X144306639Y-95849518D01*
X144162844Y-95820399D01*
X143142844Y-95820399D01*
X143008510Y-95845676D01*
X142885132Y-95925067D01*
X142802362Y-96046205D01*
X142773243Y-96190000D01*
X141985344Y-96190000D01*
X141985344Y-96117894D01*
X141930157Y-95984660D01*
X141828184Y-95882687D01*
X141694949Y-95827500D01*
X141205969Y-95827500D01*
X141115344Y-95918125D01*
X141110344Y-95918125D01*
X141019719Y-95827500D01*
X140530739Y-95827500D01*
X140397504Y-95882687D01*
X140295531Y-95984660D01*
X140240344Y-96117894D01*
X139438878Y-96117894D01*
X139427168Y-96055666D01*
X139347777Y-95932288D01*
X139226639Y-95849518D01*
X139082844Y-95820399D01*
X138062844Y-95820399D01*
X137928510Y-95845676D01*
X137805132Y-95925067D01*
X137722362Y-96046205D01*
X137693243Y-96190000D01*
X136912445Y-96190000D01*
X136887168Y-96055666D01*
X136807777Y-95932288D01*
X136686639Y-95849518D01*
X136542844Y-95820399D01*
X135522844Y-95820399D01*
X135388510Y-95845676D01*
X135265132Y-95925067D01*
X135182362Y-96046205D01*
X135153243Y-96190000D01*
X134372445Y-96190000D01*
X134347168Y-96055666D01*
X134267777Y-95932288D01*
X134146639Y-95849518D01*
X134002844Y-95820399D01*
X132982844Y-95820399D01*
X132848510Y-95845676D01*
X132725132Y-95925067D01*
X132642362Y-96046205D01*
X132613243Y-96190000D01*
X131825344Y-96190000D01*
X131825344Y-96117894D01*
X131770157Y-95984660D01*
X131668184Y-95882687D01*
X131534949Y-95827500D01*
X131045969Y-95827500D01*
X130955344Y-95918125D01*
X130950344Y-95918125D01*
X130859719Y-95827500D01*
X130370739Y-95827500D01*
X130237504Y-95882687D01*
X130135531Y-95984660D01*
X130080344Y-96117894D01*
X129278878Y-96117894D01*
X129267168Y-96055666D01*
X129187777Y-95932288D01*
X129066639Y-95849518D01*
X128922844Y-95820399D01*
X127902844Y-95820399D01*
X127768510Y-95845676D01*
X127645132Y-95925067D01*
X127562362Y-96046205D01*
X127533243Y-96190000D01*
X127533243Y-96387500D01*
X127168193Y-96387500D01*
X127147702Y-96383424D01*
X127147697Y-96383425D01*
X126752445Y-96383425D01*
X126752445Y-96190000D01*
X126727168Y-96055666D01*
X126647777Y-95932288D01*
X126526639Y-95849518D01*
X126382844Y-95820399D01*
X125362844Y-95820399D01*
X125228510Y-95845676D01*
X125105132Y-95925067D01*
X125022362Y-96046205D01*
X124993243Y-96190000D01*
X124993243Y-97970000D01*
X125018520Y-98104334D01*
X125097911Y-98227712D01*
X125125899Y-98246835D01*
X124997652Y-98555688D01*
X124997349Y-98902790D01*
X125129899Y-99223586D01*
X125375123Y-99469238D01*
X125695688Y-99602348D01*
X125938016Y-99602560D01*
X125877719Y-99747771D01*
X125877281Y-100250025D01*
X125938241Y-100397559D01*
X125697210Y-100397349D01*
X125376414Y-100529899D01*
X125130762Y-100775123D01*
X124997652Y-101095688D01*
X124997349Y-101442790D01*
X125125141Y-101752071D01*
X125104944Y-101765067D01*
X125022174Y-101886205D01*
X124993055Y-102030000D01*
X118387500Y-102030000D01*
X118387500Y-100344094D01*
X119262199Y-100344094D01*
X119526160Y-100982929D01*
X120014500Y-101472122D01*
X120652874Y-101737198D01*
X121344094Y-101737801D01*
X121982929Y-101473840D01*
X122472122Y-100985500D01*
X122737198Y-100347126D01*
X122737801Y-99655906D01*
X122473840Y-99017071D01*
X121985500Y-98527878D01*
X121347126Y-98262802D01*
X120655906Y-98262199D01*
X120017071Y-98526160D01*
X119527878Y-99014500D01*
X119262802Y-99652874D01*
X119262199Y-100344094D01*
X118387500Y-100344094D01*
X118387500Y-93624424D01*
X137737726Y-93624424D01*
X138120027Y-93988552D01*
X139391577Y-94403960D01*
X140725305Y-94301146D01*
X141479973Y-93988552D01*
X141862274Y-93624424D01*
X139800000Y-91562150D01*
X137737726Y-93624424D01*
X118387500Y-93624424D01*
X118387500Y-92531201D01*
X124737385Y-92531201D01*
X124838032Y-92774786D01*
X125024234Y-92961313D01*
X125267642Y-93062385D01*
X125531201Y-93062615D01*
X125774786Y-92961968D01*
X125961313Y-92775766D01*
X126062385Y-92532358D01*
X126062508Y-92391566D01*
X127491574Y-90962500D01*
X127925593Y-90962500D01*
X128024234Y-91061313D01*
X128267642Y-91162385D01*
X128531201Y-91162615D01*
X128774786Y-91061968D01*
X128961313Y-90875766D01*
X129062385Y-90632358D01*
X129062420Y-90591577D01*
X136396040Y-90591577D01*
X136498854Y-91925305D01*
X136811448Y-92679973D01*
X137175576Y-93062274D01*
X139237850Y-91000000D01*
X140362150Y-91000000D01*
X142424424Y-93062274D01*
X142788552Y-92679973D01*
X143119841Y-91665908D01*
X143636918Y-91665908D01*
X144147749Y-92902215D01*
X145092810Y-93848926D01*
X146328223Y-94361915D01*
X147665908Y-94363082D01*
X148902215Y-93852251D01*
X149848926Y-92907190D01*
X150361915Y-91671777D01*
X150361920Y-91665908D01*
X165636918Y-91665908D01*
X166147749Y-92902215D01*
X167092810Y-93848926D01*
X168328223Y-94361915D01*
X169665908Y-94363082D01*
X170902215Y-93852251D01*
X171130439Y-93624424D01*
X174137726Y-93624424D01*
X174520027Y-93988552D01*
X175791577Y-94403960D01*
X177125305Y-94301146D01*
X177879973Y-93988552D01*
X178262274Y-93624424D01*
X176200000Y-91562150D01*
X174137726Y-93624424D01*
X171130439Y-93624424D01*
X171848926Y-92907190D01*
X172361915Y-91671777D01*
X172362857Y-90591577D01*
X172796040Y-90591577D01*
X172898854Y-91925305D01*
X173211448Y-92679973D01*
X173575576Y-93062274D01*
X175637850Y-91000000D01*
X176762150Y-91000000D01*
X178824424Y-93062274D01*
X179188552Y-92679973D01*
X179603960Y-91408423D01*
X179501146Y-90074695D01*
X179188552Y-89320027D01*
X178824424Y-88937726D01*
X176762150Y-91000000D01*
X175637850Y-91000000D01*
X173575576Y-88937726D01*
X173211448Y-89320027D01*
X172796040Y-90591577D01*
X172362857Y-90591577D01*
X172363082Y-90334092D01*
X171852251Y-89097785D01*
X171131301Y-88375576D01*
X174137726Y-88375576D01*
X176200000Y-90437850D01*
X178262274Y-88375576D01*
X177879973Y-88011448D01*
X176608423Y-87596040D01*
X175274695Y-87698854D01*
X174520027Y-88011448D01*
X174137726Y-88375576D01*
X171131301Y-88375576D01*
X170907190Y-88151074D01*
X169671777Y-87638085D01*
X168334092Y-87636918D01*
X167097785Y-88147749D01*
X166151074Y-89092810D01*
X165638085Y-90328223D01*
X165636918Y-91665908D01*
X150361920Y-91665908D01*
X150363082Y-90334092D01*
X149852251Y-89097785D01*
X148907190Y-88151074D01*
X147671777Y-87638085D01*
X146334092Y-87636918D01*
X145097785Y-88147749D01*
X144151074Y-89092810D01*
X143638085Y-90328223D01*
X143636918Y-91665908D01*
X143119841Y-91665908D01*
X143203960Y-91408423D01*
X143101146Y-90074695D01*
X142788552Y-89320027D01*
X142424424Y-88937726D01*
X140362150Y-91000000D01*
X139237850Y-91000000D01*
X137175576Y-88937726D01*
X136811448Y-89320027D01*
X136396040Y-90591577D01*
X129062420Y-90591577D01*
X129062615Y-90368799D01*
X128961968Y-90125214D01*
X128775766Y-89938687D01*
X128532358Y-89837615D01*
X128268799Y-89837385D01*
X128025214Y-89938032D01*
X127925572Y-90037500D01*
X127491574Y-90037500D01*
X127162500Y-89708426D01*
X127162500Y-88375576D01*
X137737726Y-88375576D01*
X139800000Y-90437850D01*
X141862274Y-88375576D01*
X141479973Y-88011448D01*
X140208423Y-87596040D01*
X138874695Y-87698854D01*
X138120027Y-88011448D01*
X137737726Y-88375576D01*
X127162500Y-88375576D01*
X127162500Y-85991574D01*
X127391574Y-85762500D01*
X128125593Y-85762500D01*
X128224234Y-85861313D01*
X128467642Y-85962385D01*
X128731201Y-85962615D01*
X128974786Y-85861968D01*
X129161313Y-85675766D01*
X129262385Y-85432358D01*
X129262615Y-85168799D01*
X129161968Y-84925214D01*
X128975766Y-84738687D01*
X128732358Y-84637615D01*
X128468799Y-84637385D01*
X128225214Y-84738032D01*
X128125572Y-84837500D01*
X127200000Y-84837500D01*
X127023009Y-84872706D01*
X126872963Y-84972963D01*
X126372963Y-85472963D01*
X126272706Y-85623009D01*
X126237500Y-85800000D01*
X126237500Y-89900000D01*
X126272706Y-90076991D01*
X126372963Y-90227037D01*
X126645926Y-90500000D01*
X125408419Y-91737507D01*
X125268799Y-91737385D01*
X125025214Y-91838032D01*
X124838687Y-92024234D01*
X124737615Y-92267642D01*
X124737385Y-92531201D01*
X118387500Y-92531201D01*
X118387500Y-83387500D01*
X181612500Y-83387500D01*
X181612500Y-116612500D01*
X181612500Y-116612500D01*
G37*
X181612500Y-116612500D02*
X166396930Y-116612500D01*
X166879476Y-116129954D01*
X167077761Y-116212289D01*
X167560123Y-116212710D01*
X168005929Y-116028507D01*
X168347308Y-115687723D01*
X168532289Y-115242239D01*
X168532710Y-114759877D01*
X168348507Y-114314071D01*
X168007723Y-113972692D01*
X167562239Y-113787711D01*
X167079877Y-113787290D01*
X166634071Y-113971493D01*
X166292692Y-114312277D01*
X166107711Y-114757761D01*
X166107290Y-115240123D01*
X166190080Y-115440490D01*
X165729470Y-115901100D01*
X165593558Y-115901100D01*
X165807308Y-115687723D01*
X165992289Y-115242239D01*
X165992710Y-114759877D01*
X165808507Y-114314071D01*
X165467723Y-113972692D01*
X165022239Y-113787711D01*
X164539877Y-113787290D01*
X164339510Y-113870080D01*
X162324715Y-111855285D01*
X162166558Y-111749609D01*
X161980000Y-111712499D01*
X161979995Y-111712500D01*
X152716755Y-111712500D01*
X152331299Y-111327043D01*
X152331299Y-111149205D01*
X152427429Y-111381857D01*
X152617144Y-111571903D01*
X152865145Y-111674883D01*
X153133677Y-111675117D01*
X153381857Y-111572571D01*
X153467076Y-111487500D01*
X165658070Y-111487500D01*
X168730046Y-114559475D01*
X168647711Y-114757761D01*
X168647290Y-115240123D01*
X168831493Y-115685929D01*
X169172277Y-116027308D01*
X169617761Y-116212289D01*
X170100123Y-116212710D01*
X170545929Y-116028507D01*
X170887308Y-115687723D01*
X171072289Y-115242239D01*
X171072710Y-114759877D01*
X170888507Y-114314071D01*
X170562505Y-113987500D01*
X171698036Y-113987500D01*
X171372692Y-114312277D01*
X171187711Y-114757761D01*
X171187290Y-115240123D01*
X171371493Y-115685929D01*
X171712277Y-116027308D01*
X172157761Y-116212289D01*
X172640123Y-116212710D01*
X173085929Y-116028507D01*
X173427308Y-115687723D01*
X173612289Y-115242239D01*
X173612710Y-114759877D01*
X173428507Y-114314071D01*
X173102505Y-113987500D01*
X174238036Y-113987500D01*
X173912692Y-114312277D01*
X173727711Y-114757761D01*
X173727290Y-115240123D01*
X173911493Y-115685929D01*
X174252277Y-116027308D01*
X174697761Y-116212289D01*
X175180123Y-116212710D01*
X175625929Y-116028507D01*
X175967308Y-115687723D01*
X176152289Y-115242239D01*
X176152710Y-114759877D01*
X175968507Y-114314071D01*
X175642505Y-113987500D01*
X175778070Y-113987500D01*
X176350046Y-114559476D01*
X176267711Y-114757761D01*
X176267290Y-115240123D01*
X176451493Y-115685929D01*
X176792277Y-116027308D01*
X177237761Y-116212289D01*
X177720123Y-116212710D01*
X178165929Y-116028507D01*
X178382966Y-115811848D01*
X179211688Y-115811848D01*
X179295372Y-116001617D01*
X179733833Y-116202678D01*
X180215862Y-116220640D01*
X180668071Y-116052771D01*
X180744628Y-116001617D01*
X180828312Y-115811848D01*
X180020000Y-115003536D01*
X179211688Y-115811848D01*
X178382966Y-115811848D01*
X178507308Y-115687723D01*
X178692289Y-115242239D01*
X178692329Y-115195862D01*
X178799360Y-115195862D01*
X178967229Y-115648071D01*
X179018383Y-115724628D01*
X179208152Y-115808312D01*
X180016464Y-115000000D01*
X180023536Y-115000000D01*
X180831848Y-115808312D01*
X181021617Y-115724628D01*
X181222678Y-115286167D01*
X181240640Y-114804138D01*
X181072771Y-114351929D01*
X181021617Y-114275372D01*
X180831848Y-114191688D01*
X180023536Y-115000000D01*
X180016464Y-115000000D01*
X179208152Y-114191688D01*
X179018383Y-114275372D01*
X178817322Y-114713833D01*
X178799360Y-115195862D01*
X178692329Y-115195862D01*
X178692710Y-114759877D01*
X178508507Y-114314071D01*
X178382808Y-114188152D01*
X179211688Y-114188152D01*
X180020000Y-114996464D01*
X180828312Y-114188152D01*
X180744628Y-113998383D01*
X180306167Y-113797322D01*
X179824138Y-113779360D01*
X179371929Y-113947229D01*
X179295372Y-113998383D01*
X179211688Y-114188152D01*
X178382808Y-114188152D01*
X178167723Y-113972692D01*
X177722239Y-113787711D01*
X177239877Y-113787290D01*
X177039510Y-113870080D01*
X176324715Y-113155285D01*
X176166558Y-113049609D01*
X175980000Y-113012499D01*
X175979995Y-113012500D01*
X169401929Y-113012500D01*
X166129553Y-109740123D01*
X168627290Y-109740123D01*
X168811493Y-110185929D01*
X169152277Y-110527308D01*
X169597761Y-110712289D01*
X170080123Y-110712710D01*
X170525929Y-110528507D01*
X170867308Y-110187723D01*
X171052289Y-109742239D01*
X171052290Y-109740123D01*
X171167290Y-109740123D01*
X171351493Y-110185929D01*
X171692277Y-110527308D01*
X172137761Y-110712289D01*
X172620123Y-110712710D01*
X173065929Y-110528507D01*
X173407308Y-110187723D01*
X173592289Y-109742239D01*
X173592290Y-109740123D01*
X173707290Y-109740123D01*
X173891493Y-110185929D01*
X174232277Y-110527308D01*
X174677761Y-110712289D01*
X175160123Y-110712710D01*
X175605929Y-110528507D01*
X175947308Y-110187723D01*
X176132289Y-109742239D01*
X176132710Y-109259877D01*
X175948507Y-108814071D01*
X175607723Y-108472692D01*
X175162239Y-108287711D01*
X174679877Y-108287290D01*
X174234071Y-108471493D01*
X173892692Y-108812277D01*
X173707711Y-109257761D01*
X173707290Y-109740123D01*
X173592290Y-109740123D01*
X173592710Y-109259877D01*
X173408507Y-108814071D01*
X173067723Y-108472692D01*
X172622239Y-108287711D01*
X172139877Y-108287290D01*
X171694071Y-108471493D01*
X171352692Y-108812277D01*
X171167711Y-109257761D01*
X171167290Y-109740123D01*
X171052290Y-109740123D01*
X171052710Y-109259877D01*
X170868507Y-108814071D01*
X170527723Y-108472692D01*
X170082239Y-108287711D01*
X169599877Y-108287290D01*
X169154071Y-108471493D01*
X168812692Y-108812277D01*
X168627711Y-109257761D01*
X168627290Y-109740123D01*
X166129553Y-109740123D01*
X166044715Y-109655285D01*
X165886558Y-109549609D01*
X165700000Y-109512499D01*
X165699995Y-109512500D01*
X159467112Y-109512500D01*
X159382856Y-109428097D01*
X159134855Y-109325117D01*
X158866323Y-109324883D01*
X158618143Y-109427429D01*
X158428097Y-109617144D01*
X158325117Y-109865145D01*
X158324883Y-110133677D01*
X158427429Y-110381857D01*
X158557844Y-110512500D01*
X153467112Y-110512500D01*
X153382856Y-110428097D01*
X153134855Y-110325117D01*
X152866323Y-110324883D01*
X152863295Y-110326134D01*
X153344712Y-109844717D01*
X153344715Y-109844715D01*
X153450391Y-109686558D01*
X153464000Y-109618143D01*
X153487501Y-109500000D01*
X153487500Y-109499995D01*
X153487500Y-109467112D01*
X153571903Y-109382856D01*
X153674883Y-109134855D01*
X153675117Y-108866323D01*
X153572571Y-108618143D01*
X153382856Y-108428097D01*
X153134855Y-108325117D01*
X152866323Y-108324883D01*
X152618143Y-108427429D01*
X152428097Y-108617144D01*
X152325117Y-108865145D01*
X152324883Y-109133677D01*
X152427429Y-109381857D01*
X152428071Y-109382500D01*
X151499084Y-110311486D01*
X151393408Y-110469643D01*
X151356298Y-110656201D01*
X151356299Y-110656206D01*
X151356299Y-111528968D01*
X151356298Y-111528973D01*
X151392747Y-111712210D01*
X149675005Y-109994467D01*
X149675117Y-109866323D01*
X149572571Y-109618143D01*
X149382856Y-109428097D01*
X149226329Y-109363101D01*
X149344712Y-109244717D01*
X149344715Y-109244715D01*
X149450391Y-109086558D01*
X149487500Y-108900000D01*
X149487500Y-108467112D01*
X149571903Y-108382856D01*
X149674883Y-108134855D01*
X149675117Y-107866323D01*
X149572571Y-107618143D01*
X149442156Y-107487500D01*
X152532888Y-107487500D01*
X152617144Y-107571903D01*
X152865145Y-107674883D01*
X153133677Y-107675117D01*
X153381857Y-107572571D01*
X153571903Y-107382856D01*
X153674883Y-107134855D01*
X153675117Y-106866323D01*
X153572571Y-106618143D01*
X153382856Y-106428097D01*
X153134855Y-106325117D01*
X152866323Y-106324883D01*
X152618143Y-106427429D01*
X152532924Y-106512500D01*
X148600005Y-106512500D01*
X148600000Y-106512499D01*
X148413442Y-106549609D01*
X148255285Y-106655285D01*
X148255283Y-106655288D01*
X145115285Y-109795285D01*
X145009609Y-109953442D01*
X144972499Y-110140000D01*
X144972500Y-110140005D01*
X144972500Y-113889504D01*
X144774071Y-113971493D01*
X144432692Y-114312277D01*
X144247711Y-114757761D01*
X144247290Y-115240123D01*
X144431493Y-115685929D01*
X144772277Y-116027308D01*
X145217761Y-116212289D01*
X145700123Y-116212710D01*
X146145929Y-116028507D01*
X146487308Y-115687723D01*
X146672289Y-115242239D01*
X146672290Y-115240123D01*
X146787290Y-115240123D01*
X146971493Y-115685929D01*
X147312277Y-116027308D01*
X147757761Y-116212289D01*
X148240123Y-116212710D01*
X148685929Y-116028507D01*
X148902966Y-115811848D01*
X149731688Y-115811848D01*
X149815372Y-116001617D01*
X150253833Y-116202678D01*
X150735862Y-116220640D01*
X151188071Y-116052771D01*
X151264628Y-116001617D01*
X151348312Y-115811848D01*
X150540000Y-115003536D01*
X149731688Y-115811848D01*
X148902966Y-115811848D01*
X149027308Y-115687723D01*
X149212289Y-115242239D01*
X149212329Y-115195862D01*
X149319360Y-115195862D01*
X149487229Y-115648071D01*
X149538383Y-115724628D01*
X149728152Y-115808312D01*
X150536464Y-115000000D01*
X149728152Y-114191688D01*
X149538383Y-114275372D01*
X149337322Y-114713833D01*
X149319360Y-115195862D01*
X149212329Y-115195862D01*
X149212710Y-114759877D01*
X149028507Y-114314071D01*
X148687723Y-113972692D01*
X148242239Y-113787711D01*
X147759877Y-113787290D01*
X147314071Y-113971493D01*
X146972692Y-114312277D01*
X146787711Y-114757761D01*
X146787290Y-115240123D01*
X146672290Y-115240123D01*
X146672710Y-114759877D01*
X146488507Y-114314071D01*
X146147723Y-113972692D01*
X145947500Y-113889552D01*
X145947500Y-110341930D01*
X148325031Y-107964399D01*
X148324883Y-108133677D01*
X148427429Y-108381857D01*
X148512500Y-108467076D01*
X148512500Y-108698071D01*
X147955285Y-109255285D01*
X147849609Y-109413442D01*
X147812499Y-109600000D01*
X147812500Y-109600005D01*
X147812500Y-110499995D01*
X147812499Y-110500000D01*
X147849609Y-110686558D01*
X147955285Y-110844715D01*
X150977107Y-113866537D01*
X150826167Y-113797322D01*
X150344138Y-113779360D01*
X149891929Y-113947229D01*
X149815372Y-113998383D01*
X149731688Y-114188152D01*
X150540000Y-114996464D01*
X150554142Y-114982322D01*
X150557678Y-114985858D01*
X150543536Y-115000000D01*
X151351848Y-115808312D01*
X151541617Y-115724628D01*
X151742678Y-115286167D01*
X151760640Y-114804138D01*
X151669681Y-114559111D01*
X152455285Y-115344715D01*
X152613442Y-115450391D01*
X152800000Y-115487501D01*
X152800005Y-115487500D01*
X153349504Y-115487500D01*
X153431493Y-115685929D01*
X153772277Y-116027308D01*
X154217761Y-116212289D01*
X154700123Y-116212710D01*
X155145929Y-116028507D01*
X155487308Y-115687723D01*
X155672289Y-115242239D01*
X155672290Y-115240123D01*
X155787290Y-115240123D01*
X155971493Y-115685929D01*
X156312277Y-116027308D01*
X156757761Y-116212289D01*
X157240123Y-116212710D01*
X157685929Y-116028507D01*
X157902966Y-115811848D01*
X158731688Y-115811848D01*
X158815372Y-116001617D01*
X159253833Y-116202678D01*
X159735862Y-116220640D01*
X160188071Y-116052771D01*
X160264628Y-116001617D01*
X160348312Y-115811848D01*
X159540000Y-115003536D01*
X158731688Y-115811848D01*
X157902966Y-115811848D01*
X158027308Y-115687723D01*
X158212289Y-115242239D01*
X158212329Y-115195862D01*
X158319360Y-115195862D01*
X158487229Y-115648071D01*
X158538383Y-115724628D01*
X158728152Y-115808312D01*
X159536464Y-115000000D01*
X159543536Y-115000000D01*
X160351848Y-115808312D01*
X160541617Y-115724628D01*
X160742678Y-115286167D01*
X160760640Y-114804138D01*
X160592771Y-114351929D01*
X160541617Y-114275372D01*
X160351848Y-114191688D01*
X159543536Y-115000000D01*
X159536464Y-115000000D01*
X158728152Y-114191688D01*
X158538383Y-114275372D01*
X158337322Y-114713833D01*
X158319360Y-115195862D01*
X158212329Y-115195862D01*
X158212710Y-114759877D01*
X158028507Y-114314071D01*
X157902808Y-114188152D01*
X158731688Y-114188152D01*
X159540000Y-114996464D01*
X160348312Y-114188152D01*
X160264628Y-113998383D01*
X159826167Y-113797322D01*
X159344138Y-113779360D01*
X158891929Y-113947229D01*
X158815372Y-113998383D01*
X158731688Y-114188152D01*
X157902808Y-114188152D01*
X157687723Y-113972692D01*
X157242239Y-113787711D01*
X156759877Y-113787290D01*
X156314071Y-113971493D01*
X155972692Y-114312277D01*
X155787711Y-114757761D01*
X155787290Y-115240123D01*
X155672290Y-115240123D01*
X155672710Y-114759877D01*
X155488507Y-114314071D01*
X155147723Y-113972692D01*
X154702239Y-113787711D01*
X154219877Y-113787290D01*
X153774071Y-113971493D01*
X153432692Y-114312277D01*
X153349552Y-114512500D01*
X153001930Y-114512500D01*
X151973411Y-113483981D01*
X151991108Y-113487501D01*
X151991113Y-113487500D01*
X160598070Y-113487500D01*
X163723070Y-116612500D01*
X118387500Y-116612500D01*
X118387500Y-115311848D01*
X119711688Y-115311848D01*
X119795372Y-115501617D01*
X120233833Y-115702678D01*
X120715862Y-115720640D01*
X121168071Y-115552771D01*
X121244628Y-115501617D01*
X121328312Y-115311848D01*
X120520000Y-114503536D01*
X119711688Y-115311848D01*
X118387500Y-115311848D01*
X118387500Y-114695862D01*
X119299360Y-114695862D01*
X119467229Y-115148071D01*
X119518383Y-115224628D01*
X119708152Y-115308312D01*
X120516464Y-114500000D01*
X120523536Y-114500000D01*
X121331848Y-115308312D01*
X121521617Y-115224628D01*
X121722678Y-114786167D01*
X121724393Y-114740123D01*
X121847290Y-114740123D01*
X122031493Y-115185929D01*
X122372277Y-115527308D01*
X122817761Y-115712289D01*
X123300123Y-115712710D01*
X123745929Y-115528507D01*
X124087308Y-115187723D01*
X124272289Y-114742239D01*
X124272290Y-114740123D01*
X124387290Y-114740123D01*
X124571493Y-115185929D01*
X124912277Y-115527308D01*
X125357761Y-115712289D01*
X125840123Y-115712710D01*
X126285929Y-115528507D01*
X126627308Y-115187723D01*
X126812289Y-114742239D01*
X126812290Y-114740123D01*
X126927290Y-114740123D01*
X127111493Y-115185929D01*
X127452277Y-115527308D01*
X127897761Y-115712289D01*
X128380123Y-115712710D01*
X128825929Y-115528507D01*
X129167308Y-115187723D01*
X129352289Y-114742239D01*
X129352710Y-114259877D01*
X129168507Y-113814071D01*
X128827723Y-113472692D01*
X128382239Y-113287711D01*
X127899877Y-113287290D01*
X127454071Y-113471493D01*
X127112692Y-113812277D01*
X126927711Y-114257761D01*
X126927290Y-114740123D01*
X126812290Y-114740123D01*
X126812710Y-114259877D01*
X126628507Y-113814071D01*
X126287723Y-113472692D01*
X125842239Y-113287711D01*
X125359877Y-113287290D01*
X124914071Y-113471493D01*
X124572692Y-113812277D01*
X124387711Y-114257761D01*
X124387290Y-114740123D01*
X124272290Y-114740123D01*
X124272710Y-114259877D01*
X124088507Y-113814071D01*
X123747723Y-113472692D01*
X123302239Y-113287711D01*
X122819877Y-113287290D01*
X122374071Y-113471493D01*
X122032692Y-113812277D01*
X121847711Y-114257761D01*
X121847290Y-114740123D01*
X121724393Y-114740123D01*
X121740640Y-114304138D01*
X121572771Y-113851929D01*
X121521617Y-113775372D01*
X121331848Y-113691688D01*
X120523536Y-114500000D01*
X120516464Y-114500000D01*
X119708152Y-113691688D01*
X119518383Y-113775372D01*
X119317322Y-114213833D01*
X119299360Y-114695862D01*
X118387500Y-114695862D01*
X118387500Y-113688152D01*
X119711688Y-113688152D01*
X120520000Y-114496464D01*
X121328312Y-113688152D01*
X121244628Y-113498383D01*
X120806167Y-113297322D01*
X120324138Y-113279360D01*
X119871929Y-113447229D01*
X119795372Y-113498383D01*
X119711688Y-113688152D01*
X118387500Y-113688152D01*
X118387500Y-102030000D01*
X124993055Y-102030000D01*
X124993055Y-103810000D01*
X125018332Y-103944334D01*
X125097723Y-104067712D01*
X125218861Y-104150482D01*
X125257500Y-104158307D01*
X125257500Y-105220000D01*
X125304124Y-105454394D01*
X125392433Y-105586558D01*
X125436897Y-105653103D01*
X127365309Y-107581515D01*
X127427429Y-107731857D01*
X127617144Y-107921903D01*
X127865145Y-108024883D01*
X128133677Y-108025117D01*
X128285222Y-107962500D01*
X144707150Y-107962500D01*
X144941544Y-107915876D01*
X145140253Y-107783103D01*
X146620836Y-106302520D01*
X146678107Y-106216808D01*
X167010193Y-106216808D01*
X167112739Y-106464988D01*
X167302454Y-106655034D01*
X167550455Y-106758014D01*
X167818987Y-106758248D01*
X168067167Y-106655702D01*
X168257213Y-106465987D01*
X168360193Y-106217986D01*
X168360298Y-106097573D01*
X169394712Y-105063158D01*
X169394715Y-105063156D01*
X169500391Y-104904999D01*
X169509264Y-104860391D01*
X169537501Y-104718441D01*
X169537500Y-104718436D01*
X169537500Y-104179601D01*
X169562656Y-104179601D01*
X169696990Y-104154324D01*
X169820368Y-104074933D01*
X169903138Y-103953795D01*
X169932257Y-103810000D01*
X169932257Y-102030000D01*
X169906980Y-101895666D01*
X169827589Y-101772288D01*
X169795317Y-101750237D01*
X169922348Y-101444312D01*
X169922651Y-101097210D01*
X169790101Y-100776414D01*
X169544877Y-100530762D01*
X169224312Y-100397652D01*
X168877210Y-100397349D01*
X168556414Y-100529899D01*
X168310762Y-100775123D01*
X168177652Y-101095688D01*
X168177349Y-101442790D01*
X168305141Y-101752071D01*
X168284944Y-101765067D01*
X168202174Y-101886205D01*
X168173055Y-102030000D01*
X168173055Y-103810000D01*
X168198332Y-103944334D01*
X168277723Y-104067712D01*
X168398861Y-104150482D01*
X168542656Y-104179601D01*
X168562500Y-104179601D01*
X168562500Y-104516512D01*
X167670893Y-105408118D01*
X167551633Y-105408014D01*
X167303453Y-105510560D01*
X167113407Y-105700275D01*
X167010427Y-105948276D01*
X167010193Y-106216808D01*
X146678107Y-106216808D01*
X146753610Y-106103810D01*
X146800233Y-105869417D01*
X146800233Y-104935820D01*
X162861053Y-104935820D01*
X162963599Y-105184000D01*
X163153314Y-105374046D01*
X163401315Y-105477026D01*
X163669847Y-105477260D01*
X163918027Y-105374714D01*
X164003246Y-105289643D01*
X164607852Y-105289643D01*
X164607857Y-105289644D01*
X164794415Y-105252534D01*
X164952572Y-105146858D01*
X165933777Y-104165653D01*
X166002656Y-104179601D01*
X167022656Y-104179601D01*
X167156990Y-104154324D01*
X167280368Y-104074933D01*
X167363138Y-103953795D01*
X167392257Y-103810000D01*
X167392257Y-102030000D01*
X167366980Y-101895666D01*
X167287589Y-101772288D01*
X167255317Y-101750237D01*
X167382348Y-101444312D01*
X167382651Y-101097210D01*
X167250101Y-100776414D01*
X167004877Y-100530762D01*
X166684312Y-100397652D01*
X166337210Y-100397349D01*
X166016414Y-100529899D01*
X165770762Y-100775123D01*
X165637652Y-101095688D01*
X165637349Y-101442790D01*
X165765141Y-101752071D01*
X165744944Y-101765067D01*
X165662174Y-101886205D01*
X165633055Y-102030000D01*
X165633055Y-103087516D01*
X164837450Y-103883120D01*
X164852257Y-103810000D01*
X164852257Y-102030000D01*
X164826980Y-101895666D01*
X164747589Y-101772288D01*
X164715317Y-101750237D01*
X164842348Y-101444312D01*
X164842651Y-101097210D01*
X164710101Y-100776414D01*
X164464877Y-100530762D01*
X164144312Y-100397652D01*
X163797210Y-100397349D01*
X163476414Y-100529899D01*
X163230762Y-100775123D01*
X163097652Y-101095688D01*
X163097349Y-101442790D01*
X163225141Y-101752071D01*
X163204944Y-101765067D01*
X163122174Y-101886205D01*
X163093055Y-102030000D01*
X163093055Y-103810000D01*
X163118332Y-103944334D01*
X163197723Y-104067712D01*
X163318861Y-104150482D01*
X163336890Y-104154133D01*
X163154313Y-104229572D01*
X162964267Y-104419287D01*
X162861287Y-104667288D01*
X162861053Y-104935820D01*
X146800233Y-104935820D01*
X146800233Y-104858281D01*
X146884091Y-104656330D01*
X146884325Y-104387798D01*
X146802500Y-104189767D01*
X146802500Y-104160814D01*
X146836990Y-104154324D01*
X146960368Y-104074933D01*
X147043138Y-103953795D01*
X147072257Y-103810000D01*
X147072257Y-102030000D01*
X147853055Y-102030000D01*
X147853055Y-103810000D01*
X147878332Y-103944334D01*
X147957723Y-104067712D01*
X148078861Y-104150482D01*
X148222656Y-104179601D01*
X149242656Y-104179601D01*
X149376990Y-104154324D01*
X149500368Y-104074933D01*
X149583138Y-103953795D01*
X149612257Y-103810000D01*
X149612257Y-102030000D01*
X150393055Y-102030000D01*
X150393055Y-103810000D01*
X150418332Y-103944334D01*
X150497723Y-104067712D01*
X150618861Y-104150482D01*
X150762656Y-104179601D01*
X151782656Y-104179601D01*
X151916990Y-104154324D01*
X152040368Y-104074933D01*
X152123138Y-103953795D01*
X152152257Y-103810000D01*
X152152257Y-102030000D01*
X152933055Y-102030000D01*
X152933055Y-103810000D01*
X152958332Y-103944334D01*
X153037723Y-104067712D01*
X153158861Y-104150482D01*
X153302656Y-104179601D01*
X154322656Y-104179601D01*
X154456990Y-104154324D01*
X154580368Y-104074933D01*
X154663138Y-103953795D01*
X154692257Y-103810000D01*
X154692257Y-103013125D01*
X155480156Y-103013125D01*
X155480156Y-103882106D01*
X155535343Y-104015340D01*
X155637316Y-104117313D01*
X155770551Y-104172500D01*
X156259531Y-104172500D01*
X156350156Y-104081875D01*
X156350156Y-102922500D01*
X156355156Y-102922500D01*
X156355156Y-104081875D01*
X156445781Y-104172500D01*
X156934761Y-104172500D01*
X157067996Y-104117313D01*
X157169969Y-104015340D01*
X157225156Y-103882106D01*
X157225156Y-103013125D01*
X157134531Y-102922500D01*
X156355156Y-102922500D01*
X156350156Y-102922500D01*
X155570781Y-102922500D01*
X155480156Y-103013125D01*
X154692257Y-103013125D01*
X154692257Y-102030000D01*
X154666980Y-101895666D01*
X154587589Y-101772288D01*
X154555317Y-101750237D01*
X154682348Y-101444312D01*
X154682349Y-101442790D01*
X155477349Y-101442790D01*
X155605957Y-101754046D01*
X155535343Y-101824660D01*
X155480156Y-101957894D01*
X155480156Y-102826875D01*
X155570781Y-102917500D01*
X156350156Y-102917500D01*
X156350156Y-102897500D01*
X156355156Y-102897500D01*
X156355156Y-102917500D01*
X157134531Y-102917500D01*
X157225156Y-102826875D01*
X157225156Y-102030000D01*
X158013055Y-102030000D01*
X158013055Y-103810000D01*
X158038332Y-103944334D01*
X158117723Y-104067712D01*
X158238861Y-104150482D01*
X158382656Y-104179601D01*
X159402656Y-104179601D01*
X159536990Y-104154324D01*
X159660368Y-104074933D01*
X159743138Y-103953795D01*
X159772257Y-103810000D01*
X159772257Y-102030000D01*
X160553055Y-102030000D01*
X160553055Y-103810000D01*
X160578332Y-103944334D01*
X160657723Y-104067712D01*
X160778861Y-104150482D01*
X160922656Y-104179601D01*
X161942656Y-104179601D01*
X162076990Y-104154324D01*
X162200368Y-104074933D01*
X162283138Y-103953795D01*
X162312257Y-103810000D01*
X162312257Y-102030000D01*
X162286980Y-101895666D01*
X162207589Y-101772288D01*
X162175317Y-101750237D01*
X162302348Y-101444312D01*
X162302651Y-101097210D01*
X162170101Y-100776414D01*
X161924877Y-100530762D01*
X161604312Y-100397652D01*
X161257210Y-100397349D01*
X160936414Y-100529899D01*
X160690762Y-100775123D01*
X160557652Y-101095688D01*
X160557349Y-101442790D01*
X160685141Y-101752071D01*
X160664944Y-101765067D01*
X160582174Y-101886205D01*
X160553055Y-102030000D01*
X159772257Y-102030000D01*
X159746980Y-101895666D01*
X159667589Y-101772288D01*
X159635317Y-101750237D01*
X159762348Y-101444312D01*
X159762651Y-101097210D01*
X159630101Y-100776414D01*
X159384877Y-100530762D01*
X159064312Y-100397652D01*
X158717210Y-100397349D01*
X158396414Y-100529899D01*
X158150762Y-100775123D01*
X158017652Y-101095688D01*
X158017349Y-101442790D01*
X158145141Y-101752071D01*
X158124944Y-101765067D01*
X158042174Y-101886205D01*
X158013055Y-102030000D01*
X157225156Y-102030000D01*
X157225156Y-101957894D01*
X157169969Y-101824660D01*
X157095384Y-101750075D01*
X157222348Y-101444312D01*
X157222651Y-101097210D01*
X157090101Y-100776414D01*
X156844877Y-100530762D01*
X156524312Y-100397652D01*
X156177210Y-100397349D01*
X155856414Y-100529899D01*
X155610762Y-100775123D01*
X155477652Y-101095688D01*
X155477349Y-101442790D01*
X154682349Y-101442790D01*
X154682651Y-101097210D01*
X154550101Y-100776414D01*
X154304877Y-100530762D01*
X153984312Y-100397652D01*
X153637210Y-100397349D01*
X153316414Y-100529899D01*
X153070762Y-100775123D01*
X152937652Y-101095688D01*
X152937349Y-101442790D01*
X153065141Y-101752071D01*
X153044944Y-101765067D01*
X152962174Y-101886205D01*
X152933055Y-102030000D01*
X152152257Y-102030000D01*
X152126980Y-101895666D01*
X152047589Y-101772288D01*
X152015317Y-101750237D01*
X152142348Y-101444312D01*
X152142651Y-101097210D01*
X152010101Y-100776414D01*
X151764877Y-100530762D01*
X151444312Y-100397652D01*
X151097210Y-100397349D01*
X150776414Y-100529899D01*
X150530762Y-100775123D01*
X150397652Y-101095688D01*
X150397349Y-101442790D01*
X150525141Y-101752071D01*
X150504944Y-101765067D01*
X150422174Y-101886205D01*
X150393055Y-102030000D01*
X149612257Y-102030000D01*
X149586980Y-101895666D01*
X149507589Y-101772288D01*
X149475317Y-101750237D01*
X149602348Y-101444312D01*
X149602651Y-101097210D01*
X149470101Y-100776414D01*
X149224877Y-100530762D01*
X148904312Y-100397652D01*
X148557210Y-100397349D01*
X148236414Y-100529899D01*
X147990762Y-100775123D01*
X147857652Y-101095688D01*
X147857349Y-101442790D01*
X147985141Y-101752071D01*
X147964944Y-101765067D01*
X147882174Y-101886205D01*
X147853055Y-102030000D01*
X147072257Y-102030000D01*
X147046980Y-101895666D01*
X146967589Y-101772288D01*
X146935317Y-101750237D01*
X147062348Y-101444312D01*
X147062651Y-101097210D01*
X146930101Y-100776414D01*
X146684877Y-100530762D01*
X146364312Y-100397652D01*
X146017210Y-100397349D01*
X145696414Y-100529899D01*
X145450762Y-100775123D01*
X145317652Y-101095688D01*
X145317349Y-101442790D01*
X145445141Y-101752071D01*
X145424944Y-101765067D01*
X145342174Y-101886205D01*
X145313055Y-102030000D01*
X145313055Y-103810000D01*
X145338332Y-103944334D01*
X145417723Y-104067712D01*
X145538861Y-104150482D01*
X145577500Y-104158307D01*
X145577500Y-104282644D01*
X145534325Y-104386620D01*
X145534091Y-104655152D01*
X145575233Y-104754723D01*
X145575233Y-105615711D01*
X144453444Y-106737500D01*
X128285089Y-106737500D01*
X128231421Y-106715215D01*
X126482500Y-104966294D01*
X126482500Y-104160814D01*
X126516990Y-104154324D01*
X126640368Y-104074933D01*
X126723138Y-103953795D01*
X126752257Y-103810000D01*
X126752257Y-102030000D01*
X126726980Y-101895666D01*
X126647589Y-101772288D01*
X126615317Y-101750237D01*
X126742348Y-101444312D01*
X126742560Y-101201984D01*
X126887771Y-101262281D01*
X127390025Y-101262719D01*
X127537559Y-101201759D01*
X127537349Y-101442790D01*
X127665141Y-101752071D01*
X127644944Y-101765067D01*
X127562174Y-101886205D01*
X127533055Y-102030000D01*
X127533055Y-103810000D01*
X127558332Y-103944334D01*
X127637723Y-104067712D01*
X127758861Y-104150482D01*
X127902656Y-104179601D01*
X127922500Y-104179601D01*
X127922500Y-105009995D01*
X127922499Y-105010000D01*
X127959609Y-105196558D01*
X128065285Y-105354715D01*
X128124987Y-105414417D01*
X128124883Y-105533677D01*
X128227429Y-105781857D01*
X128417144Y-105971903D01*
X128665145Y-106074883D01*
X128933677Y-106075117D01*
X129181857Y-105972571D01*
X129371903Y-105782856D01*
X129474883Y-105534855D01*
X129475117Y-105266323D01*
X129372571Y-105018143D01*
X129182856Y-104828097D01*
X128934855Y-104725117D01*
X128897500Y-104725084D01*
X128897500Y-104179601D01*
X128922656Y-104179601D01*
X129056990Y-104154324D01*
X129180368Y-104074933D01*
X129263138Y-103953795D01*
X129292257Y-103810000D01*
X129292257Y-102030000D01*
X130073055Y-102030000D01*
X130073055Y-103810000D01*
X130098332Y-103944334D01*
X130177723Y-104067712D01*
X130298861Y-104150482D01*
X130442656Y-104179601D01*
X130462500Y-104179601D01*
X130462500Y-104349995D01*
X130462499Y-104350000D01*
X130499609Y-104536558D01*
X130525022Y-104574591D01*
X130524883Y-104733677D01*
X130627429Y-104981857D01*
X130817144Y-105171903D01*
X131065145Y-105274883D01*
X131333677Y-105275117D01*
X131581857Y-105172571D01*
X131771903Y-104982856D01*
X131874883Y-104734855D01*
X131875117Y-104466323D01*
X131772571Y-104218143D01*
X131665107Y-104110492D01*
X131720368Y-104074933D01*
X131803138Y-103953795D01*
X131832257Y-103810000D01*
X131832257Y-102030000D01*
X132613055Y-102030000D01*
X132613055Y-103810000D01*
X132638332Y-103944334D01*
X132717723Y-104067712D01*
X132838861Y-104150482D01*
X132982656Y-104179601D01*
X134002656Y-104179601D01*
X134136990Y-104154324D01*
X134260368Y-104074933D01*
X134343138Y-103953795D01*
X134372257Y-103810000D01*
X134372257Y-103013125D01*
X135160156Y-103013125D01*
X135160156Y-103882106D01*
X135215343Y-104015340D01*
X135317316Y-104117313D01*
X135450551Y-104172500D01*
X135939531Y-104172500D01*
X136030156Y-104081875D01*
X136030156Y-102922500D01*
X136035156Y-102922500D01*
X136035156Y-104081875D01*
X136125781Y-104172500D01*
X136614761Y-104172500D01*
X136747996Y-104117313D01*
X136849969Y-104015340D01*
X136905156Y-103882106D01*
X136905156Y-103013125D01*
X136814531Y-102922500D01*
X136035156Y-102922500D01*
X136030156Y-102922500D01*
X135250781Y-102922500D01*
X135160156Y-103013125D01*
X134372257Y-103013125D01*
X134372257Y-102030000D01*
X134346980Y-101895666D01*
X134267589Y-101772288D01*
X134235317Y-101750237D01*
X134362348Y-101444312D01*
X134362349Y-101442790D01*
X135157349Y-101442790D01*
X135285957Y-101754046D01*
X135215343Y-101824660D01*
X135160156Y-101957894D01*
X135160156Y-102826875D01*
X135250781Y-102917500D01*
X136030156Y-102917500D01*
X136030156Y-102897500D01*
X136035156Y-102897500D01*
X136035156Y-102917500D01*
X136814531Y-102917500D01*
X136905156Y-102826875D01*
X136905156Y-102030000D01*
X137693055Y-102030000D01*
X137693055Y-103810000D01*
X137718332Y-103944334D01*
X137797723Y-104067712D01*
X137918861Y-104150482D01*
X138062656Y-104179601D01*
X139082656Y-104179601D01*
X139216990Y-104154324D01*
X139340368Y-104074933D01*
X139423138Y-103953795D01*
X139452257Y-103810000D01*
X139452257Y-102030000D01*
X140233055Y-102030000D01*
X140233055Y-103810000D01*
X140258332Y-103944334D01*
X140337723Y-104067712D01*
X140458861Y-104150482D01*
X140602656Y-104179601D01*
X141622656Y-104179601D01*
X141756990Y-104154324D01*
X141880368Y-104074933D01*
X141963138Y-103953795D01*
X141992257Y-103810000D01*
X141992257Y-102030000D01*
X142773055Y-102030000D01*
X142773055Y-103810000D01*
X142798332Y-103944334D01*
X142877723Y-104067712D01*
X142998861Y-104150482D01*
X143142656Y-104179601D01*
X144162656Y-104179601D01*
X144296990Y-104154324D01*
X144420368Y-104074933D01*
X144503138Y-103953795D01*
X144532257Y-103810000D01*
X144532257Y-102030000D01*
X144506980Y-101895666D01*
X144427589Y-101772288D01*
X144395317Y-101750237D01*
X144522348Y-101444312D01*
X144522651Y-101097210D01*
X144390101Y-100776414D01*
X144144877Y-100530762D01*
X143824312Y-100397652D01*
X143477210Y-100397349D01*
X143156414Y-100529899D01*
X142910762Y-100775123D01*
X142777652Y-101095688D01*
X142777349Y-101442790D01*
X142905141Y-101752071D01*
X142884944Y-101765067D01*
X142802174Y-101886205D01*
X142773055Y-102030000D01*
X141992257Y-102030000D01*
X141966980Y-101895666D01*
X141887589Y-101772288D01*
X141855317Y-101750237D01*
X141982348Y-101444312D01*
X141982651Y-101097210D01*
X141850101Y-100776414D01*
X141604877Y-100530762D01*
X141284312Y-100397652D01*
X140937210Y-100397349D01*
X140616414Y-100529899D01*
X140370762Y-100775123D01*
X140237652Y-101095688D01*
X140237349Y-101442790D01*
X140365141Y-101752071D01*
X140344944Y-101765067D01*
X140262174Y-101886205D01*
X140233055Y-102030000D01*
X139452257Y-102030000D01*
X139426980Y-101895666D01*
X139347589Y-101772288D01*
X139315317Y-101750237D01*
X139442348Y-101444312D01*
X139442651Y-101097210D01*
X139310101Y-100776414D01*
X139064877Y-100530762D01*
X138744312Y-100397652D01*
X138397210Y-100397349D01*
X138076414Y-100529899D01*
X137830762Y-100775123D01*
X137697652Y-101095688D01*
X137697349Y-101442790D01*
X137825141Y-101752071D01*
X137804944Y-101765067D01*
X137722174Y-101886205D01*
X137693055Y-102030000D01*
X136905156Y-102030000D01*
X136905156Y-101957894D01*
X136849969Y-101824660D01*
X136775384Y-101750075D01*
X136902348Y-101444312D01*
X136902651Y-101097210D01*
X136770101Y-100776414D01*
X136524877Y-100530762D01*
X136204312Y-100397652D01*
X135857210Y-100397349D01*
X135536414Y-100529899D01*
X135290762Y-100775123D01*
X135157652Y-101095688D01*
X135157349Y-101442790D01*
X134362349Y-101442790D01*
X134362651Y-101097210D01*
X134230101Y-100776414D01*
X133984877Y-100530762D01*
X133664312Y-100397652D01*
X133317210Y-100397349D01*
X132996414Y-100529899D01*
X132750762Y-100775123D01*
X132617652Y-101095688D01*
X132617349Y-101442790D01*
X132745141Y-101752071D01*
X132724944Y-101765067D01*
X132642174Y-101886205D01*
X132613055Y-102030000D01*
X131832257Y-102030000D01*
X131806980Y-101895666D01*
X131727589Y-101772288D01*
X131695317Y-101750237D01*
X131822348Y-101444312D01*
X131822651Y-101097210D01*
X131690101Y-100776414D01*
X131444877Y-100530762D01*
X131124312Y-100397652D01*
X130777210Y-100397349D01*
X130456414Y-100529899D01*
X130210762Y-100775123D01*
X130077652Y-101095688D01*
X130077349Y-101442790D01*
X130205141Y-101752071D01*
X130184944Y-101765067D01*
X130102174Y-101886205D01*
X130073055Y-102030000D01*
X129292257Y-102030000D01*
X129266980Y-101895666D01*
X129187589Y-101772288D01*
X129155317Y-101750237D01*
X129282348Y-101444312D01*
X129282651Y-101097210D01*
X129150101Y-100776414D01*
X128904877Y-100530762D01*
X128584312Y-100397652D01*
X128341984Y-100397440D01*
X128402281Y-100252229D01*
X128402719Y-99749975D01*
X128341759Y-99602441D01*
X128582790Y-99602651D01*
X128903586Y-99470101D01*
X129149238Y-99224877D01*
X129282348Y-98904312D01*
X129282349Y-98902790D01*
X130077349Y-98902790D01*
X130209899Y-99223586D01*
X130455123Y-99469238D01*
X130775688Y-99602348D01*
X131122790Y-99602651D01*
X131443586Y-99470101D01*
X131689238Y-99224877D01*
X131822348Y-98904312D01*
X131822651Y-98557210D01*
X131695651Y-98249846D01*
X131770157Y-98175340D01*
X131825344Y-98042106D01*
X131825344Y-97173125D01*
X131734719Y-97082500D01*
X130955344Y-97082500D01*
X130955344Y-97102500D01*
X130950344Y-97102500D01*
X130950344Y-97082500D01*
X130170969Y-97082500D01*
X130080344Y-97173125D01*
X130080344Y-98042106D01*
X130135531Y-98175340D01*
X130206229Y-98246038D01*
X130077652Y-98555688D01*
X130077349Y-98902790D01*
X129282349Y-98902790D01*
X129282651Y-98557210D01*
X129156014Y-98250725D01*
X129180556Y-98234933D01*
X129263326Y-98113795D01*
X129292445Y-97970000D01*
X129292445Y-96190000D01*
X129278878Y-96117894D01*
X130080344Y-96117894D01*
X130080344Y-96986875D01*
X130170969Y-97077500D01*
X130950344Y-97077500D01*
X130950344Y-95918125D01*
X130955344Y-95918125D01*
X130955344Y-97077500D01*
X131734719Y-97077500D01*
X131825344Y-96986875D01*
X131825344Y-96190000D01*
X132613243Y-96190000D01*
X132613243Y-97970000D01*
X132638520Y-98104334D01*
X132717911Y-98227712D01*
X132745899Y-98246835D01*
X132617652Y-98555688D01*
X132617349Y-98902790D01*
X132749899Y-99223586D01*
X132995123Y-99469238D01*
X133315688Y-99602348D01*
X133662790Y-99602651D01*
X133983586Y-99470101D01*
X134229238Y-99224877D01*
X134362348Y-98904312D01*
X134362651Y-98557210D01*
X134236014Y-98250725D01*
X134260556Y-98234933D01*
X134343326Y-98113795D01*
X134372445Y-97970000D01*
X134372445Y-96190000D01*
X135153243Y-96190000D01*
X135153243Y-97970000D01*
X135178520Y-98104334D01*
X135257911Y-98227712D01*
X135285899Y-98246835D01*
X135157652Y-98555688D01*
X135157349Y-98902790D01*
X135289899Y-99223586D01*
X135535123Y-99469238D01*
X135855688Y-99602348D01*
X136202790Y-99602651D01*
X136523586Y-99470101D01*
X136769238Y-99224877D01*
X136902348Y-98904312D01*
X136902651Y-98557210D01*
X136776014Y-98250725D01*
X136800556Y-98234933D01*
X136883326Y-98113795D01*
X136912445Y-97970000D01*
X136912445Y-96190000D01*
X137693243Y-96190000D01*
X137693243Y-97970000D01*
X137718520Y-98104334D01*
X137797911Y-98227712D01*
X137825899Y-98246835D01*
X137697652Y-98555688D01*
X137697349Y-98902790D01*
X137829899Y-99223586D01*
X138075123Y-99469238D01*
X138395688Y-99602348D01*
X138742790Y-99602651D01*
X139063586Y-99470101D01*
X139309238Y-99224877D01*
X139442348Y-98904312D01*
X139442349Y-98902790D01*
X140237349Y-98902790D01*
X140369899Y-99223586D01*
X140615123Y-99469238D01*
X140935688Y-99602348D01*
X141282790Y-99602651D01*
X141603586Y-99470101D01*
X141849238Y-99224877D01*
X141982348Y-98904312D01*
X141982651Y-98557210D01*
X141855651Y-98249846D01*
X141930157Y-98175340D01*
X141985344Y-98042106D01*
X141985344Y-97173125D01*
X141894719Y-97082500D01*
X141115344Y-97082500D01*
X141115344Y-97102500D01*
X141110344Y-97102500D01*
X141110344Y-97082500D01*
X140330969Y-97082500D01*
X140240344Y-97173125D01*
X140240344Y-98042106D01*
X140295531Y-98175340D01*
X140366229Y-98246038D01*
X140237652Y-98555688D01*
X140237349Y-98902790D01*
X139442349Y-98902790D01*
X139442651Y-98557210D01*
X139316014Y-98250725D01*
X139340556Y-98234933D01*
X139423326Y-98113795D01*
X139452445Y-97970000D01*
X139452445Y-96190000D01*
X139438878Y-96117894D01*
X140240344Y-96117894D01*
X140240344Y-96986875D01*
X140330969Y-97077500D01*
X141110344Y-97077500D01*
X141110344Y-95918125D01*
X141115344Y-95918125D01*
X141115344Y-97077500D01*
X141894719Y-97077500D01*
X141985344Y-96986875D01*
X141985344Y-96190000D01*
X142773243Y-96190000D01*
X142773243Y-97970000D01*
X142798520Y-98104334D01*
X142877911Y-98227712D01*
X142905899Y-98246835D01*
X142777652Y-98555688D01*
X142777349Y-98902790D01*
X142909899Y-99223586D01*
X143155123Y-99469238D01*
X143475688Y-99602348D01*
X143822790Y-99602651D01*
X144143586Y-99470101D01*
X144389238Y-99224877D01*
X144522348Y-98904312D01*
X144522651Y-98557210D01*
X144396014Y-98250725D01*
X144420556Y-98234933D01*
X144503326Y-98113795D01*
X144532445Y-97970000D01*
X144532445Y-96190000D01*
X145313243Y-96190000D01*
X145313243Y-97970000D01*
X145338520Y-98104334D01*
X145417911Y-98227712D01*
X145445899Y-98246835D01*
X145317652Y-98555688D01*
X145317349Y-98902790D01*
X145449899Y-99223586D01*
X145695123Y-99469238D01*
X146015688Y-99602348D01*
X146362790Y-99602651D01*
X146683586Y-99470101D01*
X146929238Y-99224877D01*
X147062348Y-98904312D01*
X147062349Y-98902790D01*
X147857349Y-98902790D01*
X147989899Y-99223586D01*
X148235123Y-99469238D01*
X148555688Y-99602348D01*
X148902790Y-99602651D01*
X149223586Y-99470101D01*
X149469238Y-99224877D01*
X149602348Y-98904312D01*
X149602651Y-98557210D01*
X149475651Y-98249846D01*
X149550157Y-98175340D01*
X149605344Y-98042106D01*
X149605344Y-97173125D01*
X149514719Y-97082500D01*
X148735344Y-97082500D01*
X148735344Y-97102500D01*
X148730344Y-97102500D01*
X148730344Y-97082500D01*
X147950969Y-97082500D01*
X147860344Y-97173125D01*
X147860344Y-98042106D01*
X147915531Y-98175340D01*
X147986229Y-98246038D01*
X147857652Y-98555688D01*
X147857349Y-98902790D01*
X147062349Y-98902790D01*
X147062651Y-98557210D01*
X146936014Y-98250725D01*
X146960556Y-98234933D01*
X147043326Y-98113795D01*
X147072445Y-97970000D01*
X147072445Y-96190000D01*
X147058878Y-96117894D01*
X147860344Y-96117894D01*
X147860344Y-96986875D01*
X147950969Y-97077500D01*
X148730344Y-97077500D01*
X148730344Y-95918125D01*
X148735344Y-95918125D01*
X148735344Y-97077500D01*
X149514719Y-97077500D01*
X149605344Y-96986875D01*
X149605344Y-96190000D01*
X150393243Y-96190000D01*
X150393243Y-97970000D01*
X150418520Y-98104334D01*
X150497911Y-98227712D01*
X150525899Y-98246835D01*
X150397652Y-98555688D01*
X150397349Y-98902790D01*
X150529899Y-99223586D01*
X150775123Y-99469238D01*
X151095688Y-99602348D01*
X151442790Y-99602651D01*
X151763586Y-99470101D01*
X152009238Y-99224877D01*
X152142348Y-98904312D01*
X152142651Y-98557210D01*
X152016014Y-98250725D01*
X152040556Y-98234933D01*
X152123326Y-98113795D01*
X152152445Y-97970000D01*
X152152445Y-96190000D01*
X152933243Y-96190000D01*
X152933243Y-97970000D01*
X152958520Y-98104334D01*
X153037911Y-98227712D01*
X153065899Y-98246835D01*
X152937652Y-98555688D01*
X152937349Y-98902790D01*
X153069899Y-99223586D01*
X153315123Y-99469238D01*
X153635688Y-99602348D01*
X153982790Y-99602651D01*
X154303586Y-99470101D01*
X154549238Y-99224877D01*
X154682348Y-98904312D01*
X154682651Y-98557210D01*
X154556014Y-98250725D01*
X154580556Y-98234933D01*
X154663326Y-98113795D01*
X154692445Y-97970000D01*
X154692445Y-96190000D01*
X155473243Y-96190000D01*
X155473243Y-97970000D01*
X155498520Y-98104334D01*
X155577911Y-98227712D01*
X155605899Y-98246835D01*
X155477652Y-98555688D01*
X155477349Y-98902790D01*
X155609899Y-99223586D01*
X155855123Y-99469238D01*
X156175688Y-99602348D01*
X156522790Y-99602651D01*
X156843586Y-99470101D01*
X157089238Y-99224877D01*
X157222348Y-98904312D01*
X157222651Y-98557210D01*
X157096014Y-98250725D01*
X157120556Y-98234933D01*
X157203326Y-98113795D01*
X157232445Y-97970000D01*
X157232445Y-96190000D01*
X158013243Y-96190000D01*
X158013243Y-97970000D01*
X158038520Y-98104334D01*
X158117911Y-98227712D01*
X158145899Y-98246835D01*
X158017652Y-98555688D01*
X158017349Y-98902790D01*
X158149899Y-99223586D01*
X158395123Y-99469238D01*
X158715688Y-99602348D01*
X159062790Y-99602651D01*
X159383586Y-99470101D01*
X159629238Y-99224877D01*
X159762348Y-98904312D01*
X159762349Y-98902790D01*
X160557349Y-98902790D01*
X160689899Y-99223586D01*
X160935123Y-99469238D01*
X161255688Y-99602348D01*
X161602790Y-99602651D01*
X161923586Y-99470101D01*
X162169238Y-99224877D01*
X162302348Y-98904312D01*
X162302651Y-98557210D01*
X162175651Y-98249846D01*
X162250157Y-98175340D01*
X162305344Y-98042106D01*
X162305344Y-97173125D01*
X162214719Y-97082500D01*
X161435344Y-97082500D01*
X161435344Y-97102500D01*
X161430344Y-97102500D01*
X161430344Y-97082500D01*
X160650969Y-97082500D01*
X160560344Y-97173125D01*
X160560344Y-98042106D01*
X160615531Y-98175340D01*
X160686229Y-98246038D01*
X160557652Y-98555688D01*
X160557349Y-98902790D01*
X159762349Y-98902790D01*
X159762651Y-98557210D01*
X159636014Y-98250725D01*
X159660556Y-98234933D01*
X159743326Y-98113795D01*
X159772445Y-97970000D01*
X159772445Y-96190000D01*
X159758878Y-96117894D01*
X160560344Y-96117894D01*
X160560344Y-96986875D01*
X160650969Y-97077500D01*
X161430344Y-97077500D01*
X161430344Y-95918125D01*
X161435344Y-95918125D01*
X161435344Y-97077500D01*
X162214719Y-97077500D01*
X162305344Y-96986875D01*
X162305344Y-96190000D01*
X163093243Y-96190000D01*
X163093243Y-97970000D01*
X163118520Y-98104334D01*
X163197911Y-98227712D01*
X163225899Y-98246835D01*
X163097652Y-98555688D01*
X163097349Y-98902790D01*
X163229899Y-99223586D01*
X163475123Y-99469238D01*
X163795688Y-99602348D01*
X164142790Y-99602651D01*
X164463586Y-99470101D01*
X164709238Y-99224877D01*
X164842348Y-98904312D01*
X164842349Y-98902790D01*
X165637349Y-98902790D01*
X165769899Y-99223586D01*
X166015123Y-99469238D01*
X166335688Y-99602348D01*
X166682790Y-99602651D01*
X167003586Y-99470101D01*
X167249238Y-99224877D01*
X167382348Y-98904312D01*
X167382651Y-98557210D01*
X167255651Y-98249846D01*
X167330157Y-98175340D01*
X167385344Y-98042106D01*
X167385344Y-97173125D01*
X167294719Y-97082500D01*
X166515344Y-97082500D01*
X166515344Y-97102500D01*
X166510344Y-97102500D01*
X166510344Y-97082500D01*
X165730969Y-97082500D01*
X165640344Y-97173125D01*
X165640344Y-98042106D01*
X165695531Y-98175340D01*
X165766229Y-98246038D01*
X165637652Y-98555688D01*
X165637349Y-98902790D01*
X164842349Y-98902790D01*
X164842651Y-98557210D01*
X164716014Y-98250725D01*
X164740556Y-98234933D01*
X164823326Y-98113795D01*
X164852445Y-97970000D01*
X164852445Y-96190000D01*
X164838878Y-96117894D01*
X165640344Y-96117894D01*
X165640344Y-96986875D01*
X165730969Y-97077500D01*
X166510344Y-97077500D01*
X166510344Y-95918125D01*
X166515344Y-95918125D01*
X166515344Y-97077500D01*
X167294719Y-97077500D01*
X167385344Y-96986875D01*
X167385344Y-96190000D01*
X168173243Y-96190000D01*
X168173243Y-97970000D01*
X168198520Y-98104334D01*
X168277911Y-98227712D01*
X168305899Y-98246835D01*
X168177652Y-98555688D01*
X168177349Y-98902790D01*
X168309899Y-99223586D01*
X168555123Y-99469238D01*
X168875688Y-99602348D01*
X169222790Y-99602651D01*
X169543586Y-99470101D01*
X169789238Y-99224877D01*
X169922348Y-98904312D01*
X169922651Y-98557210D01*
X169796014Y-98250725D01*
X169820556Y-98234933D01*
X169903326Y-98113795D01*
X169932445Y-97970000D01*
X169932445Y-97719781D01*
X170065145Y-97774883D01*
X170333677Y-97775117D01*
X170581857Y-97672571D01*
X170713243Y-97541414D01*
X170713243Y-97970000D01*
X170738520Y-98104334D01*
X170817911Y-98227712D01*
X170845899Y-98246835D01*
X170717652Y-98555688D01*
X170717349Y-98902790D01*
X170849899Y-99223586D01*
X171095123Y-99469238D01*
X171415688Y-99602348D01*
X171658016Y-99602560D01*
X171597719Y-99747771D01*
X171597281Y-100250025D01*
X171658241Y-100397559D01*
X171417210Y-100397349D01*
X171096414Y-100529899D01*
X170850762Y-100775123D01*
X170717652Y-101095688D01*
X170717349Y-101442790D01*
X170845141Y-101752071D01*
X170824944Y-101765067D01*
X170742174Y-101886205D01*
X170713055Y-102030000D01*
X170713055Y-103810000D01*
X170738332Y-103944334D01*
X170817723Y-104067712D01*
X170912852Y-104132711D01*
X170728097Y-104317144D01*
X170625117Y-104565145D01*
X170624883Y-104833677D01*
X170727429Y-105081857D01*
X170917144Y-105271903D01*
X171165145Y-105374883D01*
X171433677Y-105375117D01*
X171681857Y-105272571D01*
X171871903Y-105082856D01*
X171974883Y-104834855D01*
X171975005Y-104694416D01*
X172040391Y-104596558D01*
X172077501Y-104410000D01*
X172077500Y-104409995D01*
X172077500Y-104179601D01*
X172102656Y-104179601D01*
X172236990Y-104154324D01*
X172360368Y-104074933D01*
X172443138Y-103953795D01*
X172472257Y-103810000D01*
X172472257Y-103013125D01*
X173260156Y-103013125D01*
X173260156Y-103882106D01*
X173315343Y-104015340D01*
X173417316Y-104117313D01*
X173550551Y-104172500D01*
X174039531Y-104172500D01*
X174130156Y-104081875D01*
X174130156Y-102922500D01*
X174135156Y-102922500D01*
X174135156Y-104081875D01*
X174225781Y-104172500D01*
X174714761Y-104172500D01*
X174847996Y-104117313D01*
X174949969Y-104015340D01*
X175005156Y-103882106D01*
X175005156Y-103013125D01*
X174914531Y-102922500D01*
X174135156Y-102922500D01*
X174130156Y-102922500D01*
X173350781Y-102922500D01*
X173260156Y-103013125D01*
X172472257Y-103013125D01*
X172472257Y-102030000D01*
X172446980Y-101895666D01*
X172367589Y-101772288D01*
X172335317Y-101750237D01*
X172462348Y-101444312D01*
X172462560Y-101201984D01*
X172607771Y-101262281D01*
X173110025Y-101262719D01*
X173257559Y-101201759D01*
X173257349Y-101442790D01*
X173385957Y-101754046D01*
X173315343Y-101824660D01*
X173260156Y-101957894D01*
X173260156Y-102826875D01*
X173350781Y-102917500D01*
X174130156Y-102917500D01*
X174130156Y-102897500D01*
X174135156Y-102897500D01*
X174135156Y-102917500D01*
X174914531Y-102917500D01*
X175005156Y-102826875D01*
X175005156Y-101957894D01*
X174949969Y-101824660D01*
X174875384Y-101750075D01*
X175002348Y-101444312D01*
X175002651Y-101097210D01*
X174870101Y-100776414D01*
X174624877Y-100530762D01*
X174304312Y-100397652D01*
X174061984Y-100397440D01*
X174122281Y-100252229D01*
X174122719Y-99749975D01*
X174061759Y-99602441D01*
X174302790Y-99602651D01*
X174623586Y-99470101D01*
X174869238Y-99224877D01*
X175002348Y-98904312D01*
X175002560Y-98661989D01*
X175912500Y-99571929D01*
X175912500Y-108439995D01*
X175912499Y-108440000D01*
X175949609Y-108626558D01*
X176055285Y-108784715D01*
X176330046Y-109059476D01*
X176247711Y-109257761D01*
X176247290Y-109740123D01*
X176431493Y-110185929D01*
X176772277Y-110527308D01*
X177217761Y-110712289D01*
X177700123Y-110712710D01*
X178145929Y-110528507D01*
X178362966Y-110311848D01*
X179191688Y-110311848D01*
X179275372Y-110501617D01*
X179713833Y-110702678D01*
X180195862Y-110720640D01*
X180648071Y-110552771D01*
X180724628Y-110501617D01*
X180808312Y-110311848D01*
X180000000Y-109503536D01*
X179191688Y-110311848D01*
X178362966Y-110311848D01*
X178487308Y-110187723D01*
X178672289Y-109742239D01*
X178672329Y-109695862D01*
X178779360Y-109695862D01*
X178947229Y-110148071D01*
X178998383Y-110224628D01*
X179188152Y-110308312D01*
X179996464Y-109500000D01*
X180003536Y-109500000D01*
X180811848Y-110308312D01*
X181001617Y-110224628D01*
X181202678Y-109786167D01*
X181220640Y-109304138D01*
X181052771Y-108851929D01*
X181001617Y-108775372D01*
X180811848Y-108691688D01*
X180003536Y-109500000D01*
X179996464Y-109500000D01*
X179188152Y-108691688D01*
X178998383Y-108775372D01*
X178797322Y-109213833D01*
X178779360Y-109695862D01*
X178672329Y-109695862D01*
X178672710Y-109259877D01*
X178488507Y-108814071D01*
X178362808Y-108688152D01*
X179191688Y-108688152D01*
X180000000Y-109496464D01*
X180808312Y-108688152D01*
X180724628Y-108498383D01*
X180286167Y-108297322D01*
X179804138Y-108279360D01*
X179351929Y-108447229D01*
X179275372Y-108498383D01*
X179191688Y-108688152D01*
X178362808Y-108688152D01*
X178147723Y-108472692D01*
X177702239Y-108287711D01*
X177219877Y-108287290D01*
X177019510Y-108370080D01*
X176887500Y-108238070D01*
X176887500Y-100344094D01*
X177262199Y-100344094D01*
X177526160Y-100982929D01*
X178014500Y-101472122D01*
X178652874Y-101737198D01*
X179344094Y-101737801D01*
X179982929Y-101473840D01*
X180472122Y-100985500D01*
X180737198Y-100347126D01*
X180737801Y-99655906D01*
X180473840Y-99017071D01*
X179985500Y-98527878D01*
X179347126Y-98262802D01*
X178655906Y-98262199D01*
X178017071Y-98526160D01*
X177527878Y-99014500D01*
X177262802Y-99652874D01*
X177262199Y-100344094D01*
X176887500Y-100344094D01*
X176887500Y-99370005D01*
X176887501Y-99370000D01*
X176850391Y-99183442D01*
X176744715Y-99025285D01*
X176744712Y-99025283D01*
X175012445Y-97293015D01*
X175012445Y-96190000D01*
X174987168Y-96055666D01*
X174907777Y-95932288D01*
X174786639Y-95849518D01*
X174642844Y-95820399D01*
X173622844Y-95820399D01*
X173488510Y-95845676D01*
X173365132Y-95925067D01*
X173282362Y-96046205D01*
X173253243Y-96190000D01*
X173253243Y-96598607D01*
X173182856Y-96528097D01*
X172934855Y-96425117D01*
X172666323Y-96424883D01*
X172472445Y-96504992D01*
X172472445Y-96190000D01*
X172447168Y-96055666D01*
X172367777Y-95932288D01*
X172246639Y-95849518D01*
X172102844Y-95820399D01*
X171082844Y-95820399D01*
X170948510Y-95845676D01*
X170825132Y-95925067D01*
X170742362Y-96046205D01*
X170713243Y-96190000D01*
X170713243Y-96658711D01*
X170582856Y-96528097D01*
X170334855Y-96425117D01*
X170066323Y-96424883D01*
X169932445Y-96480200D01*
X169932445Y-96190000D01*
X169907168Y-96055666D01*
X169827777Y-95932288D01*
X169706639Y-95849518D01*
X169562844Y-95820399D01*
X168542844Y-95820399D01*
X168408510Y-95845676D01*
X168285132Y-95925067D01*
X168202362Y-96046205D01*
X168173243Y-96190000D01*
X167385344Y-96190000D01*
X167385344Y-96117894D01*
X167330157Y-95984660D01*
X167228184Y-95882687D01*
X167094949Y-95827500D01*
X166605969Y-95827500D01*
X166515344Y-95918125D01*
X166510344Y-95918125D01*
X166419719Y-95827500D01*
X165930739Y-95827500D01*
X165797504Y-95882687D01*
X165695531Y-95984660D01*
X165640344Y-96117894D01*
X164838878Y-96117894D01*
X164827168Y-96055666D01*
X164747777Y-95932288D01*
X164626639Y-95849518D01*
X164482844Y-95820399D01*
X163462844Y-95820399D01*
X163328510Y-95845676D01*
X163205132Y-95925067D01*
X163122362Y-96046205D01*
X163093243Y-96190000D01*
X162305344Y-96190000D01*
X162305344Y-96117894D01*
X162250157Y-95984660D01*
X162148184Y-95882687D01*
X162014949Y-95827500D01*
X161525969Y-95827500D01*
X161435344Y-95918125D01*
X161430344Y-95918125D01*
X161339719Y-95827500D01*
X160850739Y-95827500D01*
X160717504Y-95882687D01*
X160615531Y-95984660D01*
X160560344Y-96117894D01*
X159758878Y-96117894D01*
X159747168Y-96055666D01*
X159667777Y-95932288D01*
X159546639Y-95849518D01*
X159402844Y-95820399D01*
X158382844Y-95820399D01*
X158248510Y-95845676D01*
X158125132Y-95925067D01*
X158042362Y-96046205D01*
X158013243Y-96190000D01*
X157232445Y-96190000D01*
X157207168Y-96055666D01*
X157127777Y-95932288D01*
X157006639Y-95849518D01*
X156862844Y-95820399D01*
X155842844Y-95820399D01*
X155708510Y-95845676D01*
X155585132Y-95925067D01*
X155502362Y-96046205D01*
X155473243Y-96190000D01*
X154692445Y-96190000D01*
X154667168Y-96055666D01*
X154587777Y-95932288D01*
X154466639Y-95849518D01*
X154322844Y-95820399D01*
X153302844Y-95820399D01*
X153168510Y-95845676D01*
X153045132Y-95925067D01*
X152962362Y-96046205D01*
X152933243Y-96190000D01*
X152152445Y-96190000D01*
X152127168Y-96055666D01*
X152047777Y-95932288D01*
X151926639Y-95849518D01*
X151782844Y-95820399D01*
X150762844Y-95820399D01*
X150628510Y-95845676D01*
X150505132Y-95925067D01*
X150422362Y-96046205D01*
X150393243Y-96190000D01*
X149605344Y-96190000D01*
X149605344Y-96117894D01*
X149550157Y-95984660D01*
X149448184Y-95882687D01*
X149314949Y-95827500D01*
X148825969Y-95827500D01*
X148735344Y-95918125D01*
X148730344Y-95918125D01*
X148639719Y-95827500D01*
X148150739Y-95827500D01*
X148017504Y-95882687D01*
X147915531Y-95984660D01*
X147860344Y-96117894D01*
X147058878Y-96117894D01*
X147047168Y-96055666D01*
X146967777Y-95932288D01*
X146846639Y-95849518D01*
X146702844Y-95820399D01*
X145682844Y-95820399D01*
X145548510Y-95845676D01*
X145425132Y-95925067D01*
X145342362Y-96046205D01*
X145313243Y-96190000D01*
X144532445Y-96190000D01*
X144507168Y-96055666D01*
X144427777Y-95932288D01*
X144306639Y-95849518D01*
X144162844Y-95820399D01*
X143142844Y-95820399D01*
X143008510Y-95845676D01*
X142885132Y-95925067D01*
X142802362Y-96046205D01*
X142773243Y-96190000D01*
X141985344Y-96190000D01*
X141985344Y-96117894D01*
X141930157Y-95984660D01*
X141828184Y-95882687D01*
X141694949Y-95827500D01*
X141205969Y-95827500D01*
X141115344Y-95918125D01*
X141110344Y-95918125D01*
X141019719Y-95827500D01*
X140530739Y-95827500D01*
X140397504Y-95882687D01*
X140295531Y-95984660D01*
X140240344Y-96117894D01*
X139438878Y-96117894D01*
X139427168Y-96055666D01*
X139347777Y-95932288D01*
X139226639Y-95849518D01*
X139082844Y-95820399D01*
X138062844Y-95820399D01*
X137928510Y-95845676D01*
X137805132Y-95925067D01*
X137722362Y-96046205D01*
X137693243Y-96190000D01*
X136912445Y-96190000D01*
X136887168Y-96055666D01*
X136807777Y-95932288D01*
X136686639Y-95849518D01*
X136542844Y-95820399D01*
X135522844Y-95820399D01*
X135388510Y-95845676D01*
X135265132Y-95925067D01*
X135182362Y-96046205D01*
X135153243Y-96190000D01*
X134372445Y-96190000D01*
X134347168Y-96055666D01*
X134267777Y-95932288D01*
X134146639Y-95849518D01*
X134002844Y-95820399D01*
X132982844Y-95820399D01*
X132848510Y-95845676D01*
X132725132Y-95925067D01*
X132642362Y-96046205D01*
X132613243Y-96190000D01*
X131825344Y-96190000D01*
X131825344Y-96117894D01*
X131770157Y-95984660D01*
X131668184Y-95882687D01*
X131534949Y-95827500D01*
X131045969Y-95827500D01*
X130955344Y-95918125D01*
X130950344Y-95918125D01*
X130859719Y-95827500D01*
X130370739Y-95827500D01*
X130237504Y-95882687D01*
X130135531Y-95984660D01*
X130080344Y-96117894D01*
X129278878Y-96117894D01*
X129267168Y-96055666D01*
X129187777Y-95932288D01*
X129066639Y-95849518D01*
X128922844Y-95820399D01*
X127902844Y-95820399D01*
X127768510Y-95845676D01*
X127645132Y-95925067D01*
X127562362Y-96046205D01*
X127533243Y-96190000D01*
X127533243Y-96387500D01*
X127168193Y-96387500D01*
X127147702Y-96383424D01*
X127147697Y-96383425D01*
X126752445Y-96383425D01*
X126752445Y-96190000D01*
X126727168Y-96055666D01*
X126647777Y-95932288D01*
X126526639Y-95849518D01*
X126382844Y-95820399D01*
X125362844Y-95820399D01*
X125228510Y-95845676D01*
X125105132Y-95925067D01*
X125022362Y-96046205D01*
X124993243Y-96190000D01*
X124993243Y-97970000D01*
X125018520Y-98104334D01*
X125097911Y-98227712D01*
X125125899Y-98246835D01*
X124997652Y-98555688D01*
X124997349Y-98902790D01*
X125129899Y-99223586D01*
X125375123Y-99469238D01*
X125695688Y-99602348D01*
X125938016Y-99602560D01*
X125877719Y-99747771D01*
X125877281Y-100250025D01*
X125938241Y-100397559D01*
X125697210Y-100397349D01*
X125376414Y-100529899D01*
X125130762Y-100775123D01*
X124997652Y-101095688D01*
X124997349Y-101442790D01*
X125125141Y-101752071D01*
X125104944Y-101765067D01*
X125022174Y-101886205D01*
X124993055Y-102030000D01*
X118387500Y-102030000D01*
X118387500Y-100344094D01*
X119262199Y-100344094D01*
X119526160Y-100982929D01*
X120014500Y-101472122D01*
X120652874Y-101737198D01*
X121344094Y-101737801D01*
X121982929Y-101473840D01*
X122472122Y-100985500D01*
X122737198Y-100347126D01*
X122737801Y-99655906D01*
X122473840Y-99017071D01*
X121985500Y-98527878D01*
X121347126Y-98262802D01*
X120655906Y-98262199D01*
X120017071Y-98526160D01*
X119527878Y-99014500D01*
X119262802Y-99652874D01*
X119262199Y-100344094D01*
X118387500Y-100344094D01*
X118387500Y-93624424D01*
X137737726Y-93624424D01*
X138120027Y-93988552D01*
X139391577Y-94403960D01*
X140725305Y-94301146D01*
X141479973Y-93988552D01*
X141862274Y-93624424D01*
X139800000Y-91562150D01*
X137737726Y-93624424D01*
X118387500Y-93624424D01*
X118387500Y-92531201D01*
X124737385Y-92531201D01*
X124838032Y-92774786D01*
X125024234Y-92961313D01*
X125267642Y-93062385D01*
X125531201Y-93062615D01*
X125774786Y-92961968D01*
X125961313Y-92775766D01*
X126062385Y-92532358D01*
X126062508Y-92391566D01*
X127491574Y-90962500D01*
X127925593Y-90962500D01*
X128024234Y-91061313D01*
X128267642Y-91162385D01*
X128531201Y-91162615D01*
X128774786Y-91061968D01*
X128961313Y-90875766D01*
X129062385Y-90632358D01*
X129062420Y-90591577D01*
X136396040Y-90591577D01*
X136498854Y-91925305D01*
X136811448Y-92679973D01*
X137175576Y-93062274D01*
X139237850Y-91000000D01*
X140362150Y-91000000D01*
X142424424Y-93062274D01*
X142788552Y-92679973D01*
X143119841Y-91665908D01*
X143636918Y-91665908D01*
X144147749Y-92902215D01*
X145092810Y-93848926D01*
X146328223Y-94361915D01*
X147665908Y-94363082D01*
X148902215Y-93852251D01*
X149848926Y-92907190D01*
X150361915Y-91671777D01*
X150361920Y-91665908D01*
X165636918Y-91665908D01*
X166147749Y-92902215D01*
X167092810Y-93848926D01*
X168328223Y-94361915D01*
X169665908Y-94363082D01*
X170902215Y-93852251D01*
X171130439Y-93624424D01*
X174137726Y-93624424D01*
X174520027Y-93988552D01*
X175791577Y-94403960D01*
X177125305Y-94301146D01*
X177879973Y-93988552D01*
X178262274Y-93624424D01*
X176200000Y-91562150D01*
X174137726Y-93624424D01*
X171130439Y-93624424D01*
X171848926Y-92907190D01*
X172361915Y-91671777D01*
X172362857Y-90591577D01*
X172796040Y-90591577D01*
X172898854Y-91925305D01*
X173211448Y-92679973D01*
X173575576Y-93062274D01*
X175637850Y-91000000D01*
X176762150Y-91000000D01*
X178824424Y-93062274D01*
X179188552Y-92679973D01*
X179603960Y-91408423D01*
X179501146Y-90074695D01*
X179188552Y-89320027D01*
X178824424Y-88937726D01*
X176762150Y-91000000D01*
X175637850Y-91000000D01*
X173575576Y-88937726D01*
X173211448Y-89320027D01*
X172796040Y-90591577D01*
X172362857Y-90591577D01*
X172363082Y-90334092D01*
X171852251Y-89097785D01*
X171131301Y-88375576D01*
X174137726Y-88375576D01*
X176200000Y-90437850D01*
X178262274Y-88375576D01*
X177879973Y-88011448D01*
X176608423Y-87596040D01*
X175274695Y-87698854D01*
X174520027Y-88011448D01*
X174137726Y-88375576D01*
X171131301Y-88375576D01*
X170907190Y-88151074D01*
X169671777Y-87638085D01*
X168334092Y-87636918D01*
X167097785Y-88147749D01*
X166151074Y-89092810D01*
X165638085Y-90328223D01*
X165636918Y-91665908D01*
X150361920Y-91665908D01*
X150363082Y-90334092D01*
X149852251Y-89097785D01*
X148907190Y-88151074D01*
X147671777Y-87638085D01*
X146334092Y-87636918D01*
X145097785Y-88147749D01*
X144151074Y-89092810D01*
X143638085Y-90328223D01*
X143636918Y-91665908D01*
X143119841Y-91665908D01*
X143203960Y-91408423D01*
X143101146Y-90074695D01*
X142788552Y-89320027D01*
X142424424Y-88937726D01*
X140362150Y-91000000D01*
X139237850Y-91000000D01*
X137175576Y-88937726D01*
X136811448Y-89320027D01*
X136396040Y-90591577D01*
X129062420Y-90591577D01*
X129062615Y-90368799D01*
X128961968Y-90125214D01*
X128775766Y-89938687D01*
X128532358Y-89837615D01*
X128268799Y-89837385D01*
X128025214Y-89938032D01*
X127925572Y-90037500D01*
X127491574Y-90037500D01*
X127162500Y-89708426D01*
X127162500Y-88375576D01*
X137737726Y-88375576D01*
X139800000Y-90437850D01*
X141862274Y-88375576D01*
X141479973Y-88011448D01*
X140208423Y-87596040D01*
X138874695Y-87698854D01*
X138120027Y-88011448D01*
X137737726Y-88375576D01*
X127162500Y-88375576D01*
X127162500Y-85991574D01*
X127391574Y-85762500D01*
X128125593Y-85762500D01*
X128224234Y-85861313D01*
X128467642Y-85962385D01*
X128731201Y-85962615D01*
X128974786Y-85861968D01*
X129161313Y-85675766D01*
X129262385Y-85432358D01*
X129262615Y-85168799D01*
X129161968Y-84925214D01*
X128975766Y-84738687D01*
X128732358Y-84637615D01*
X128468799Y-84637385D01*
X128225214Y-84738032D01*
X128125572Y-84837500D01*
X127200000Y-84837500D01*
X127023009Y-84872706D01*
X126872963Y-84972963D01*
X126372963Y-85472963D01*
X126272706Y-85623009D01*
X126237500Y-85800000D01*
X126237500Y-89900000D01*
X126272706Y-90076991D01*
X126372963Y-90227037D01*
X126645926Y-90500000D01*
X125408419Y-91737507D01*
X125268799Y-91737385D01*
X125025214Y-91838032D01*
X124838687Y-92024234D01*
X124737615Y-92267642D01*
X124737385Y-92531201D01*
X118387500Y-92531201D01*
X118387500Y-83387500D01*
X181612500Y-83387500D01*
X181612500Y-116612500D01*
M02*
