M48
METRIC,TZ
T1C0.254
T2C0.260
T3C0.305
T4C1.000
T5C4.000
T6C4.400
T7C1.020
T8C1.800
T9C2.750
%
G90
G05
T1
X128600Y-85300
T2
X125400Y-92400
X127800Y-87500
X127800Y-88500
X128300Y-88000
X128400Y-90500
X128800Y-87500
X128800Y-88500
T3
X120200Y-93000
X120200Y-94000
X120203Y-94996
X120700Y-95600
X121600Y-95600
X122500Y-95600
X127154Y-97102
X128000Y-107350
X128800Y-105400
X130100Y-110200
X131200Y-104600
X133600Y-88600
X133600Y-89400
X133600Y-90300
X135913Y-110817
X143200Y-112700
X146209Y-104521
X149000Y-108000
X149000Y-110000
X153000Y-107000
X153000Y-109000
X153000Y-111000
X159000Y-110000
X163536Y-104802
X167685Y-106083
X170200Y-97100
X171300Y-104700
X172800Y-97100
T4
X120520Y-114500
X123060Y-114500
X125600Y-114500
X128140Y-114500
X145460Y-115000
X148000Y-115000
X150540Y-115000
X154460Y-115000
X157000Y-115000
X159540Y-115000
X164780Y-115000
X167320Y-115000
X169840Y-109500
X169860Y-115000
X172380Y-109500
X172400Y-115000
X174920Y-109500
X174940Y-115000
X177460Y-109500
X177480Y-115000
X180000Y-109500
X180020Y-115000
T5
X139800Y-91000
X147000Y-91000
T6
X169000Y-91000
X176200Y-91000
T7
X125870Y-98730
X125870Y-101270
X128410Y-98730
X128410Y-101270
X130950Y-98730
X130950Y-101270
X133490Y-98730
X133490Y-101270
X136030Y-98730
X136030Y-101270
X138570Y-98730
X138570Y-101270
X141110Y-98730
X141110Y-101270
X143650Y-98730
X143650Y-101270
X146190Y-98730
X146190Y-101270
X148730Y-98730
X148730Y-101270
X151270Y-98730
X151270Y-101270
X153810Y-98730
X153810Y-101270
X156350Y-98730
X156350Y-101270
X158890Y-98730
X158890Y-101270
X161430Y-98730
X161430Y-101270
X163970Y-98730
X163970Y-101270
X166510Y-98730
X166510Y-101270
X169050Y-98730
X169050Y-101270
X171590Y-98730
X171590Y-101270
X174130Y-98730
X174130Y-101270
T8
X127140Y-100000
X172860Y-100000
T9
X121000Y-100000
X179000Y-100000
T0
M30
