G04 #@! TF.FileFunction,Legend,Top*
%FSLAX46Y46*%
G04 Gerber Fmt 4.6, Leading zero omitted, Abs format (unit mm)*
G04 Created by KiCad (PCBNEW 4.0.7-e2-6376~58~ubuntu16.04.1) date Tue Jul 10 13:30:19 2018*
%MOMM*%
%LPD*%
G01*
G04 APERTURE LIST*
%ADD10C,0.050000*%
%ADD11C,0.175000*%
%ADD12C,0.187500*%
%ADD13C,0.100000*%
%ADD14C,0.300000*%
%ADD15C,0.250000*%
%ADD16C,0.375000*%
%ADD17C,0.176389*%
G04 APERTURE END LIST*
D10*
D11*
X150566667Y-112450000D02*
X150500001Y-112416667D01*
X150400001Y-112416667D01*
X150300001Y-112450000D01*
X150233334Y-112516667D01*
X150200001Y-112583333D01*
X150166667Y-112716667D01*
X150166667Y-112816667D01*
X150200001Y-112950000D01*
X150233334Y-113016667D01*
X150300001Y-113083333D01*
X150400001Y-113116667D01*
X150466667Y-113116667D01*
X150566667Y-113083333D01*
X150600001Y-113050000D01*
X150600001Y-112816667D01*
X150466667Y-112816667D01*
X150900001Y-113116667D02*
X150900001Y-112416667D01*
X151300001Y-113116667D01*
X151300001Y-112416667D01*
X151633334Y-113116667D02*
X151633334Y-112416667D01*
X151800000Y-112416667D01*
X151900000Y-112450000D01*
X151966667Y-112516667D01*
X152000000Y-112583333D01*
X152033334Y-112716667D01*
X152033334Y-112816667D01*
X152000000Y-112950000D01*
X151966667Y-113016667D01*
X151900000Y-113083333D01*
X151800000Y-113116667D01*
X151633334Y-113116667D01*
X159466667Y-112350000D02*
X159400001Y-112316667D01*
X159300001Y-112316667D01*
X159200001Y-112350000D01*
X159133334Y-112416667D01*
X159100001Y-112483333D01*
X159066667Y-112616667D01*
X159066667Y-112716667D01*
X159100001Y-112850000D01*
X159133334Y-112916667D01*
X159200001Y-112983333D01*
X159300001Y-113016667D01*
X159366667Y-113016667D01*
X159466667Y-112983333D01*
X159500001Y-112950000D01*
X159500001Y-112716667D01*
X159366667Y-112716667D01*
X159800001Y-113016667D02*
X159800001Y-112316667D01*
X160200001Y-113016667D01*
X160200001Y-112316667D01*
X160533334Y-113016667D02*
X160533334Y-112316667D01*
X160700000Y-112316667D01*
X160800000Y-112350000D01*
X160866667Y-112416667D01*
X160900000Y-112483333D01*
X160933334Y-112616667D01*
X160933334Y-112716667D01*
X160900000Y-112850000D01*
X160866667Y-112916667D01*
X160800000Y-112983333D01*
X160700000Y-113016667D01*
X160533334Y-113016667D01*
X168916668Y-113016667D02*
X168916668Y-112316667D01*
X169183334Y-112316667D01*
X169250001Y-112350000D01*
X169283334Y-112383333D01*
X169316668Y-112450000D01*
X169316668Y-112550000D01*
X169283334Y-112616667D01*
X169250001Y-112650000D01*
X169183334Y-112683333D01*
X168916668Y-112683333D01*
X169550001Y-112316667D02*
X169716668Y-113016667D01*
X169850001Y-112516667D01*
X169983334Y-113016667D01*
X170150001Y-112316667D01*
X170416668Y-113016667D02*
X170416668Y-112316667D01*
X170650001Y-112816667D01*
X170883334Y-112316667D01*
X170883334Y-113016667D01*
X171883334Y-112316667D02*
X172016667Y-112316667D01*
X172083334Y-112350000D01*
X172150001Y-112416667D01*
X172183334Y-112550000D01*
X172183334Y-112783333D01*
X172150001Y-112916667D01*
X172083334Y-112983333D01*
X172016667Y-113016667D01*
X171883334Y-113016667D01*
X171816667Y-112983333D01*
X171750001Y-112916667D01*
X171716667Y-112783333D01*
X171716667Y-112550000D01*
X171750001Y-112416667D01*
X171816667Y-112350000D01*
X171883334Y-112316667D01*
X172483334Y-112316667D02*
X172483334Y-112883333D01*
X172516667Y-112950000D01*
X172550000Y-112983333D01*
X172616667Y-113016667D01*
X172750000Y-113016667D01*
X172816667Y-112983333D01*
X172850000Y-112950000D01*
X172883334Y-112883333D01*
X172883334Y-112316667D01*
X173116667Y-112316667D02*
X173516667Y-112316667D01*
X173316667Y-113016667D02*
X173316667Y-112316667D01*
X173716666Y-112983333D02*
X173816666Y-113016667D01*
X173983333Y-113016667D01*
X174050000Y-112983333D01*
X174083333Y-112950000D01*
X174116666Y-112883333D01*
X174116666Y-112816667D01*
X174083333Y-112750000D01*
X174050000Y-112716667D01*
X173983333Y-112683333D01*
X173850000Y-112650000D01*
X173783333Y-112616667D01*
X173750000Y-112583333D01*
X173716666Y-112516667D01*
X173716666Y-112450000D01*
X173750000Y-112383333D01*
X173783333Y-112350000D01*
X173850000Y-112316667D01*
X174016666Y-112316667D01*
X174116666Y-112350000D01*
X179566667Y-112350000D02*
X179500001Y-112316667D01*
X179400001Y-112316667D01*
X179300001Y-112350000D01*
X179233334Y-112416667D01*
X179200001Y-112483333D01*
X179166667Y-112616667D01*
X179166667Y-112716667D01*
X179200001Y-112850000D01*
X179233334Y-112916667D01*
X179300001Y-112983333D01*
X179400001Y-113016667D01*
X179466667Y-113016667D01*
X179566667Y-112983333D01*
X179600001Y-112950000D01*
X179600001Y-112716667D01*
X179466667Y-112716667D01*
X179900001Y-113016667D02*
X179900001Y-112316667D01*
X180300001Y-113016667D01*
X180300001Y-112316667D01*
X180633334Y-113016667D02*
X180633334Y-112316667D01*
X180800000Y-112316667D01*
X180900000Y-112350000D01*
X180966667Y-112416667D01*
X181000000Y-112483333D01*
X181033334Y-112616667D01*
X181033334Y-112716667D01*
X181000000Y-112850000D01*
X180966667Y-112916667D01*
X180900000Y-112983333D01*
X180800000Y-113016667D01*
X180633334Y-113016667D01*
X169133333Y-106816667D02*
X169566666Y-106816667D01*
X169333333Y-107083333D01*
X169433333Y-107083333D01*
X169500000Y-107116667D01*
X169533333Y-107150000D01*
X169566666Y-107216667D01*
X169566666Y-107383333D01*
X169533333Y-107450000D01*
X169500000Y-107483333D01*
X169433333Y-107516667D01*
X169233333Y-107516667D01*
X169166666Y-107483333D01*
X169133333Y-107450000D01*
X169766667Y-106816667D02*
X170000000Y-107516667D01*
X170233333Y-106816667D01*
X170400000Y-106816667D02*
X170833333Y-106816667D01*
X170600000Y-107083333D01*
X170700000Y-107083333D01*
X170766667Y-107116667D01*
X170800000Y-107150000D01*
X170833333Y-107216667D01*
X170833333Y-107383333D01*
X170800000Y-107450000D01*
X170766667Y-107483333D01*
X170700000Y-107516667D01*
X170500000Y-107516667D01*
X170433333Y-107483333D01*
X170400000Y-107450000D01*
X171800001Y-107516667D02*
X171800001Y-106816667D01*
X172266667Y-106816667D02*
X172400000Y-106816667D01*
X172466667Y-106850000D01*
X172533334Y-106916667D01*
X172566667Y-107050000D01*
X172566667Y-107283333D01*
X172533334Y-107416667D01*
X172466667Y-107483333D01*
X172400000Y-107516667D01*
X172266667Y-107516667D01*
X172200000Y-107483333D01*
X172133334Y-107416667D01*
X172100000Y-107283333D01*
X172100000Y-107050000D01*
X172133334Y-106916667D01*
X172200000Y-106850000D01*
X172266667Y-106816667D01*
X173000000Y-106816667D02*
X173066667Y-106816667D01*
X173133333Y-106850000D01*
X173166667Y-106883333D01*
X173200000Y-106950000D01*
X173233333Y-107083333D01*
X173233333Y-107250000D01*
X173200000Y-107383333D01*
X173166667Y-107450000D01*
X173133333Y-107483333D01*
X173066667Y-107516667D01*
X173000000Y-107516667D01*
X172933333Y-107483333D01*
X172900000Y-107450000D01*
X172866667Y-107383333D01*
X172833333Y-107250000D01*
X172833333Y-107083333D01*
X172866667Y-106950000D01*
X172900000Y-106883333D01*
X172933333Y-106850000D01*
X173000000Y-106816667D01*
X174300001Y-107516667D02*
X174300001Y-106816667D01*
X174766667Y-106816667D02*
X174900000Y-106816667D01*
X174966667Y-106850000D01*
X175033334Y-106916667D01*
X175066667Y-107050000D01*
X175066667Y-107283333D01*
X175033334Y-107416667D01*
X174966667Y-107483333D01*
X174900000Y-107516667D01*
X174766667Y-107516667D01*
X174700000Y-107483333D01*
X174633334Y-107416667D01*
X174600000Y-107283333D01*
X174600000Y-107050000D01*
X174633334Y-106916667D01*
X174700000Y-106850000D01*
X174766667Y-106816667D01*
X175733333Y-107516667D02*
X175333333Y-107516667D01*
X175533333Y-107516667D02*
X175533333Y-106816667D01*
X175466667Y-106916667D01*
X175400000Y-106983333D01*
X175333333Y-107016667D01*
X176800001Y-107516667D02*
X176800001Y-106816667D01*
X177266667Y-106816667D02*
X177400000Y-106816667D01*
X177466667Y-106850000D01*
X177533334Y-106916667D01*
X177566667Y-107050000D01*
X177566667Y-107283333D01*
X177533334Y-107416667D01*
X177466667Y-107483333D01*
X177400000Y-107516667D01*
X177266667Y-107516667D01*
X177200000Y-107483333D01*
X177133334Y-107416667D01*
X177100000Y-107283333D01*
X177100000Y-107050000D01*
X177133334Y-106916667D01*
X177200000Y-106850000D01*
X177266667Y-106816667D01*
X177833333Y-106883333D02*
X177866667Y-106850000D01*
X177933333Y-106816667D01*
X178100000Y-106816667D01*
X178166667Y-106850000D01*
X178200000Y-106883333D01*
X178233333Y-106950000D01*
X178233333Y-107016667D01*
X178200000Y-107116667D01*
X177800000Y-107516667D01*
X178233333Y-107516667D01*
X179466667Y-106850000D02*
X179400001Y-106816667D01*
X179300001Y-106816667D01*
X179200001Y-106850000D01*
X179133334Y-106916667D01*
X179100001Y-106983333D01*
X179066667Y-107116667D01*
X179066667Y-107216667D01*
X179100001Y-107350000D01*
X179133334Y-107416667D01*
X179200001Y-107483333D01*
X179300001Y-107516667D01*
X179366667Y-107516667D01*
X179466667Y-107483333D01*
X179500001Y-107450000D01*
X179500001Y-107216667D01*
X179366667Y-107216667D01*
X179800001Y-107516667D02*
X179800001Y-106816667D01*
X180200001Y-107516667D01*
X180200001Y-106816667D01*
X180533334Y-107516667D02*
X180533334Y-106816667D01*
X180700000Y-106816667D01*
X180800000Y-106850000D01*
X180866667Y-106916667D01*
X180900000Y-106983333D01*
X180933334Y-107116667D01*
X180933334Y-107216667D01*
X180900000Y-107350000D01*
X180866667Y-107416667D01*
X180800000Y-107483333D01*
X180700000Y-107516667D01*
X180533334Y-107516667D01*
X131383335Y-103204167D02*
X131383335Y-102504167D01*
X131550001Y-102504167D01*
X131650001Y-102537500D01*
X131716668Y-102604167D01*
X131750001Y-102670833D01*
X131783335Y-102804167D01*
X131783335Y-102904167D01*
X131750001Y-103037500D01*
X131716668Y-103104167D01*
X131650001Y-103170833D01*
X131550001Y-103204167D01*
X131383335Y-103204167D01*
X132183335Y-103204167D02*
X132116668Y-103170833D01*
X132083335Y-103137500D01*
X132050001Y-103070833D01*
X132050001Y-102870833D01*
X132083335Y-102804167D01*
X132116668Y-102770833D01*
X132183335Y-102737500D01*
X132283335Y-102737500D01*
X132350001Y-102770833D01*
X132383335Y-102804167D01*
X132416668Y-102870833D01*
X132416668Y-103070833D01*
X132383335Y-103137500D01*
X132350001Y-103170833D01*
X132283335Y-103204167D01*
X132183335Y-103204167D01*
X132716668Y-102737500D02*
X132716668Y-103204167D01*
X132716668Y-102804167D02*
X132750001Y-102770833D01*
X132816668Y-102737500D01*
X132916668Y-102737500D01*
X132983334Y-102770833D01*
X133016668Y-102837500D01*
X133016668Y-103204167D01*
X133350001Y-103204167D02*
X133350001Y-102504167D01*
X133416667Y-102937500D02*
X133616667Y-103204167D01*
X133616667Y-102737500D02*
X133350001Y-103004167D01*
X134183334Y-103170833D02*
X134116668Y-103204167D01*
X133983334Y-103204167D01*
X133916668Y-103170833D01*
X133883334Y-103104167D01*
X133883334Y-102837500D01*
X133916668Y-102770833D01*
X133983334Y-102737500D01*
X134116668Y-102737500D01*
X134183334Y-102770833D01*
X134216668Y-102837500D01*
X134216668Y-102904167D01*
X133883334Y-102970833D01*
X134450001Y-102737500D02*
X134616668Y-103204167D01*
X134783334Y-102737500D02*
X134616668Y-103204167D01*
X134550001Y-103370833D01*
X134516668Y-103404167D01*
X134450001Y-103437500D01*
X135950000Y-103204167D02*
X135550000Y-103204167D01*
X135750000Y-103204167D02*
X135750000Y-102504167D01*
X135683334Y-102604167D01*
X135616667Y-102670833D01*
X135550000Y-102704167D01*
X136750001Y-102470833D02*
X136150001Y-103370833D01*
X137350000Y-103204167D02*
X136950000Y-103204167D01*
X137150000Y-103204167D02*
X137150000Y-102504167D01*
X137083334Y-102604167D01*
X137016667Y-102670833D01*
X136950000Y-102704167D01*
X137950001Y-102504167D02*
X137816667Y-102504167D01*
X137750001Y-102537500D01*
X137716667Y-102570833D01*
X137650001Y-102670833D01*
X137616667Y-102804167D01*
X137616667Y-103070833D01*
X137650001Y-103137500D01*
X137683334Y-103170833D01*
X137750001Y-103204167D01*
X137883334Y-103204167D01*
X137950001Y-103170833D01*
X137983334Y-103137500D01*
X138016667Y-103070833D01*
X138016667Y-102904167D01*
X137983334Y-102837500D01*
X137950001Y-102804167D01*
X137883334Y-102770833D01*
X137750001Y-102770833D01*
X137683334Y-102804167D01*
X137650001Y-102837500D01*
X137616667Y-102904167D01*
X138216668Y-102737500D02*
X138483334Y-102737500D01*
X138316668Y-102504167D02*
X138316668Y-103104167D01*
X138350001Y-103170833D01*
X138416668Y-103204167D01*
X138483334Y-103204167D01*
X138716668Y-103204167D02*
X138716668Y-102504167D01*
X139016668Y-103204167D02*
X139016668Y-102837500D01*
X138983334Y-102770833D01*
X138916668Y-102737500D01*
X138816668Y-102737500D01*
X138750001Y-102770833D01*
X138716668Y-102804167D01*
X139850000Y-103170833D02*
X139950000Y-103204167D01*
X140116667Y-103204167D01*
X140183334Y-103170833D01*
X140216667Y-103137500D01*
X140250000Y-103070833D01*
X140250000Y-103004167D01*
X140216667Y-102937500D01*
X140183334Y-102904167D01*
X140116667Y-102870833D01*
X139983334Y-102837500D01*
X139916667Y-102804167D01*
X139883334Y-102770833D01*
X139850000Y-102704167D01*
X139850000Y-102637500D01*
X139883334Y-102570833D01*
X139916667Y-102537500D01*
X139983334Y-102504167D01*
X140150000Y-102504167D01*
X140250000Y-102537500D01*
X140850001Y-103170833D02*
X140783334Y-103204167D01*
X140650001Y-103204167D01*
X140583334Y-103170833D01*
X140550001Y-103137500D01*
X140516667Y-103070833D01*
X140516667Y-102870833D01*
X140550001Y-102804167D01*
X140583334Y-102770833D01*
X140650001Y-102737500D01*
X140783334Y-102737500D01*
X140850001Y-102770833D01*
X141450001Y-103204167D02*
X141450001Y-102837500D01*
X141416667Y-102770833D01*
X141350001Y-102737500D01*
X141216667Y-102737500D01*
X141150001Y-102770833D01*
X141450001Y-103170833D02*
X141383334Y-103204167D01*
X141216667Y-103204167D01*
X141150001Y-103170833D01*
X141116667Y-103104167D01*
X141116667Y-103037500D01*
X141150001Y-102970833D01*
X141216667Y-102937500D01*
X141383334Y-102937500D01*
X141450001Y-102904167D01*
X141883334Y-103204167D02*
X141816667Y-103170833D01*
X141783334Y-103104167D01*
X141783334Y-102504167D01*
X142416667Y-103170833D02*
X142350001Y-103204167D01*
X142216667Y-103204167D01*
X142150001Y-103170833D01*
X142116667Y-103104167D01*
X142116667Y-102837500D01*
X142150001Y-102770833D01*
X142216667Y-102737500D01*
X142350001Y-102737500D01*
X142416667Y-102770833D01*
X142450001Y-102837500D01*
X142450001Y-102904167D01*
X142116667Y-102970833D01*
X143283334Y-103204167D02*
X143283334Y-102504167D01*
X143283334Y-102837500D02*
X143683334Y-102837500D01*
X143683334Y-103204167D02*
X143683334Y-102504167D01*
X143983333Y-103004167D02*
X144316667Y-103004167D01*
X143916667Y-103204167D02*
X144150000Y-102504167D01*
X144383333Y-103204167D01*
X144516667Y-102504167D02*
X144916667Y-102504167D01*
X144716667Y-103204167D02*
X144716667Y-102504167D01*
X133850001Y-104429167D02*
X133616667Y-104095833D01*
X133450001Y-104429167D02*
X133450001Y-103729167D01*
X133716667Y-103729167D01*
X133783334Y-103762500D01*
X133816667Y-103795833D01*
X133850001Y-103862500D01*
X133850001Y-103962500D01*
X133816667Y-104029167D01*
X133783334Y-104062500D01*
X133716667Y-104095833D01*
X133450001Y-104095833D01*
X134416667Y-104395833D02*
X134350001Y-104429167D01*
X134216667Y-104429167D01*
X134150001Y-104395833D01*
X134116667Y-104329167D01*
X134116667Y-104062500D01*
X134150001Y-103995833D01*
X134216667Y-103962500D01*
X134350001Y-103962500D01*
X134416667Y-103995833D01*
X134450001Y-104062500D01*
X134450001Y-104129167D01*
X134116667Y-104195833D01*
X134683334Y-103962500D02*
X134850001Y-104429167D01*
X135016667Y-103962500D01*
X135416667Y-103729167D02*
X135483334Y-103729167D01*
X135550000Y-103762500D01*
X135583334Y-103795833D01*
X135616667Y-103862500D01*
X135650000Y-103995833D01*
X135650000Y-104162500D01*
X135616667Y-104295833D01*
X135583334Y-104362500D01*
X135550000Y-104395833D01*
X135483334Y-104429167D01*
X135416667Y-104429167D01*
X135350000Y-104395833D01*
X135316667Y-104362500D01*
X135283334Y-104295833D01*
X135250000Y-104162500D01*
X135250000Y-103995833D01*
X135283334Y-103862500D01*
X135316667Y-103795833D01*
X135350000Y-103762500D01*
X135416667Y-103729167D01*
X135950001Y-104362500D02*
X135983334Y-104395833D01*
X135950001Y-104429167D01*
X135916667Y-104395833D01*
X135950001Y-104362500D01*
X135950001Y-104429167D01*
X136650000Y-104429167D02*
X136250000Y-104429167D01*
X136450000Y-104429167D02*
X136450000Y-103729167D01*
X136383334Y-103829167D01*
X136316667Y-103895833D01*
X136250000Y-103929167D01*
X136983334Y-104395833D02*
X136983334Y-104429167D01*
X136950001Y-104495833D01*
X136916667Y-104529167D01*
X138016667Y-103729167D02*
X138016667Y-104229167D01*
X137983333Y-104329167D01*
X137916667Y-104395833D01*
X137816667Y-104429167D01*
X137750000Y-104429167D01*
X138650000Y-103962500D02*
X138650000Y-104429167D01*
X138350000Y-103962500D02*
X138350000Y-104329167D01*
X138383333Y-104395833D01*
X138450000Y-104429167D01*
X138550000Y-104429167D01*
X138616666Y-104395833D01*
X138650000Y-104362500D01*
X139083333Y-104429167D02*
X139016666Y-104395833D01*
X138983333Y-104329167D01*
X138983333Y-103729167D01*
X139283333Y-103962500D02*
X139450000Y-104429167D01*
X139616666Y-103962500D02*
X139450000Y-104429167D01*
X139383333Y-104595833D01*
X139350000Y-104629167D01*
X139283333Y-104662500D01*
X140383332Y-103795833D02*
X140416666Y-103762500D01*
X140483332Y-103729167D01*
X140649999Y-103729167D01*
X140716666Y-103762500D01*
X140749999Y-103795833D01*
X140783332Y-103862500D01*
X140783332Y-103929167D01*
X140749999Y-104029167D01*
X140349999Y-104429167D01*
X140783332Y-104429167D01*
X141216666Y-103729167D02*
X141283333Y-103729167D01*
X141349999Y-103762500D01*
X141383333Y-103795833D01*
X141416666Y-103862500D01*
X141449999Y-103995833D01*
X141449999Y-104162500D01*
X141416666Y-104295833D01*
X141383333Y-104362500D01*
X141349999Y-104395833D01*
X141283333Y-104429167D01*
X141216666Y-104429167D01*
X141149999Y-104395833D01*
X141116666Y-104362500D01*
X141083333Y-104295833D01*
X141049999Y-104162500D01*
X141049999Y-103995833D01*
X141083333Y-103862500D01*
X141116666Y-103795833D01*
X141149999Y-103762500D01*
X141216666Y-103729167D01*
X142116666Y-104429167D02*
X141716666Y-104429167D01*
X141916666Y-104429167D02*
X141916666Y-103729167D01*
X141850000Y-103829167D01*
X141783333Y-103895833D01*
X141716666Y-103929167D01*
X142516667Y-104029167D02*
X142450000Y-103995833D01*
X142416667Y-103962500D01*
X142383333Y-103895833D01*
X142383333Y-103862500D01*
X142416667Y-103795833D01*
X142450000Y-103762500D01*
X142516667Y-103729167D01*
X142650000Y-103729167D01*
X142716667Y-103762500D01*
X142750000Y-103795833D01*
X142783333Y-103862500D01*
X142783333Y-103895833D01*
X142750000Y-103962500D01*
X142716667Y-103995833D01*
X142650000Y-104029167D01*
X142516667Y-104029167D01*
X142450000Y-104062500D01*
X142416667Y-104095833D01*
X142383333Y-104162500D01*
X142383333Y-104295833D01*
X142416667Y-104362500D01*
X142450000Y-104395833D01*
X142516667Y-104429167D01*
X142650000Y-104429167D01*
X142716667Y-104395833D01*
X142750000Y-104362500D01*
X142783333Y-104295833D01*
X142783333Y-104162500D01*
X142750000Y-104095833D01*
X142716667Y-104062500D01*
X142650000Y-104029167D01*
D12*
X119167857Y-111425000D02*
X119096428Y-111389286D01*
X118989285Y-111389286D01*
X118882142Y-111425000D01*
X118810714Y-111496429D01*
X118774999Y-111567857D01*
X118739285Y-111710714D01*
X118739285Y-111817857D01*
X118774999Y-111960714D01*
X118810714Y-112032143D01*
X118882142Y-112103571D01*
X118989285Y-112139286D01*
X119060714Y-112139286D01*
X119167857Y-112103571D01*
X119203571Y-112067857D01*
X119203571Y-111817857D01*
X119060714Y-111817857D01*
X119524999Y-112139286D02*
X119524999Y-111389286D01*
X119953571Y-112139286D01*
X119953571Y-111389286D01*
X120310713Y-112139286D02*
X120310713Y-111389286D01*
X120489285Y-111389286D01*
X120596428Y-111425000D01*
X120667856Y-111496429D01*
X120703571Y-111567857D01*
X120739285Y-111710714D01*
X120739285Y-111817857D01*
X120703571Y-111960714D01*
X120667856Y-112032143D01*
X120596428Y-112103571D01*
X120489285Y-112139286D01*
X120310713Y-112139286D01*
X121989285Y-111389286D02*
X121632142Y-111389286D01*
X121596428Y-111746429D01*
X121632142Y-111710714D01*
X121703571Y-111675000D01*
X121882142Y-111675000D01*
X121953571Y-111710714D01*
X121989285Y-111746429D01*
X122025000Y-111817857D01*
X122025000Y-111996429D01*
X121989285Y-112067857D01*
X121953571Y-112103571D01*
X121882142Y-112139286D01*
X121703571Y-112139286D01*
X121632142Y-112103571D01*
X121596428Y-112067857D01*
X122346428Y-112067857D02*
X122382143Y-112103571D01*
X122346428Y-112139286D01*
X122310714Y-112103571D01*
X122346428Y-112067857D01*
X122346428Y-112139286D01*
X122846429Y-111389286D02*
X122917857Y-111389286D01*
X122989286Y-111425000D01*
X123025000Y-111460714D01*
X123060714Y-111532143D01*
X123096429Y-111675000D01*
X123096429Y-111853571D01*
X123060714Y-111996429D01*
X123025000Y-112067857D01*
X122989286Y-112103571D01*
X122917857Y-112139286D01*
X122846429Y-112139286D01*
X122775000Y-112103571D01*
X122739286Y-112067857D01*
X122703571Y-111996429D01*
X122667857Y-111853571D01*
X122667857Y-111675000D01*
X122703571Y-111532143D01*
X122739286Y-111460714D01*
X122775000Y-111425000D01*
X122846429Y-111389286D01*
X123310715Y-111389286D02*
X123560715Y-112139286D01*
X123810715Y-111389286D01*
X124596429Y-112103571D02*
X124703572Y-112139286D01*
X124882143Y-112139286D01*
X124953572Y-112103571D01*
X124989286Y-112067857D01*
X125025001Y-111996429D01*
X125025001Y-111925000D01*
X124989286Y-111853571D01*
X124953572Y-111817857D01*
X124882143Y-111782143D01*
X124739286Y-111746429D01*
X124667858Y-111710714D01*
X124632143Y-111675000D01*
X124596429Y-111603571D01*
X124596429Y-111532143D01*
X124632143Y-111460714D01*
X124667858Y-111425000D01*
X124739286Y-111389286D01*
X124917858Y-111389286D01*
X125025001Y-111425000D01*
X125346429Y-112139286D02*
X125346429Y-111389286D01*
X125525001Y-111389286D01*
X125632144Y-111425000D01*
X125703572Y-111496429D01*
X125739287Y-111567857D01*
X125775001Y-111710714D01*
X125775001Y-111817857D01*
X125739287Y-111960714D01*
X125703572Y-112032143D01*
X125632144Y-112103571D01*
X125525001Y-112139286D01*
X125346429Y-112139286D01*
X126060715Y-111925000D02*
X126417858Y-111925000D01*
X125989287Y-112139286D02*
X126239287Y-111389286D01*
X126489287Y-112139286D01*
X127275001Y-112103571D02*
X127382144Y-112139286D01*
X127560715Y-112139286D01*
X127632144Y-112103571D01*
X127667858Y-112067857D01*
X127703573Y-111996429D01*
X127703573Y-111925000D01*
X127667858Y-111853571D01*
X127632144Y-111817857D01*
X127560715Y-111782143D01*
X127417858Y-111746429D01*
X127346430Y-111710714D01*
X127310715Y-111675000D01*
X127275001Y-111603571D01*
X127275001Y-111532143D01*
X127310715Y-111460714D01*
X127346430Y-111425000D01*
X127417858Y-111389286D01*
X127596430Y-111389286D01*
X127703573Y-111425000D01*
X128453573Y-112067857D02*
X128417859Y-112103571D01*
X128310716Y-112139286D01*
X128239287Y-112139286D01*
X128132144Y-112103571D01*
X128060716Y-112032143D01*
X128025001Y-111960714D01*
X127989287Y-111817857D01*
X127989287Y-111710714D01*
X128025001Y-111567857D01*
X128060716Y-111496429D01*
X128132144Y-111425000D01*
X128239287Y-111389286D01*
X128310716Y-111389286D01*
X128417859Y-111425000D01*
X128453573Y-111460714D01*
X129132144Y-112139286D02*
X128775001Y-112139286D01*
X128775001Y-111389286D01*
D13*
X137400000Y-87000000D02*
X135400000Y-89750000D01*
X135400000Y-89750000D02*
X135400000Y-92250000D01*
X135400000Y-92250000D02*
X137400000Y-95000000D01*
X137400000Y-95000000D02*
X151700000Y-95000000D01*
X151700000Y-95000000D02*
X151700000Y-87000000D01*
X151700000Y-87000000D02*
X137400000Y-87000000D01*
D14*
X119330000Y-116000000D02*
X129330000Y-116000000D01*
X119330000Y-113000000D02*
X119330000Y-116000000D01*
X129330000Y-113000000D02*
X119330000Y-113000000D01*
X129330000Y-116000000D02*
X129330000Y-113000000D01*
X133400000Y-93900000D02*
X133400000Y-90900000D01*
X132400000Y-93900000D02*
X133400000Y-93900000D01*
X132400000Y-90900000D02*
X132400000Y-93900000D01*
X133400000Y-90900000D02*
X132400000Y-90900000D01*
X131900000Y-93900000D02*
X131900000Y-90900000D01*
X130900000Y-93900000D02*
X131900000Y-93900000D01*
X130900000Y-90900000D02*
X130900000Y-93900000D01*
X131900000Y-90900000D02*
X130900000Y-90900000D01*
X130000000Y-90900000D02*
X129000000Y-90900000D01*
X130000000Y-93900000D02*
X130000000Y-90900000D01*
X129000000Y-93900000D02*
X130000000Y-93900000D01*
X129000000Y-90900000D02*
X129000000Y-93900000D01*
X127500000Y-93900000D02*
X128500000Y-93900000D01*
X127500000Y-90900000D02*
X127500000Y-93900000D01*
X128500000Y-90900000D02*
X127500000Y-90900000D01*
X128500000Y-93900000D02*
X128500000Y-90900000D01*
X126000000Y-93900000D02*
X127000000Y-93900000D01*
X126000000Y-90900000D02*
X126000000Y-93900000D01*
X127000000Y-90900000D02*
X126000000Y-90900000D01*
X127000000Y-93900000D02*
X127000000Y-90900000D01*
X168420000Y-111000000D02*
X168420000Y-108000000D01*
X181420000Y-111000000D02*
X168420000Y-111000000D01*
X181420000Y-108000000D02*
X181420000Y-111000000D01*
X168420000Y-108000000D02*
X181420000Y-108000000D01*
X163400000Y-116500000D02*
X181400000Y-116500000D01*
X163400000Y-113500000D02*
X163400000Y-116500000D01*
X181400000Y-113500000D02*
X163400000Y-113500000D01*
X181400000Y-116500000D02*
X181400000Y-113500000D01*
X153000000Y-116500000D02*
X161000000Y-116500000D01*
X153000000Y-113500000D02*
X153000000Y-116500000D01*
X161000000Y-113500000D02*
X153000000Y-113500000D01*
X161000000Y-116500000D02*
X161000000Y-113500000D01*
X144000000Y-116500000D02*
X152000000Y-116500000D01*
X144000000Y-113500000D02*
X144000000Y-116500000D01*
X152000000Y-113500000D02*
X144000000Y-113500000D01*
X152000000Y-116500000D02*
X152000000Y-113500000D01*
X120000000Y-92000000D02*
X120000000Y-86000000D01*
X126000000Y-92000000D02*
X120000000Y-92000000D01*
X126000000Y-86000000D02*
X126000000Y-92000000D01*
X120000000Y-86000000D02*
X126000000Y-86000000D01*
X133600000Y-114600000D02*
G75*
G03X133600000Y-114600000I-200000J0D01*
G01*
X133000000Y-106000000D02*
X133000000Y-114000000D01*
X143000000Y-106000000D02*
X133000000Y-106000000D01*
X143000000Y-114000000D02*
X143000000Y-106000000D01*
X133000000Y-114000000D02*
X143000000Y-114000000D01*
X130500000Y-106500000D02*
X130500000Y-109500000D01*
X132500000Y-106500000D02*
X130500000Y-106500000D01*
X132500000Y-109500000D02*
X132500000Y-106500000D01*
X130500000Y-109500000D02*
X132500000Y-109500000D01*
X130000000Y-106500000D02*
X130000000Y-109500000D01*
X128000000Y-106500000D02*
X130000000Y-106500000D01*
X128000000Y-109500000D02*
X128000000Y-106500000D01*
X130000000Y-109500000D02*
X128000000Y-109500000D01*
X162738000Y-108274000D02*
X162738000Y-105226000D01*
X164262000Y-108274000D02*
X162738000Y-108274000D01*
X164262000Y-105226000D02*
X164262000Y-108274000D01*
X162738000Y-105226000D02*
X164262000Y-105226000D01*
X131000000Y-90500000D02*
X131000000Y-85500000D01*
X133000000Y-90500000D02*
X131000000Y-90500000D01*
X133000000Y-85500000D02*
X133000000Y-90500000D01*
X131000000Y-85500000D02*
X133000000Y-85500000D01*
X127100000Y-86900000D02*
X126800000Y-86900000D01*
X127100000Y-86100000D02*
X127100000Y-86900000D01*
X126800000Y-86100000D02*
X127100000Y-86100000D01*
X126800000Y-86900000D02*
X126800000Y-86100000D01*
X126500000Y-86900000D02*
X126800000Y-86900000D01*
X126500000Y-86200000D02*
X126500000Y-86900000D01*
X125841421Y-87000000D02*
G75*
G03X125841421Y-87000000I-141421J0D01*
G01*
X130300000Y-86000000D02*
X126300000Y-86000000D01*
X130300000Y-90000000D02*
X130300000Y-86000000D01*
X126300000Y-90000000D02*
X130300000Y-90000000D01*
X126300000Y-86000000D02*
X126300000Y-90000000D01*
X120500000Y-95000000D02*
X125500000Y-95000000D01*
X120500000Y-93000000D02*
X120500000Y-95000000D01*
X125500000Y-93000000D02*
X120500000Y-93000000D01*
X125500000Y-95000000D02*
X125500000Y-93000000D01*
X152000000Y-84000000D02*
X152000000Y-86000000D01*
X151500000Y-86000000D02*
X148500000Y-86000000D01*
X151500000Y-84000000D02*
X151500000Y-86000000D01*
X148500000Y-84000000D02*
X151500000Y-84000000D01*
X148500000Y-86000000D02*
X148500000Y-84000000D01*
X162500000Y-108800000D02*
X164500000Y-108800000D01*
X162500000Y-112300000D02*
X164500000Y-112300000D01*
X162500000Y-109300000D02*
X162500000Y-112300000D01*
X164500000Y-109300000D02*
X162500000Y-109300000D01*
X164500000Y-112300000D02*
X164500000Y-109300000D01*
X165000000Y-108800000D02*
X167000000Y-108800000D01*
X167000000Y-109300000D02*
X167000000Y-112300000D01*
X165000000Y-109300000D02*
X167000000Y-109300000D01*
X165000000Y-112300000D02*
X165000000Y-109300000D01*
X167000000Y-112300000D02*
X165000000Y-112300000D01*
X144476000Y-84238000D02*
X144476000Y-85762000D01*
X147524000Y-84238000D02*
X144476000Y-84238000D01*
X147524000Y-85762000D02*
X147524000Y-84238000D01*
X144476000Y-85762000D02*
X147524000Y-85762000D01*
X163588000Y-88698000D02*
X152412000Y-88698000D01*
X163588000Y-95302000D02*
X163588000Y-88698000D01*
X152412000Y-95302000D02*
X163588000Y-95302000D01*
X152412000Y-88698000D02*
X152412000Y-95302000D01*
D15*
X153750000Y-84200000D02*
X153750000Y-87800000D01*
X153750000Y-87800000D02*
X162250000Y-87800000D01*
X162250000Y-87800000D02*
X162250000Y-84200000D01*
X162250000Y-84200000D02*
X153750000Y-84200000D01*
D13*
X178600000Y-95000000D02*
X180600000Y-92250000D01*
X180600000Y-92250000D02*
X180600000Y-89750000D01*
X180600000Y-89750000D02*
X178600000Y-87000000D01*
X178600000Y-87000000D02*
X164300000Y-87000000D01*
X164300000Y-87000000D02*
X164300000Y-95000000D01*
X164300000Y-95000000D02*
X178600000Y-95000000D01*
D14*
X124238000Y-109524000D02*
X125762000Y-109524000D01*
X124238000Y-106476000D02*
X124238000Y-109524000D01*
X125762000Y-106476000D02*
X124238000Y-106476000D01*
X125762000Y-109524000D02*
X125762000Y-106476000D01*
X126238000Y-109524000D02*
X127762000Y-109524000D01*
X126238000Y-106476000D02*
X126238000Y-109524000D01*
X127762000Y-106476000D02*
X126238000Y-106476000D01*
X127762000Y-109524000D02*
X127762000Y-106476000D01*
X166762000Y-105276000D02*
X165238000Y-105276000D01*
X166762000Y-108324000D02*
X166762000Y-105276000D01*
X165238000Y-108324000D02*
X166762000Y-108324000D01*
X165238000Y-105276000D02*
X165238000Y-108324000D01*
X149476000Y-106238000D02*
X149476000Y-107762000D01*
X152524000Y-106238000D02*
X149476000Y-106238000D01*
X152524000Y-107762000D02*
X152524000Y-106238000D01*
X149476000Y-107762000D02*
X152524000Y-107762000D01*
X145476000Y-107238000D02*
X145476000Y-108762000D01*
X148524000Y-107238000D02*
X145476000Y-107238000D01*
X148524000Y-108762000D02*
X148524000Y-107238000D01*
X145476000Y-108762000D02*
X148524000Y-108762000D01*
X149476000Y-108238000D02*
X149476000Y-109762000D01*
X152524000Y-108238000D02*
X149476000Y-108238000D01*
X152524000Y-109762000D02*
X152524000Y-108238000D01*
X149476000Y-109762000D02*
X152524000Y-109762000D01*
X145476000Y-109238000D02*
X145476000Y-110762000D01*
X148524000Y-109238000D02*
X145476000Y-109238000D01*
X148524000Y-110762000D02*
X148524000Y-109238000D01*
X145476000Y-110762000D02*
X148524000Y-110762000D01*
X149476000Y-110238000D02*
X149476000Y-111762000D01*
X152524000Y-110238000D02*
X149476000Y-110238000D01*
X152524000Y-111762000D02*
X152524000Y-110238000D01*
X149476000Y-111762000D02*
X152524000Y-111762000D01*
X155476000Y-105238000D02*
X155476000Y-106762000D01*
X158524000Y-105238000D02*
X155476000Y-105238000D01*
X158524000Y-106762000D02*
X158524000Y-105238000D01*
X155476000Y-106762000D02*
X158524000Y-106762000D01*
X155476000Y-107238000D02*
X155476000Y-108762000D01*
X158524000Y-107238000D02*
X155476000Y-107238000D01*
X158524000Y-108762000D02*
X158524000Y-107238000D01*
X155476000Y-108762000D02*
X158524000Y-108762000D01*
X155476000Y-109238000D02*
X155476000Y-110762000D01*
X158524000Y-109238000D02*
X155476000Y-109238000D01*
X158524000Y-110762000D02*
X158524000Y-109238000D01*
X155476000Y-110762000D02*
X158524000Y-110762000D01*
X148524000Y-106762000D02*
X148524000Y-105238000D01*
X145476000Y-106762000D02*
X148524000Y-106762000D01*
X145476000Y-105238000D02*
X145476000Y-106762000D01*
X148524000Y-105238000D02*
X145476000Y-105238000D01*
D13*
X135564815Y-94113624D02*
X135564815Y-94617593D01*
X135531217Y-94718386D01*
X135464021Y-94785582D01*
X135363228Y-94819180D01*
X135296032Y-94819180D01*
X136270370Y-94819180D02*
X135867196Y-94819180D01*
X136068783Y-94819180D02*
X136068783Y-94113624D01*
X136001587Y-94214418D01*
X135934391Y-94281614D01*
X135867196Y-94315212D01*
D16*
X136314286Y-85492857D02*
X136814286Y-85492857D01*
X137028572Y-86278571D02*
X136314286Y-86278571D01*
X136314286Y-84778571D01*
X137028572Y-84778571D01*
X137600000Y-86207143D02*
X137814286Y-86278571D01*
X138171429Y-86278571D01*
X138314286Y-86207143D01*
X138385715Y-86135714D01*
X138457143Y-85992857D01*
X138457143Y-85850000D01*
X138385715Y-85707143D01*
X138314286Y-85635714D01*
X138171429Y-85564286D01*
X137885715Y-85492857D01*
X137742857Y-85421429D01*
X137671429Y-85350000D01*
X137600000Y-85207143D01*
X137600000Y-85064286D01*
X137671429Y-84921429D01*
X137742857Y-84850000D01*
X137885715Y-84778571D01*
X138242857Y-84778571D01*
X138457143Y-84850000D01*
X139957143Y-86135714D02*
X139885714Y-86207143D01*
X139671428Y-86278571D01*
X139528571Y-86278571D01*
X139314286Y-86207143D01*
X139171428Y-86064286D01*
X139100000Y-85921429D01*
X139028571Y-85635714D01*
X139028571Y-85421429D01*
X139100000Y-85135714D01*
X139171428Y-84992857D01*
X139314286Y-84850000D01*
X139528571Y-84778571D01*
X139671428Y-84778571D01*
X139885714Y-84850000D01*
X139957143Y-84921429D01*
D13*
X133151984Y-94817593D02*
X133185582Y-94851191D01*
X133219180Y-94951984D01*
X133219180Y-95019180D01*
X133185582Y-95119974D01*
X133118386Y-95187170D01*
X133051191Y-95220767D01*
X132916799Y-95254365D01*
X132816005Y-95254365D01*
X132681614Y-95220767D01*
X132614418Y-95187170D01*
X132547222Y-95119974D01*
X132513624Y-95019180D01*
X132513624Y-94951984D01*
X132547222Y-94851191D01*
X132580820Y-94817593D01*
X133219180Y-94145635D02*
X133219180Y-94548809D01*
X133219180Y-94347222D02*
X132513624Y-94347222D01*
X132614418Y-94414418D01*
X132681614Y-94481614D01*
X132715212Y-94548809D01*
X131651984Y-94817593D02*
X131685582Y-94851191D01*
X131719180Y-94951984D01*
X131719180Y-95019180D01*
X131685582Y-95119974D01*
X131618386Y-95187170D01*
X131551191Y-95220767D01*
X131416799Y-95254365D01*
X131316005Y-95254365D01*
X131181614Y-95220767D01*
X131114418Y-95187170D01*
X131047222Y-95119974D01*
X131013624Y-95019180D01*
X131013624Y-94951984D01*
X131047222Y-94851191D01*
X131080820Y-94817593D01*
X131013624Y-94380820D02*
X131013624Y-94313624D01*
X131047222Y-94246428D01*
X131080820Y-94212830D01*
X131148016Y-94179232D01*
X131282407Y-94145635D01*
X131450397Y-94145635D01*
X131584788Y-94179232D01*
X131651984Y-94212830D01*
X131685582Y-94246428D01*
X131719180Y-94313624D01*
X131719180Y-94380820D01*
X131685582Y-94448016D01*
X131651984Y-94481614D01*
X131584788Y-94515211D01*
X131450397Y-94548809D01*
X131282407Y-94548809D01*
X131148016Y-94515211D01*
X131080820Y-94481614D01*
X131047222Y-94448016D01*
X131013624Y-94380820D01*
X129819180Y-94917593D02*
X129483201Y-95152778D01*
X129819180Y-95320767D02*
X129113624Y-95320767D01*
X129113624Y-95051984D01*
X129147222Y-94984788D01*
X129180820Y-94951191D01*
X129248016Y-94917593D01*
X129348809Y-94917593D01*
X129416005Y-94951191D01*
X129449603Y-94984788D01*
X129483201Y-95051984D01*
X129483201Y-95320767D01*
X129348809Y-94312830D02*
X129819180Y-94312830D01*
X129080026Y-94480820D02*
X129583995Y-94648809D01*
X129583995Y-94212037D01*
X128319180Y-94917593D02*
X127983201Y-95152778D01*
X128319180Y-95320767D02*
X127613624Y-95320767D01*
X127613624Y-95051984D01*
X127647222Y-94984788D01*
X127680820Y-94951191D01*
X127748016Y-94917593D01*
X127848809Y-94917593D01*
X127916005Y-94951191D01*
X127949603Y-94984788D01*
X127983201Y-95051984D01*
X127983201Y-95320767D01*
X127613624Y-94312830D02*
X127613624Y-94447222D01*
X127647222Y-94514418D01*
X127680820Y-94548016D01*
X127781614Y-94615211D01*
X127916005Y-94648809D01*
X128184788Y-94648809D01*
X128251984Y-94615211D01*
X128285582Y-94581614D01*
X128319180Y-94514418D01*
X128319180Y-94380026D01*
X128285582Y-94312830D01*
X128251984Y-94279232D01*
X128184788Y-94245635D01*
X128016799Y-94245635D01*
X127949603Y-94279232D01*
X127916005Y-94312830D01*
X127882407Y-94380026D01*
X127882407Y-94514418D01*
X127916005Y-94581614D01*
X127949603Y-94615211D01*
X128016799Y-94648809D01*
X126919180Y-94917593D02*
X126583201Y-95152778D01*
X126919180Y-95320767D02*
X126213624Y-95320767D01*
X126213624Y-95051984D01*
X126247222Y-94984788D01*
X126280820Y-94951191D01*
X126348016Y-94917593D01*
X126448809Y-94917593D01*
X126516005Y-94951191D01*
X126549603Y-94984788D01*
X126583201Y-95051984D01*
X126583201Y-95320767D01*
X126919180Y-94245635D02*
X126919180Y-94648809D01*
X126919180Y-94447222D02*
X126213624Y-94447222D01*
X126314418Y-94514418D01*
X126381614Y-94581614D01*
X126415212Y-94648809D01*
D17*
X153148148Y-112985582D02*
X153248941Y-113019180D01*
X153416931Y-113019180D01*
X153484127Y-112985582D01*
X153517725Y-112951984D01*
X153551322Y-112884788D01*
X153551322Y-112817593D01*
X153517725Y-112750397D01*
X153484127Y-112716799D01*
X153416931Y-112683201D01*
X153282539Y-112649603D01*
X153215343Y-112616005D01*
X153181746Y-112582407D01*
X153148148Y-112515212D01*
X153148148Y-112448016D01*
X153181746Y-112380820D01*
X153215343Y-112347222D01*
X153282539Y-112313624D01*
X153450529Y-112313624D01*
X153551322Y-112347222D01*
X153752910Y-112313624D02*
X154156085Y-112313624D01*
X153954497Y-113019180D02*
X153954497Y-112313624D01*
X154391270Y-112649603D02*
X154626455Y-112649603D01*
X154727249Y-113019180D02*
X154391270Y-113019180D01*
X154391270Y-112313624D01*
X154727249Y-112313624D01*
X155029630Y-112649603D02*
X155264815Y-112649603D01*
X155365609Y-113019180D02*
X155029630Y-113019180D01*
X155029630Y-112313624D01*
X155365609Y-112313624D01*
X156071164Y-113019180D02*
X155835979Y-112683201D01*
X155667990Y-113019180D02*
X155667990Y-112313624D01*
X155936773Y-112313624D01*
X156003969Y-112347222D01*
X156037566Y-112380820D01*
X156071164Y-112448016D01*
X156071164Y-112548809D01*
X156037566Y-112616005D01*
X156003969Y-112649603D01*
X155936773Y-112683201D01*
X155667990Y-112683201D01*
X156373546Y-113019180D02*
X156373546Y-112313624D01*
X156709525Y-113019180D02*
X156709525Y-112313624D01*
X157112699Y-113019180D01*
X157112699Y-112313624D01*
X157818255Y-112347222D02*
X157751060Y-112313624D01*
X157650266Y-112313624D01*
X157549472Y-112347222D01*
X157482276Y-112414418D01*
X157448679Y-112481614D01*
X157415081Y-112616005D01*
X157415081Y-112716799D01*
X157448679Y-112851191D01*
X157482276Y-112918386D01*
X157549472Y-112985582D01*
X157650266Y-113019180D01*
X157717462Y-113019180D01*
X157818255Y-112985582D01*
X157851853Y-112951984D01*
X157851853Y-112716799D01*
X157717462Y-112716799D01*
D13*
D17*
X143964153Y-112413624D02*
X144367328Y-112413624D01*
X144165740Y-113119180D02*
X144165740Y-112413624D01*
X144602513Y-113119180D02*
X144602513Y-112413624D01*
X144602513Y-112749603D02*
X145005687Y-112749603D01*
X145005687Y-113119180D02*
X145005687Y-112413624D01*
X145744841Y-113119180D02*
X145509656Y-112783201D01*
X145341667Y-113119180D02*
X145341667Y-112413624D01*
X145610450Y-112413624D01*
X145677646Y-112447222D01*
X145711243Y-112480820D01*
X145744841Y-112548016D01*
X145744841Y-112648809D01*
X145711243Y-112716005D01*
X145677646Y-112749603D01*
X145610450Y-112783201D01*
X145341667Y-112783201D01*
X146181614Y-112413624D02*
X146316006Y-112413624D01*
X146383202Y-112447222D01*
X146450397Y-112514418D01*
X146483995Y-112648809D01*
X146483995Y-112883995D01*
X146450397Y-113018386D01*
X146383202Y-113085582D01*
X146316006Y-113119180D01*
X146181614Y-113119180D01*
X146114418Y-113085582D01*
X146047223Y-113018386D01*
X146013625Y-112883995D01*
X146013625Y-112648809D01*
X146047223Y-112514418D01*
X146114418Y-112447222D01*
X146181614Y-112413624D01*
X146685583Y-112413624D02*
X147088758Y-112413624D01*
X146887170Y-113119180D02*
X146887170Y-112413624D01*
X147223149Y-112413624D02*
X147626324Y-112413624D01*
X147424736Y-113119180D02*
X147424736Y-112413624D01*
X148197488Y-113119180D02*
X147861509Y-113119180D01*
X147861509Y-112413624D01*
X148432673Y-112749603D02*
X148667858Y-112749603D01*
X148768652Y-113119180D02*
X148432673Y-113119180D01*
X148432673Y-112413624D01*
X148768652Y-112413624D01*
D13*
X122882408Y-85419180D02*
X122546429Y-85419180D01*
X122546429Y-84713624D01*
X123251984Y-84713624D02*
X123319180Y-84713624D01*
X123386376Y-84747222D01*
X123419974Y-84780820D01*
X123453572Y-84848016D01*
X123487169Y-84982407D01*
X123487169Y-85150397D01*
X123453572Y-85284788D01*
X123419974Y-85351984D01*
X123386376Y-85385582D01*
X123319180Y-85419180D01*
X123251984Y-85419180D01*
X123184788Y-85385582D01*
X123151190Y-85351984D01*
X123117593Y-85284788D01*
X123083995Y-85150397D01*
X123083995Y-84982407D01*
X123117593Y-84848016D01*
X123151190Y-84780820D01*
X123184788Y-84747222D01*
X123251984Y-84713624D01*
X131813624Y-113837566D02*
X132384788Y-113837566D01*
X132451984Y-113803969D01*
X132485582Y-113770371D01*
X132519180Y-113703175D01*
X132519180Y-113568783D01*
X132485582Y-113501587D01*
X132451984Y-113467990D01*
X132384788Y-113434392D01*
X131813624Y-113434392D01*
X131880820Y-113132010D02*
X131847222Y-113098412D01*
X131813624Y-113031217D01*
X131813624Y-112863227D01*
X131847222Y-112796031D01*
X131880820Y-112762433D01*
X131948016Y-112728836D01*
X132015212Y-112728836D01*
X132116005Y-112762433D01*
X132519180Y-113165608D01*
X132519180Y-112728836D01*
X131751984Y-110417593D02*
X131785582Y-110451191D01*
X131819180Y-110551984D01*
X131819180Y-110619180D01*
X131785582Y-110719974D01*
X131718386Y-110787170D01*
X131651191Y-110820767D01*
X131516799Y-110854365D01*
X131416005Y-110854365D01*
X131281614Y-110820767D01*
X131214418Y-110787170D01*
X131147222Y-110719974D01*
X131113624Y-110619180D01*
X131113624Y-110551984D01*
X131147222Y-110451191D01*
X131180820Y-110417593D01*
X131113624Y-110182407D02*
X131113624Y-109745635D01*
X131382407Y-109980820D01*
X131382407Y-109880026D01*
X131416005Y-109812830D01*
X131449603Y-109779232D01*
X131516799Y-109745635D01*
X131684788Y-109745635D01*
X131751984Y-109779232D01*
X131785582Y-109812830D01*
X131819180Y-109880026D01*
X131819180Y-110081614D01*
X131785582Y-110148809D01*
X131751984Y-110182407D01*
X129251984Y-110417593D02*
X129285582Y-110451191D01*
X129319180Y-110551984D01*
X129319180Y-110619180D01*
X129285582Y-110719974D01*
X129218386Y-110787170D01*
X129151191Y-110820767D01*
X129016799Y-110854365D01*
X128916005Y-110854365D01*
X128781614Y-110820767D01*
X128714418Y-110787170D01*
X128647222Y-110719974D01*
X128613624Y-110619180D01*
X128613624Y-110551984D01*
X128647222Y-110451191D01*
X128680820Y-110417593D01*
X128613624Y-109779232D02*
X128613624Y-110115211D01*
X128949603Y-110148809D01*
X128916005Y-110115211D01*
X128882407Y-110048016D01*
X128882407Y-109880026D01*
X128916005Y-109812830D01*
X128949603Y-109779232D01*
X129016799Y-109745635D01*
X129184788Y-109745635D01*
X129251984Y-109779232D01*
X129285582Y-109812830D01*
X129319180Y-109880026D01*
X129319180Y-110048016D01*
X129285582Y-110115211D01*
X129251984Y-110148809D01*
X162319180Y-106817593D02*
X161983201Y-107052778D01*
X162319180Y-107220767D02*
X161613624Y-107220767D01*
X161613624Y-106951984D01*
X161647222Y-106884788D01*
X161680820Y-106851191D01*
X161748016Y-106817593D01*
X161848809Y-106817593D01*
X161916005Y-106851191D01*
X161949603Y-106884788D01*
X161983201Y-106951984D01*
X161983201Y-107220767D01*
X161613624Y-106582407D02*
X161613624Y-106112037D01*
X162319180Y-106414418D01*
X134151984Y-86617593D02*
X134185582Y-86651191D01*
X134219180Y-86751984D01*
X134219180Y-86819180D01*
X134185582Y-86919974D01*
X134118386Y-86987170D01*
X134051191Y-87020767D01*
X133916799Y-87054365D01*
X133816005Y-87054365D01*
X133681614Y-87020767D01*
X133614418Y-86987170D01*
X133547222Y-86919974D01*
X133513624Y-86819180D01*
X133513624Y-86751984D01*
X133547222Y-86651191D01*
X133580820Y-86617593D01*
X133580820Y-86348809D02*
X133547222Y-86315211D01*
X133513624Y-86248016D01*
X133513624Y-86080026D01*
X133547222Y-86012830D01*
X133580820Y-85979232D01*
X133648016Y-85945635D01*
X133715212Y-85945635D01*
X133816005Y-85979232D01*
X134219180Y-86382407D01*
X134219180Y-85945635D01*
X129262434Y-84913624D02*
X129262434Y-85484788D01*
X129296031Y-85551984D01*
X129329629Y-85585582D01*
X129396825Y-85619180D01*
X129531217Y-85619180D01*
X129598413Y-85585582D01*
X129632010Y-85551984D01*
X129665608Y-85484788D01*
X129665608Y-84913624D01*
X130135979Y-84913624D02*
X130203175Y-84913624D01*
X130270371Y-84947222D01*
X130303969Y-84980820D01*
X130337567Y-85048016D01*
X130371164Y-85182407D01*
X130371164Y-85350397D01*
X130337567Y-85484788D01*
X130303969Y-85551984D01*
X130270371Y-85585582D01*
X130203175Y-85619180D01*
X130135979Y-85619180D01*
X130068783Y-85585582D01*
X130035185Y-85551984D01*
X130001588Y-85484788D01*
X129967990Y-85350397D01*
X129967990Y-85182407D01*
X130001588Y-85048016D01*
X130035185Y-84980820D01*
X130068783Y-84947222D01*
X130135979Y-84913624D01*
X124282407Y-96051984D02*
X124248809Y-96085582D01*
X124148016Y-96119180D01*
X124080820Y-96119180D01*
X123980026Y-96085582D01*
X123912830Y-96018386D01*
X123879233Y-95951191D01*
X123845635Y-95816799D01*
X123845635Y-95716005D01*
X123879233Y-95581614D01*
X123912830Y-95514418D01*
X123980026Y-95447222D01*
X124080820Y-95413624D01*
X124148016Y-95413624D01*
X124248809Y-95447222D01*
X124282407Y-95480820D01*
X124887170Y-95648809D02*
X124887170Y-96119180D01*
X124719180Y-95380026D02*
X124551191Y-95883995D01*
X124987963Y-95883995D01*
X152379233Y-85519180D02*
X152379233Y-84813624D01*
X152547222Y-84813624D01*
X152648016Y-84847222D01*
X152715212Y-84914418D01*
X152748809Y-84981614D01*
X152782407Y-85116005D01*
X152782407Y-85216799D01*
X152748809Y-85351191D01*
X152715212Y-85418386D01*
X152648016Y-85485582D01*
X152547222Y-85519180D01*
X152379233Y-85519180D01*
X153454365Y-85519180D02*
X153051191Y-85519180D01*
X153252778Y-85519180D02*
X153252778Y-84813624D01*
X153185582Y-84914418D01*
X153118386Y-84981614D01*
X153051191Y-85015212D01*
X162219180Y-111320767D02*
X161513624Y-111320767D01*
X161513624Y-111152778D01*
X161547222Y-111051984D01*
X161614418Y-110984788D01*
X161681614Y-110951191D01*
X161816005Y-110917593D01*
X161916799Y-110917593D01*
X162051191Y-110951191D01*
X162118386Y-110984788D01*
X162185582Y-111051984D01*
X162219180Y-111152778D01*
X162219180Y-111320767D01*
X161513624Y-110480820D02*
X161513624Y-110413624D01*
X161547222Y-110346428D01*
X161580820Y-110312830D01*
X161648016Y-110279232D01*
X161782407Y-110245635D01*
X161950397Y-110245635D01*
X162084788Y-110279232D01*
X162151984Y-110312830D01*
X162185582Y-110346428D01*
X162219180Y-110413624D01*
X162219180Y-110480820D01*
X162185582Y-110548016D01*
X162151984Y-110581614D01*
X162084788Y-110615211D01*
X161950397Y-110648809D01*
X161782407Y-110648809D01*
X161648016Y-110615211D01*
X161580820Y-110581614D01*
X161547222Y-110548016D01*
X161513624Y-110480820D01*
X168019180Y-111520767D02*
X167313624Y-111520767D01*
X167313624Y-111352778D01*
X167347222Y-111251984D01*
X167414418Y-111184788D01*
X167481614Y-111151191D01*
X167616005Y-111117593D01*
X167716799Y-111117593D01*
X167851191Y-111151191D01*
X167918386Y-111184788D01*
X167985582Y-111251984D01*
X168019180Y-111352778D01*
X168019180Y-111520767D01*
X167380820Y-110848809D02*
X167347222Y-110815211D01*
X167313624Y-110748016D01*
X167313624Y-110580026D01*
X167347222Y-110512830D01*
X167380820Y-110479232D01*
X167448016Y-110445635D01*
X167515212Y-110445635D01*
X167616005Y-110479232D01*
X168019180Y-110882407D01*
X168019180Y-110445635D01*
X143382407Y-85519180D02*
X143147222Y-85183201D01*
X142979233Y-85519180D02*
X142979233Y-84813624D01*
X143248016Y-84813624D01*
X143315212Y-84847222D01*
X143348809Y-84880820D01*
X143382407Y-84948016D01*
X143382407Y-85048809D01*
X143348809Y-85116005D01*
X143315212Y-85149603D01*
X143248016Y-85183201D01*
X142979233Y-85183201D01*
X143651191Y-84880820D02*
X143684789Y-84847222D01*
X143751984Y-84813624D01*
X143919974Y-84813624D01*
X143987170Y-84847222D01*
X144020768Y-84880820D01*
X144054365Y-84948016D01*
X144054365Y-85015212D01*
X144020768Y-85116005D01*
X143617593Y-85519180D01*
X144054365Y-85519180D01*
X162762434Y-87613624D02*
X162762434Y-88184788D01*
X162796031Y-88251984D01*
X162829629Y-88285582D01*
X162896825Y-88319180D01*
X163031217Y-88319180D01*
X163098413Y-88285582D01*
X163132010Y-88251984D01*
X163165608Y-88184788D01*
X163165608Y-87613624D01*
X163871164Y-88319180D02*
X163467990Y-88319180D01*
X163669577Y-88319180D02*
X163669577Y-87613624D01*
X163602381Y-87714418D01*
X163535185Y-87781614D01*
X163467990Y-87815212D01*
X162662434Y-85985582D02*
X162763227Y-86019180D01*
X162931217Y-86019180D01*
X162998413Y-85985582D01*
X163032011Y-85951984D01*
X163065608Y-85884788D01*
X163065608Y-85817593D01*
X163032011Y-85750397D01*
X162998413Y-85716799D01*
X162931217Y-85683201D01*
X162796825Y-85649603D01*
X162729629Y-85616005D01*
X162696032Y-85582407D01*
X162662434Y-85515212D01*
X162662434Y-85448016D01*
X162696032Y-85380820D01*
X162729629Y-85347222D01*
X162796825Y-85313624D01*
X162964815Y-85313624D01*
X163065608Y-85347222D01*
X163502381Y-85313624D02*
X163569577Y-85313624D01*
X163636773Y-85347222D01*
X163670371Y-85380820D01*
X163703969Y-85448016D01*
X163737566Y-85582407D01*
X163737566Y-85750397D01*
X163703969Y-85884788D01*
X163670371Y-85951984D01*
X163636773Y-85985582D01*
X163569577Y-86019180D01*
X163502381Y-86019180D01*
X163435185Y-85985582D01*
X163401587Y-85951984D01*
X163367990Y-85884788D01*
X163334392Y-85750397D01*
X163334392Y-85582407D01*
X163367990Y-85448016D01*
X163401587Y-85380820D01*
X163435185Y-85347222D01*
X163502381Y-85313624D01*
X177764815Y-86013624D02*
X177764815Y-86517593D01*
X177731217Y-86618386D01*
X177664021Y-86685582D01*
X177563228Y-86719180D01*
X177496032Y-86719180D01*
X178235185Y-86013624D02*
X178302381Y-86013624D01*
X178369577Y-86047222D01*
X178403175Y-86080820D01*
X178436773Y-86148016D01*
X178470370Y-86282407D01*
X178470370Y-86450397D01*
X178436773Y-86584788D01*
X178403175Y-86651984D01*
X178369577Y-86685582D01*
X178302381Y-86719180D01*
X178235185Y-86719180D01*
X178167989Y-86685582D01*
X178134391Y-86651984D01*
X178100794Y-86584788D01*
X178067196Y-86450397D01*
X178067196Y-86282407D01*
X178100794Y-86148016D01*
X178134391Y-86080820D01*
X178167989Y-86047222D01*
X178235185Y-86013624D01*
D14*
X170521429Y-85692857D02*
X170735715Y-85764286D01*
X170807143Y-85835714D01*
X170878572Y-85978571D01*
X170878572Y-86192857D01*
X170807143Y-86335714D01*
X170735715Y-86407143D01*
X170592857Y-86478571D01*
X170021429Y-86478571D01*
X170021429Y-84978571D01*
X170521429Y-84978571D01*
X170664286Y-85050000D01*
X170735715Y-85121429D01*
X170807143Y-85264286D01*
X170807143Y-85407143D01*
X170735715Y-85550000D01*
X170664286Y-85621429D01*
X170521429Y-85692857D01*
X170021429Y-85692857D01*
X171450000Y-86050000D02*
X172164286Y-86050000D01*
X171307143Y-86478571D02*
X171807143Y-84978571D01*
X172307143Y-86478571D01*
X172592857Y-84978571D02*
X173450000Y-84978571D01*
X173021429Y-86478571D02*
X173021429Y-84978571D01*
X173735714Y-84978571D02*
X174592857Y-84978571D01*
X174164286Y-86478571D02*
X174164286Y-84978571D01*
D13*
X125319180Y-110517593D02*
X124983201Y-110752778D01*
X125319180Y-110920767D02*
X124613624Y-110920767D01*
X124613624Y-110651984D01*
X124647222Y-110584788D01*
X124680820Y-110551191D01*
X124748016Y-110517593D01*
X124848809Y-110517593D01*
X124916005Y-110551191D01*
X124949603Y-110584788D01*
X124983201Y-110651984D01*
X124983201Y-110920767D01*
X124613624Y-110080820D02*
X124613624Y-110013624D01*
X124647222Y-109946428D01*
X124680820Y-109912830D01*
X124748016Y-109879232D01*
X124882407Y-109845635D01*
X125050397Y-109845635D01*
X125184788Y-109879232D01*
X125251984Y-109912830D01*
X125285582Y-109946428D01*
X125319180Y-110013624D01*
X125319180Y-110080820D01*
X125285582Y-110148016D01*
X125251984Y-110181614D01*
X125184788Y-110215211D01*
X125050397Y-110248809D01*
X124882407Y-110248809D01*
X124748016Y-110215211D01*
X124680820Y-110181614D01*
X124647222Y-110148016D01*
X124613624Y-110080820D01*
X127319180Y-110417593D02*
X126983201Y-110652778D01*
X127319180Y-110820767D02*
X126613624Y-110820767D01*
X126613624Y-110551984D01*
X126647222Y-110484788D01*
X126680820Y-110451191D01*
X126748016Y-110417593D01*
X126848809Y-110417593D01*
X126916005Y-110451191D01*
X126949603Y-110484788D01*
X126983201Y-110551984D01*
X126983201Y-110820767D01*
X126613624Y-110182407D02*
X126613624Y-109745635D01*
X126882407Y-109980820D01*
X126882407Y-109880026D01*
X126916005Y-109812830D01*
X126949603Y-109779232D01*
X127016799Y-109745635D01*
X127184788Y-109745635D01*
X127251984Y-109779232D01*
X127285582Y-109812830D01*
X127319180Y-109880026D01*
X127319180Y-110081614D01*
X127285582Y-110148809D01*
X127251984Y-110182407D01*
X167819180Y-106817593D02*
X167483201Y-107052778D01*
X167819180Y-107220767D02*
X167113624Y-107220767D01*
X167113624Y-106951984D01*
X167147222Y-106884788D01*
X167180820Y-106851191D01*
X167248016Y-106817593D01*
X167348809Y-106817593D01*
X167416005Y-106851191D01*
X167449603Y-106884788D01*
X167483201Y-106951984D01*
X167483201Y-107220767D01*
X167113624Y-106179232D02*
X167113624Y-106515211D01*
X167449603Y-106548809D01*
X167416005Y-106515211D01*
X167382407Y-106448016D01*
X167382407Y-106280026D01*
X167416005Y-106212830D01*
X167449603Y-106179232D01*
X167516799Y-106145635D01*
X167684788Y-106145635D01*
X167751984Y-106179232D01*
X167785582Y-106212830D01*
X167819180Y-106280026D01*
X167819180Y-106448016D01*
X167785582Y-106515211D01*
X167751984Y-106548809D01*
X153282407Y-106619180D02*
X153047222Y-106283201D01*
X152879233Y-106619180D02*
X152879233Y-105913624D01*
X153148016Y-105913624D01*
X153215212Y-105947222D01*
X153248809Y-105980820D01*
X153282407Y-106048016D01*
X153282407Y-106148809D01*
X153248809Y-106216005D01*
X153215212Y-106249603D01*
X153148016Y-106283201D01*
X152879233Y-106283201D01*
X153618386Y-106619180D02*
X153752778Y-106619180D01*
X153819974Y-106585582D01*
X153853572Y-106551984D01*
X153920768Y-106451191D01*
X153954365Y-106316799D01*
X153954365Y-106048016D01*
X153920768Y-105980820D01*
X153887170Y-105947222D01*
X153819974Y-105913624D01*
X153685582Y-105913624D01*
X153618386Y-105947222D01*
X153584789Y-105980820D01*
X153551191Y-106048016D01*
X153551191Y-106216005D01*
X153584789Y-106283201D01*
X153618386Y-106316799D01*
X153685582Y-106350397D01*
X153819974Y-106350397D01*
X153887170Y-106316799D01*
X153920768Y-106283201D01*
X153954365Y-106216005D01*
X143846428Y-108319180D02*
X143611243Y-107983201D01*
X143443254Y-108319180D02*
X143443254Y-107613624D01*
X143712037Y-107613624D01*
X143779233Y-107647222D01*
X143812830Y-107680820D01*
X143846428Y-107748016D01*
X143846428Y-107848809D01*
X143812830Y-107916005D01*
X143779233Y-107949603D01*
X143712037Y-107983201D01*
X143443254Y-107983201D01*
X144518386Y-108319180D02*
X144115212Y-108319180D01*
X144316799Y-108319180D02*
X144316799Y-107613624D01*
X144249603Y-107714418D01*
X144182407Y-107781614D01*
X144115212Y-107815212D01*
X144955159Y-107613624D02*
X145022355Y-107613624D01*
X145089551Y-107647222D01*
X145123149Y-107680820D01*
X145156747Y-107748016D01*
X145190344Y-107882407D01*
X145190344Y-108050397D01*
X145156747Y-108184788D01*
X145123149Y-108251984D01*
X145089551Y-108285582D01*
X145022355Y-108319180D01*
X144955159Y-108319180D01*
X144887963Y-108285582D01*
X144854365Y-108251984D01*
X144820768Y-108184788D01*
X144787170Y-108050397D01*
X144787170Y-107882407D01*
X144820768Y-107748016D01*
X144854365Y-107680820D01*
X144887963Y-107647222D01*
X144955159Y-107613624D01*
X153246428Y-108619180D02*
X153011243Y-108283201D01*
X152843254Y-108619180D02*
X152843254Y-107913624D01*
X153112037Y-107913624D01*
X153179233Y-107947222D01*
X153212830Y-107980820D01*
X153246428Y-108048016D01*
X153246428Y-108148809D01*
X153212830Y-108216005D01*
X153179233Y-108249603D01*
X153112037Y-108283201D01*
X152843254Y-108283201D01*
X153918386Y-108619180D02*
X153515212Y-108619180D01*
X153716799Y-108619180D02*
X153716799Y-107913624D01*
X153649603Y-108014418D01*
X153582407Y-108081614D01*
X153515212Y-108115212D01*
X154590344Y-108619180D02*
X154187170Y-108619180D01*
X154388757Y-108619180D02*
X154388757Y-107913624D01*
X154321561Y-108014418D01*
X154254365Y-108081614D01*
X154187170Y-108115212D01*
X143746428Y-110319180D02*
X143511243Y-109983201D01*
X143343254Y-110319180D02*
X143343254Y-109613624D01*
X143612037Y-109613624D01*
X143679233Y-109647222D01*
X143712830Y-109680820D01*
X143746428Y-109748016D01*
X143746428Y-109848809D01*
X143712830Y-109916005D01*
X143679233Y-109949603D01*
X143612037Y-109983201D01*
X143343254Y-109983201D01*
X144418386Y-110319180D02*
X144015212Y-110319180D01*
X144216799Y-110319180D02*
X144216799Y-109613624D01*
X144149603Y-109714418D01*
X144082407Y-109781614D01*
X144015212Y-109815212D01*
X144687170Y-109680820D02*
X144720768Y-109647222D01*
X144787963Y-109613624D01*
X144955953Y-109613624D01*
X145023149Y-109647222D01*
X145056747Y-109680820D01*
X145090344Y-109748016D01*
X145090344Y-109815212D01*
X145056747Y-109916005D01*
X144653572Y-110319180D01*
X145090344Y-110319180D01*
X153346428Y-110719180D02*
X153111243Y-110383201D01*
X152943254Y-110719180D02*
X152943254Y-110013624D01*
X153212037Y-110013624D01*
X153279233Y-110047222D01*
X153312830Y-110080820D01*
X153346428Y-110148016D01*
X153346428Y-110248809D01*
X153312830Y-110316005D01*
X153279233Y-110349603D01*
X153212037Y-110383201D01*
X152943254Y-110383201D01*
X154018386Y-110719180D02*
X153615212Y-110719180D01*
X153816799Y-110719180D02*
X153816799Y-110013624D01*
X153749603Y-110114418D01*
X153682407Y-110181614D01*
X153615212Y-110215212D01*
X154253572Y-110013624D02*
X154690344Y-110013624D01*
X154455159Y-110282407D01*
X154555953Y-110282407D01*
X154623149Y-110316005D01*
X154656747Y-110349603D01*
X154690344Y-110416799D01*
X154690344Y-110584788D01*
X154656747Y-110651984D01*
X154623149Y-110685582D01*
X154555953Y-110719180D01*
X154354365Y-110719180D01*
X154287170Y-110685582D01*
X154253572Y-110651984D01*
X159246428Y-106319180D02*
X159011243Y-105983201D01*
X158843254Y-106319180D02*
X158843254Y-105613624D01*
X159112037Y-105613624D01*
X159179233Y-105647222D01*
X159212830Y-105680820D01*
X159246428Y-105748016D01*
X159246428Y-105848809D01*
X159212830Y-105916005D01*
X159179233Y-105949603D01*
X159112037Y-105983201D01*
X158843254Y-105983201D01*
X159918386Y-106319180D02*
X159515212Y-106319180D01*
X159716799Y-106319180D02*
X159716799Y-105613624D01*
X159649603Y-105714418D01*
X159582407Y-105781614D01*
X159515212Y-105815212D01*
X160523149Y-105848809D02*
X160523149Y-106319180D01*
X160355159Y-105580026D02*
X160187170Y-106083995D01*
X160623942Y-106083995D01*
X159346428Y-108519180D02*
X159111243Y-108183201D01*
X158943254Y-108519180D02*
X158943254Y-107813624D01*
X159212037Y-107813624D01*
X159279233Y-107847222D01*
X159312830Y-107880820D01*
X159346428Y-107948016D01*
X159346428Y-108048809D01*
X159312830Y-108116005D01*
X159279233Y-108149603D01*
X159212037Y-108183201D01*
X158943254Y-108183201D01*
X160018386Y-108519180D02*
X159615212Y-108519180D01*
X159816799Y-108519180D02*
X159816799Y-107813624D01*
X159749603Y-107914418D01*
X159682407Y-107981614D01*
X159615212Y-108015212D01*
X160656747Y-107813624D02*
X160320768Y-107813624D01*
X160287170Y-108149603D01*
X160320768Y-108116005D01*
X160387963Y-108082407D01*
X160555953Y-108082407D01*
X160623149Y-108116005D01*
X160656747Y-108149603D01*
X160690344Y-108216799D01*
X160690344Y-108384788D01*
X160656747Y-108451984D01*
X160623149Y-108485582D01*
X160555953Y-108519180D01*
X160387963Y-108519180D01*
X160320768Y-108485582D01*
X160287170Y-108451984D01*
X159346428Y-111119180D02*
X159111243Y-110783201D01*
X158943254Y-111119180D02*
X158943254Y-110413624D01*
X159212037Y-110413624D01*
X159279233Y-110447222D01*
X159312830Y-110480820D01*
X159346428Y-110548016D01*
X159346428Y-110648809D01*
X159312830Y-110716005D01*
X159279233Y-110749603D01*
X159212037Y-110783201D01*
X158943254Y-110783201D01*
X160018386Y-111119180D02*
X159615212Y-111119180D01*
X159816799Y-111119180D02*
X159816799Y-110413624D01*
X159749603Y-110514418D01*
X159682407Y-110581614D01*
X159615212Y-110615212D01*
X160623149Y-110413624D02*
X160488757Y-110413624D01*
X160421561Y-110447222D01*
X160387963Y-110480820D01*
X160320768Y-110581614D01*
X160287170Y-110716005D01*
X160287170Y-110984788D01*
X160320768Y-111051984D01*
X160354365Y-111085582D01*
X160421561Y-111119180D01*
X160555953Y-111119180D01*
X160623149Y-111085582D01*
X160656747Y-111051984D01*
X160690344Y-110984788D01*
X160690344Y-110816799D01*
X160656747Y-110749603D01*
X160623149Y-110716005D01*
X160555953Y-110682407D01*
X160421561Y-110682407D01*
X160354365Y-110716005D01*
X160320768Y-110749603D01*
X160287170Y-110816799D01*
X144482407Y-106319180D02*
X144247222Y-105983201D01*
X144079233Y-106319180D02*
X144079233Y-105613624D01*
X144348016Y-105613624D01*
X144415212Y-105647222D01*
X144448809Y-105680820D01*
X144482407Y-105748016D01*
X144482407Y-105848809D01*
X144448809Y-105916005D01*
X144415212Y-105949603D01*
X144348016Y-105983201D01*
X144079233Y-105983201D01*
X144885582Y-105916005D02*
X144818386Y-105882407D01*
X144784789Y-105848809D01*
X144751191Y-105781614D01*
X144751191Y-105748016D01*
X144784789Y-105680820D01*
X144818386Y-105647222D01*
X144885582Y-105613624D01*
X145019974Y-105613624D01*
X145087170Y-105647222D01*
X145120768Y-105680820D01*
X145154365Y-105748016D01*
X145154365Y-105781614D01*
X145120768Y-105848809D01*
X145087170Y-105882407D01*
X145019974Y-105916005D01*
X144885582Y-105916005D01*
X144818386Y-105949603D01*
X144784789Y-105983201D01*
X144751191Y-106050397D01*
X144751191Y-106184788D01*
X144784789Y-106251984D01*
X144818386Y-106285582D01*
X144885582Y-106319180D01*
X145019974Y-106319180D01*
X145087170Y-106285582D01*
X145120768Y-106251984D01*
X145154365Y-106184788D01*
X145154365Y-106050397D01*
X145120768Y-105983201D01*
X145087170Y-105949603D01*
X145019974Y-105916005D01*
M02*
